  0
SECTION
  2
HEADER
  9
$ACADVER
  1
AC1032
  9
$ACADMAINTVER
 90
4
  9
$DWGCODEPAGE
  3
ANSI_1252
  9
$LASTSAVEDBY
  1
ezdxf
  9
$REQUIREDVERSIONS
160
0
  9
$INSBASE
 10
0.0
 20
0.0
 30
0.0
  9
$EXTMIN
 10
1e+20
 20
1e+20
 30
1e+20
  9
$EXTMAX
 10
-1e+20
 20
-1e+20
 30
-1e+20
  9
$LIMMIN
 10
0.0
 20
0.0
  9
$LIMMAX
 10
420.0
 20
297.0
  9
$ORTHOMODE
 70
0
  9
$REGENMODE
 70
1
  9
$FILLMODE
 70
1
  9
$QTEXTMODE
 70
0
  9
$MIRRTEXT
 70
1
  9
$LTSCALE
 40
1.0
  9
$ATTMODE
 70
1
  9
$TEXTSIZE
 40
2.5
  9
$TRACEWID
 40
1.0
  9
$TEXTSTYLE
  7
Standard
  9
$CLAYER
  8
0
  9
$CELTYPE
  6
ByLayer
  9
$CECOLOR
 62
256
  9
$CELTSCALE
 40
1.0
  9
$DISPSILH
 70
0
  9
$DIMSCALE
 40
1.0
  9
$DIMASZ
 40
2.5
  9
$DIMEXO
 40
0.625
  9
$DIMDLI
 40
3.75
  9
$DIMRND
 40
0.0
  9
$DIMDLE
 40
0.0
  9
$DIMEXE
 40
1.25
  9
$DIMTP
 40
0.0
  9
$DIMTM
 40
0.0
  9
$DIMTXT
 40
2.5
  9
$DIMCEN
 40
2.5
  9
$DIMTSZ
 40
0.0
  9
$DIMTOL
 70
0
  9
$DIMLIM
 70
0
  9
$DIMTIH
 70
0
  9
$DIMTOH
 70
0
  9
$DIMSE1
 70
0
  9
$DIMSE2
 70
0
  9
$DIMTAD
 70
1
  9
$DIMZIN
 70
8
  9
$DIMBLK
  1

  9
$DIMASO
 70
1
  9
$DIMSHO
 70
1
  9
$DIMPOST
  1

  9
$DIMAPOST
  1

  9
$DIMALT
 70
0
  9
$DIMALTD
 70
3
  9
$DIMALTF
 40
0.03937007874
  9
$DIMLFAC
 40
1.0
  9
$DIMTOFL
 70
1
  9
$DIMTVP
 40
0.0
  9
$DIMTIX
 70
0
  9
$DIMSOXD
 70
0
  9
$DIMSAH
 70
0
  9
$DIMBLK1
  1

  9
$DIMBLK2
  1

  9
$DIMSTYLE
  2
ISO-25
  9
$DIMCLRD
 70
0
  9
$DIMCLRE
 70
0
  9
$DIMCLRT
 70
0
  9
$DIMTFAC
 40
1.0
  9
$DIMGAP
 40
0.625
  9
$DIMJUST
 70
0
  9
$DIMSD1
 70
0
  9
$DIMSD2
 70
0
  9
$DIMTOLJ
 70
0
  9
$DIMTZIN
 70
8
  9
$DIMALTZ
 70
0
  9
$DIMALTTZ
 70
0
  9
$DIMUPT
 70
0
  9
$DIMDEC
 70
2
  9
$DIMTDEC
 70
2
  9
$DIMALTU
 70
2
  9
$DIMALTTD
 70
3
  9
$DIMTXSTY
  7
Standard
  9
$DIMAUNIT
 70
0
  9
$DIMADEC
 70
0
  9
$DIMALTRND
 40
0.0
  9
$DIMAZIN
 70
0
  9
$DIMDSEP
 70
44
  9
$DIMATFIT
 70
3
  9
$DIMFRAC
 70
0
  9
$DIMLDRBLK
  1

  9
$DIMLUNIT
 70
2
  9
$DIMLWD
 70
-2
  9
$DIMLWE
 70
-2
  9
$DIMTMOVE
 70
0
  9
$DIMFXL
 40
1.0
  9
$DIMFXLON
 70
0
  9
$DIMJOGANG
 40
0.785398163397
  9
$DIMTFILL
 70
0
  9
$DIMTFILLCLR
 70
0
  9
$DIMARCSYM
 70
0
  9
$DIMLTYPE
  6

  9
$DIMLTEX1
  6

  9
$DIMLTEX2
  6

  9
$DIMTXTDIRECTION
 70
0
  9
$LUNITS
 70
2
  9
$LUPREC
 70
4
  9
$SKETCHINC
 40
1.0
  9
$FILLETRAD
 40
10.0
  9
$AUNITS
 70
0
  9
$AUPREC
 70
2
  9
$MENU
  1
.
  9
$ELEVATION
 40
0.0
  9
$PELEVATION
 40
0.0
  9
$THICKNESS
 40
0.0
  9
$LIMCHECK
 70
0
  9
$CHAMFERA
 40
0.0
  9
$CHAMFERB
 40
0.0
  9
$CHAMFERC
 40
0.0
  9
$CHAMFERD
 40
0.0
  9
$SKPOLY
 70
0
  9
$TDCREATE
 40
2461264.0580092594
  9
$TDUCREATE
 40
2458532.153996898
  9
$TDUPDATE
 40
2461264.0580092594
  9
$TDUUPDATE
 40
2458532.1544311
  9
$TDINDWG
 40
0.0
  9
$TDUSRTIMER
 40
0.0
  9
$USRTIMER
 70
1
  9
$ANGBASE
 50
0.0
  9
$ANGDIR
 70
0
  9
$PDMODE
 70
0
  9
$PDSIZE
 40
0.0
  9
$PLINEWID
 40
0.0
  9
$SPLFRAME
 70
0
  9
$SPLINETYPE
 70
6
  9
$SPLINESEGS
 70
8
  9
$HANDSEED
  5
3C3
  9
$SURFTAB1
 70
6
  9
$SURFTAB2
 70
6
  9
$SURFTYPE
 70
6
  9
$SURFU
 70
6
  9
$SURFV
 70
6
  9
$UCSBASE
  2

  9
$UCSNAME
  2

  9
$UCSORG
 10
0.0
 20
0.0
 30
0.0
  9
$UCSXDIR
 10
1.0
 20
0.0
 30
0.0
  9
$UCSYDIR
 10
0.0
 20
1.0
 30
0.0
  9
$UCSORTHOREF
  2

  9
$UCSORTHOVIEW
 70
0
  9
$UCSORGTOP
 10
0.0
 20
0.0
 30
0.0
  9
$UCSORGBOTTOM
 10
0.0
 20
0.0
 30
0.0
  9
$UCSORGLEFT
 10
0.0
 20
0.0
 30
0.0
  9
$UCSORGRIGHT
 10
0.0
 20
0.0
 30
0.0
  9
$UCSORGFRONT
 10
0.0
 20
0.0
 30
0.0
  9
$UCSORGBACK
 10
0.0
 20
0.0
 30
0.0
  9
$PUCSBASE
  2

  9
$PUCSNAME
  2

  9
$PUCSORG
 10
0.0
 20
0.0
 30
0.0
  9
$PUCSXDIR
 10
1.0
 20
0.0
 30
0.0
  9
$PUCSYDIR
 10
0.0
 20
1.0
 30
0.0
  9
$PUCSORTHOREF
  2

  9
$PUCSORTHOVIEW
 70
0
  9
$PUCSORGTOP
 10
0.0
 20
0.0
 30
0.0
  9
$PUCSORGBOTTOM
 10
0.0
 20
0.0
 30
0.0
  9
$PUCSORGLEFT
 10
0.0
 20
0.0
 30
0.0
  9
$PUCSORGRIGHT
 10
0.0
 20
0.0
 30
0.0
  9
$PUCSORGFRONT
 10
0.0
 20
0.0
 30
0.0
  9
$PUCSORGBACK
 10
0.0
 20
0.0
 30
0.0
  9
$USERI1
 70
0
  9
$USERI2
 70
0
  9
$USERI3
 70
0
  9
$USERI4
 70
0
  9
$USERI5
 70
0
  9
$USERR1
 40
0.0
  9
$USERR2
 40
0.0
  9
$USERR3
 40
0.0
  9
$USERR4
 40
0.0
  9
$USERR5
 40
0.0
  9
$WORLDVIEW
 70
1
  9
$SHADEDGE
 70
3
  9
$SHADEDIF
 70
70
  9
$TILEMODE
 70
1
  9
$MAXACTVP
 70
64
  9
$PINSBASE
 10
0.0
 20
0.0
 30
0.0
  9
$PLIMCHECK
 70
0
  9
$PEXTMIN
 10
1e+20
 20
1e+20
 30
1e+20
  9
$PEXTMAX
 10
-1e+20
 20
-1e+20
 30
-1e+20
  9
$PLIMMIN
 10
0.0
 20
0.0
  9
$PLIMMAX
 10
420.0
 20
297.0
  9
$UNITMODE
 70
0
  9
$VISRETAIN
 70
1
  9
$PLINEGEN
 70
0
  9
$PSLTSCALE
 70
1
  9
$TREEDEPTH
 70
3020
  9
$CMLSTYLE
  2
Standard
  9
$CMLJUST
 70
0
  9
$CMLSCALE
 40
20.0
  9
$PROXYGRAPHICS
 70
1
  9
$MEASUREMENT
 70
1
  9
$CELWEIGHT
370
-1
  9
$ENDCAPS
280
0
  9
$JOINSTYLE
280
0
  9
$LWDISPLAY
290
0
  9
$INSUNITS
 70
4
  9
$HYPERLINKBASE
  1

  9
$STYLESHEET
  1

  9
$XEDIT
290
1
  9
$CEPSNTYPE
380
0
  9
$PSTYLEMODE
290
1
  9
$FINGERPRINTGUID
  2
{11CE8D2B-1DDB-4634-8828-87C1BAACC12C}
  9
$VERSIONGUID
  2
{5ED863B3-C765-4846-B874-233C06803F6A}
  9
$EXTNAMES
290
1
  9
$PSVPSCALE
 40
0.0
  9
$OLESTARTUP
290
0
  9
$SORTENTS
280
127
  9
$INDEXCTL
280
0
  9
$HIDETEXT
280
1
  9
$XCLIPFRAME
280
1
  9
$HALOGAP
280
0
  9
$OBSCOLOR
 70
257
  9
$OBSLTYPE
280
0
  9
$INTERSECTIONDISPLAY
280
0
  9
$INTERSECTIONCOLOR
 70
257
  9
$DIMASSOC
280
2
  9
$PROJECTNAME
  1

  9
$CAMERADISPLAY
290
0
  9
$LENSLENGTH
 40
50.0
  9
$CAMERAHEIGHT
 40
0.0
  9
$STEPSPERSEC
 40
24.0
  9
$STEPSIZE
 40
100.0
  9
$3DDWFPREC
 40
2.0
  9
$PSOLWIDTH
 40
0.005
  9
$PSOLHEIGHT
 40
0.08
  9
$LOFTANG1
 40
1.570796326795
  9
$LOFTANG2
 40
1.570796326795
  9
$LOFTMAG1
 40
0.0
  9
$LOFTMAG2
 40
0.0
  9
$LOFTPARAM
 70
7
  9
$LOFTNORMALS
280
1
  9
$LATITUDE
 40
37.795
  9
$LONGITUDE
 40
-122.394
  9
$NORTHDIRECTION
 40
0.0
  9
$TIMEZONE
 70
-8000
  9
$LIGHTGLYPHDISPLAY
280
1
  9
$TILEMODELIGHTSYNCH
280
1
  9
$CMATERIAL
347
20
  9
$SOLIDHIST
280
0
  9
$SHOWHIST
280
1
  9
$DWFFRAME
280
2
  9
$DGNFRAME
280
2
  9
$REALWORLDSCALE
290
1
  9
$INTERFERECOLOR
 62
256
  9
$CSHADOW
280
0
  9
$SHADOWPLANELOCATION
 40
0.0
  0
ENDSEC
  0
SECTION
  2
CLASSES
  0
CLASS
  1
ACDBDICTIONARYWDFLT
  2
AcDbDictionaryWithDefault
  3
ObjectDBX Classes
 90
0
 91
0
280
0
281
0
  0
CLASS
  1
SUN
  2
AcDbSun
  3
SCENEOE
 90
1153
 91
0
280
0
281
0
  0
CLASS
  1
VISUALSTYLE
  2
AcDbVisualStyle
  3
ObjectDBX Classes
 90
4095
 91
0
280
0
281
0
  0
CLASS
  1
MATERIAL
  2
AcDbMaterial
  3
ObjectDBX Classes
 90
1153
 91
0
280
0
281
0
  0
CLASS
  1
SCALE
  2
AcDbScale
  3
ObjectDBX Classes
 90
1153
 91
0
280
0
281
0
  0
CLASS
  1
TABLESTYLE
  2
AcDbTableStyle
  3
ObjectDBX Classes
 90
4095
 91
0
280
0
281
0
  0
CLASS
  1
MLEADERSTYLE
  2
AcDbMLeaderStyle
  3
ACDB_MLEADERSTYLE_CLASS
 90
4095
 91
0
280
0
281
0
  0
CLASS
  1
DICTIONARYVAR
  2
AcDbDictionaryVar
  3
ObjectDBX Classes
 90
0
 91
0
280
0
281
0
  0
CLASS
  1
CELLSTYLEMAP
  2
AcDbCellStyleMap
  3
ObjectDBX Classes
 90
1152
 91
0
280
0
281
0
  0
CLASS
  1
MENTALRAYRENDERSETTINGS
  2
AcDbMentalRayRenderSettings
  3
SCENEOE
 90
1024
 91
0
280
0
281
0
  0
CLASS
  1
ACDBDETAILVIEWSTYLE
  2
AcDbDetailViewStyle
  3
ObjectDBX Classes
 90
1025
 91
0
280
0
281
0
  0
CLASS
  1
ACDBSECTIONVIEWSTYLE
  2
AcDbSectionViewStyle
  3
ObjectDBX Classes
 90
1025
 91
0
280
0
281
0
  0
CLASS
  1
RASTERVARIABLES
  2
AcDbRasterVariables
  3
ISM
 90
0
 91
0
280
0
281
0
  0
CLASS
  1
ACDBPLACEHOLDER
  2
AcDbPlaceHolder
  3
ObjectDBX Classes
 90
0
 91
0
280
0
281
0
  0
CLASS
  1
LAYOUT
  2
AcDbLayout
  3
ObjectDBX Classes
 90
0
 91
0
280
0
281
0
  0
ENDSEC
  0
SECTION
  2
TABLES
  0
TABLE
  2
VPORT
  5
8
330
0
100
AcDbSymbolTable
 70
1
  0
VPORT
  5
23
330
8
100
AcDbSymbolTableRecord
100
AcDbViewportTableRecord
  2
*Active
 70
0
 10
0.0
 20
0.0
 11
1.0
 21
1.0
 12
0.0
 22
0.0
 13
0.0
 23
0.0
 14
0.5
 24
0.5
 15
0.5
 25
0.5
 16
0.0
 26
0.0
 36
1.0
 17
0.0
 27
0.0
 37
0.0
 40
1000.0
 41
1.34
 42
50.0
 43
0.0
 44
0.0
 50
0.0
 51
0.0
 71
0
 72
1000
 73
1
 74
3
 75
0
 76
0
 77
0
 78
0
281
0
 65
0
146
0.0
  0
ENDTAB
  0
TABLE
  2
LTYPE
  5
2
330
0
100
AcDbSymbolTable
 70
4
  0
LTYPE
  5
24
330
2
100
AcDbSymbolTableRecord
100
AcDbLinetypeTableRecord
  2
ByBlock
 70
0
  3

 72
65
 73
0
 40
0.0
  0
LTYPE
  5
25
330
2
100
AcDbSymbolTableRecord
100
AcDbLinetypeTableRecord
  2
ByLayer
 70
0
  3

 72
65
 73
0
 40
0.0
  0
LTYPE
  5
26
330
2
100
AcDbSymbolTableRecord
100
AcDbLinetypeTableRecord
  2
Continuous
 70
0
  3

 72
65
 73
0
 40
0.0
  0
LTYPE
  5
30
330
2
100
AcDbSymbolTableRecord
100
AcDbLinetypeTableRecord
  2
DASHED
 70
0
  3
Dashed 0.5 / 0.25
 72
65
 73
2
 40
0.75
 49
0.5
 74
0
 49
-0.25
 74
0
  0
ENDTAB
  0
TABLE
  2
LAYER
  5
1
330
0
100
AcDbSymbolTable
 70
17
  0
LAYER
  5
27
330
1
100
AcDbSymbolTableRecord
100
AcDbLayerTableRecord
  2
0
 70
0
 62
7
  6
Continuous
370
-3
390
13
347
21
  0
LAYER
  5
28
330
1
100
AcDbSymbolTableRecord
100
AcDbLayerTableRecord
  2
Defpoints
 70
0
 62
7
  6
Continuous
290
0
370
-3
390
13
347
21
  0
LAYER
  5
32
330
1
100
AcDbSymbolTableRecord
100
AcDbLayerTableRecord
  2
A-AXIS
 70
0
 62
8
  6
Continuous
370
25
390
13
347
21
  0
LAYER
  5
33
330
1
100
AcDbSymbolTableRecord
100
AcDbLayerTableRecord
  2
A-CUT
 70
0
 62
1
  6
Continuous
370
50
390
13
347
21
  0
LAYER
  5
34
330
1
100
AcDbSymbolTableRecord
100
AcDbLayerTableRecord
  2
A-OUTLINE
 70
0
 62
7
  6
Continuous
370
50
390
13
347
21
  0
LAYER
  5
35
330
1
100
AcDbSymbolTableRecord
100
AcDbLayerTableRecord
  2
A-PROJ
 70
0
 62
8
  6
Continuous
370
25
390
13
347
21
  0
LAYER
  5
36
330
1
100
AcDbSymbolTableRecord
100
AcDbLayerTableRecord
  2
A-HIDDEN
 70
0
 62
9
  6
DASHED
370
25
390
13
347
21
  0
LAYER
  5
37
330
1
100
AcDbSymbolTableRecord
100
AcDbLayerTableRecord
  2
A-DIM
 70
0
 62
3
  6
Continuous
370
25
390
13
347
21
  0
LAYER
  5
38
330
1
100
AcDbSymbolTableRecord
100
AcDbLayerTableRecord
  2
A-TEXT
 70
0
 62
7
  6
Continuous
370
25
390
13
347
21
  0
LAYER
  5
39
330
1
100
AcDbSymbolTableRecord
100
AcDbLayerTableRecord
  2
A-HATCH
 70
0
 62
9
  6
Continuous
370
25
390
13
347
21
  0
LAYER
  5
3A
330
1
100
AcDbSymbolTableRecord
100
AcDbLayerTableRecord
  2
A-EXIST
 70
0
 62
7
  6
Continuous
370
25
390
13
347
21
  0
LAYER
  5
3B
330
1
100
AcDbSymbolTableRecord
100
AcDbLayerTableRecord
  2
A-DAMAGE
 70
0
 62
1
  6
Continuous
370
25
390
13
347
21
  0
LAYER
  5
3C
330
1
100
AcDbSymbolTableRecord
100
AcDbLayerTableRecord
  2
A-REPAIR
 70
0
 62
5
  6
Continuous
370
25
390
13
347
21
  0
LAYER
  5
3D
330
1
100
AcDbSymbolTableRecord
100
AcDbLayerTableRecord
  2
A-FRAME
 70
0
 62
7
  6
Continuous
370
25
390
13
347
21
  0
LAYER
  5
3E
330
1
100
AcDbSymbolTableRecord
100
AcDbLayerTableRecord
  2
A-ROOF
 70
0
 62
8
  6
Continuous
370
25
390
13
347
21
  0
LAYER
  5
3F
330
1
100
AcDbSymbolTableRecord
100
AcDbLayerTableRecord
  2
A-TIMBER
 70
0
 62
30
  6
Continuous
370
25
390
13
347
21
  0
LAYER
  5
40
330
1
100
AcDbSymbolTableRecord
100
AcDbLayerTableRecord
  2
A-OPEN
 70
0
 62
4
  6
Continuous
370
25
390
13
347
21
  0
ENDTAB
  0
TABLE
  2
STYLE
  5
5
330
0
100
AcDbSymbolTable
 70
2
  0
STYLE
  5
29
330
5
100
AcDbSymbolTableRecord
100
AcDbTextStyleTableRecord
  2
Standard
 70
0
 40
0.0
 41
1.0
 50
0.0
 71
0
 42
2.5
  3
txt
  4

  0
STYLE
  5
31
330
5
100
AcDbSymbolTableRecord
100
AcDbTextStyleTableRecord
  2
GUJIAN_CN
 70
0
 40
0.0
 41
1.0
 50
0.0
 71
0
 42
2.5
  3
simhei.ttf
  4

  0
ENDTAB
  0
TABLE
  2
VIEW
  5
7
330
0
100
AcDbSymbolTable
 70
0
  0
ENDTAB
  0
TABLE
  2
UCS
  5
6
330
0
100
AcDbSymbolTable
 70
0
  0
ENDTAB
  0
TABLE
  2
APPID
  5
3
330
0
100
AcDbSymbolTable
 70
4
  0
APPID
  5
2A
330
3
100
AcDbSymbolTableRecord
100
AcDbRegAppTableRecord
  2
ACAD
 70
0
  0
APPID
  5
2F
330
3
100
AcDbSymbolTableRecord
100
AcDbRegAppTableRecord
  2
GUJIAN_SOURCE
 70
0
  0
APPID
  5
3C0
330
3
100
AcDbSymbolTableRecord
100
AcDbRegAppTableRecord
  2
HATCHBACKGROUNDCOLOR
 70
0
  0
APPID
  5
3C1
330
3
100
AcDbSymbolTableRecord
100
AcDbRegAppTableRecord
  2
EZDXF
 70
0
  0
ENDTAB
  0
TABLE
  2
DIMSTYLE
  5
4
330
0
100
AcDbSymbolTable
 70
2
100
AcDbDimStyleTable
  0
DIMSTYLE
105
2B
330
4
100
AcDbSymbolTableRecord
100
AcDbDimStyleTableRecord
  2
Standard
 70
0
 40
1.0
 41
2.5
 42
0.625
 43
3.75
 44
1.25
 45
0.0
 46
0.0
 47
0.0
 48
0.0
 49
2.5
140
2.5
141
2.5
142
0.0
143
0.03937007874
144
1.0
145
0.0
146
1.0
147
0.625
148
0.0
 69
0
 70
0
 71
0
 72
0
 73
0
 74
0
 75
0
 76
0
 77
1
 78
8
 79
3
170
0
171
3
172
1
173
0
174
0
175
0
176
0
177
0
178
0
179
2
271
2
272
2
273
2
274
3
275
0
276
0
277
2
278
44
279
0
280
0
281
0
282
0
283
0
284
8
285
0
286
0
288
0
289
3
290
0
371
-2
372
-2
  0
DIMSTYLE
105
41
330
4
100
AcDbSymbolTableRecord
100
AcDbDimStyleTableRecord
  2
GUJIAN-DIM
 70
0
 40
1.0
 41
120.0
 42
60.0
 43
3.75
 44
100.0
 45
0.0
 46
0.0
 47
0.0
 48
0.0
 49
2.5
140
180.0
141
2.5
142
0.0
143
0.03937007874
144
1.0
145
0.0
146
1.0
147
0.625
148
0.0
 69
0
 70
0
 71
0
 72
0
 73
0
 74
0
 75
0
 76
0
 77
1
 78
8
 79
3
170
0
171
3
172
1
173
0
174
0
175
0
176
0
177
0
178
0
179
2
271
2
272
2
273
2
274
3
275
0
276
0
277
2
278
44
279
0
280
0
281
0
282
0
283
0
284
8
285
0
286
0
288
0
289
3
290
0
340
31
371
-2
372
-2
  0
ENDTAB
  0
TABLE
  2
BLOCK_RECORD
  5
9
330
0
100
AcDbSymbolTable
 70
18
  0
BLOCK_RECORD
  5
17
330
9
100
AcDbSymbolTableRecord
100
AcDbBlockTableRecord
  2
*Model_Space
340
1A
 70
0
280
1
281
0
  0
BLOCK_RECORD
  5
1B
330
9
100
AcDbSymbolTableRecord
100
AcDbBlockTableRecord
  2
*Paper_Space
340
1E
 70
0
280
1
281
0
  0
BLOCK_RECORD
  5
42
330
9
100
AcDbSymbolTableRecord
100
AcDbBlockTableRecord
  2
BRACKET
340
0
 70
0
280
1
281
0
  0
BLOCK_RECORD
  5
214
330
9
100
AcDbSymbolTableRecord
100
AcDbBlockTableRecord
  2
*D1
340
0
 70
0
280
1
281
0
  0
BLOCK_RECORD
  5
219
330
9
100
AcDbSymbolTableRecord
100
AcDbBlockTableRecord
  2
_CLOSEDFILLED
340
0
 70
0
280
1
281
0
  0
BLOCK_RECORD
  5
228
330
9
100
AcDbSymbolTableRecord
100
AcDbBlockTableRecord
  2
*D2
340
0
 70
0
280
1
281
0
  0
BLOCK_RECORD
  5
238
330
9
100
AcDbSymbolTableRecord
100
AcDbBlockTableRecord
  2
*D3
340
0
 70
0
280
1
281
0
  0
BLOCK_RECORD
  5
248
330
9
100
AcDbSymbolTableRecord
100
AcDbBlockTableRecord
  2
*D4
340
0
 70
0
280
1
281
0
  0
BLOCK_RECORD
  5
258
330
9
100
AcDbSymbolTableRecord
100
AcDbBlockTableRecord
  2
*D5
340
0
 70
0
280
1
281
0
  0
BLOCK_RECORD
  5
268
330
9
100
AcDbSymbolTableRecord
100
AcDbBlockTableRecord
  2
*D6
340
0
 70
0
280
1
281
0
  0
BLOCK_RECORD
  5
2DA
330
9
100
AcDbSymbolTableRecord
100
AcDbBlockTableRecord
  2
*D7
340
0
 70
0
280
1
281
0
  0
BLOCK_RECORD
  5
2EA
330
9
100
AcDbSymbolTableRecord
100
AcDbBlockTableRecord
  2
*D8
340
0
 70
0
280
1
281
0
  0
BLOCK_RECORD
  5
2FA
330
9
100
AcDbSymbolTableRecord
100
AcDbBlockTableRecord
  2
*D9
340
0
 70
0
280
1
281
0
  0
BLOCK_RECORD
  5
327
330
9
100
AcDbSymbolTableRecord
100
AcDbBlockTableRecord
  2
*D10
340
0
 70
0
280
1
281
0
  0
BLOCK_RECORD
  5
337
330
9
100
AcDbSymbolTableRecord
100
AcDbBlockTableRecord
  2
*D11
340
0
 70
0
280
1
281
0
  0
BLOCK_RECORD
  5
392
330
9
100
AcDbSymbolTableRecord
100
AcDbBlockTableRecord
  2
*D12
340
0
 70
0
280
1
281
0
  0
BLOCK_RECORD
  5
3A2
330
9
100
AcDbSymbolTableRecord
100
AcDbBlockTableRecord
  2
*D13
340
0
 70
0
280
1
281
0
  0
BLOCK_RECORD
  5
3B6
330
9
100
AcDbSymbolTableRecord
100
AcDbBlockTableRecord
  2
*Paper_Space0
340
3B9
 70
0
280
1
281
0
  0
ENDTAB
  0
ENDSEC
  0
SECTION
  2
BLOCKS
  0
BLOCK
  5
18
330
17
100
AcDbEntity
  8
0
100
AcDbBlockBegin
  2
*Model_Space
 70
0
 10
0.0
 20
0.0
 30
0.0
  3
*Model_Space
  1

  0
ENDBLK
  5
19
330
17
100
AcDbEntity
  8
0
100
AcDbBlockEnd
  0
BLOCK
  5
1C
330
1B
100
AcDbEntity
  8
0
100
AcDbBlockBegin
  2
*Paper_Space
 70
0
 10
0.0
 20
0.0
 30
0.0
  3
*Paper_Space
  1

  0
ENDBLK
  5
1D
330
1B
100
AcDbEntity
  8
0
100
AcDbBlockEnd
  0
BLOCK
  5
43
330
42
100
AcDbEntity
  8
0
100
AcDbBlockBegin
  2
BRACKET
 70
0
 10
0.0
 20
0.0
 30
0.0
  3
BRACKET
  1

  0
LWPOLYLINE
  5
45
330
42
100
AcDbEntity
  8
A-TIMBER
100
AcDbPolyline
 90
4
 70
1
 10
-520.0
 20
0.0
 10
520.0
 20
0.0
 10
360.0
 20
180.0
 10
-360.0
 20
180.0
  0
LWPOLYLINE
  5
46
330
42
100
AcDbEntity
  8
A-TIMBER
100
AcDbPolyline
 90
4
 70
1
 10
-330.0
 20
180.0
 10
330.0
 20
180.0
 10
220.0
 20
360.0
 10
-220.0
 20
360.0
  0
LINE
  5
47
330
42
100
AcDbEntity
  8
A-TIMBER
100
AcDbLine
 10
-520.0
 20
360.0
 30
0.0
 11
520.0
 21
360.0
 31
0.0
  0
ENDBLK
  5
44
330
42
100
AcDbEntity
  8
0
100
AcDbBlockEnd
  0
BLOCK
  5
215
330
214
100
AcDbEntity
  8
0
100
AcDbBlockBegin
  2
*D1
 70
1
 10
0.0
 20
0.0
 30
0.0
  3
*D1
  1

  0
LINE
  5
217
330
214
100
AcDbEntity
  8
0
100
AcDbLine
 10
-6000.0
 20
-60.0
 30
0.0
 11
-6000.0
 21
-1600.0
 31
0.0
  0
LINE
  5
218
330
214
100
AcDbEntity
  8
0
100
AcDbLine
 10
-2400.0
 20
-60.0
 30
0.0
 11
-2400.0
 21
-1600.0
 31
0.0
  0
INSERT
  5
21D
330
214
100
AcDbEntity
  8
A-DIM
100
AcDbBlockReference
  2
_CLOSEDFILLED
 10
-6000.0
 20
-1500.0
 30
0.0
 41
120.0
 42
120.0
 50
180.0
  0
INSERT
  5
21F
330
214
100
AcDbEntity
  8
A-DIM
100
AcDbBlockReference
  2
_CLOSEDFILLED
 10
-2400.0
 20
-1500.0
 30
0.0
 41
120.0
 42
120.0
  0
LINE
  5
221
330
214
100
AcDbEntity
  8
0
100
AcDbLine
 10
-5880.0
 20
-1500.0
 30
0.0
 11
-4560.0
 21
-1500.0
 31
0.0
  0
LINE
  5
222
330
214
100
AcDbEntity
  8
0
100
AcDbLine
 10
-3840.0
 20
-1500.0
 30
0.0
 11
-2520.0
 21
-1500.0
 31
0.0
  0
MTEXT
  5
223
330
214
100
AcDbEntity
  8
A-DIM
100
AcDbMText
 10
-4200.0
 20
-1500.0
 30
0.0
 40
180.0
 71
5
  1
3600
  7
GUJIAN_CN
  0
POINT
  5
224
330
214
100
AcDbEntity
  8
Defpoints
100
AcDbPoint
 10
-6000.0
 20
-1500.0
 30
0.0
  0
POINT
  5
225
330
214
100
AcDbEntity
  8
Defpoints
100
AcDbPoint
 10
-6000.0
 20
0.0
 30
0.0
  0
POINT
  5
226
330
214
100
AcDbEntity
  8
Defpoints
100
AcDbPoint
 10
-2400.0
 20
0.0
 30
0.0
  0
ENDBLK
  5
216
330
214
100
AcDbEntity
  8
0
100
AcDbBlockEnd
  0
BLOCK
  5
21A
330
219
100
AcDbEntity
  8
0
100
AcDbBlockBegin
  2
_CLOSEDFILLED
 70
0
 10
0.0
 20
0.0
 30
0.0
  3
_CLOSEDFILLED
  1

  0
SOLID
  5
21C
330
219
100
AcDbEntity
  8
0
  6
BYBLOCK
 62
0
100
AcDbTrace
 10
-1.0
 20
0.16439898372402537
 30
0.0
 11
0.0
 21
0.0
 31
0.0
 12
-1.0
 22
-0.16439898372402537
 32
0.0
 13
-1.0
 23
-0.16439898372402537
 33
0.0
  0
ENDBLK
  5
21B
330
219
100
AcDbEntity
  8
0
100
AcDbBlockEnd
  0
BLOCK
  5
229
330
228
100
AcDbEntity
  8
0
100
AcDbBlockBegin
  2
*D2
 70
1
 10
0.0
 20
0.0
 30
0.0
  3
*D2
  1

  0
LINE
  5
22B
330
228
100
AcDbEntity
  8
0
100
AcDbLine
 10
-2400.0
 20
-60.0
 30
0.0
 11
-2400.0
 21
-1600.0
 31
0.0
  0
LINE
  5
22C
330
228
100
AcDbEntity
  8
0
100
AcDbLine
 10
2400.0
 20
-60.0
 30
0.0
 11
2400.0
 21
-1600.0
 31
0.0
  0
INSERT
  5
22D
330
228
100
AcDbEntity
  8
A-DIM
100
AcDbBlockReference
  2
_CLOSEDFILLED
 10
-2400.0
 20
-1500.0
 30
0.0
 41
120.0
 42
120.0
 50
180.0
  0
INSERT
  5
22F
330
228
100
AcDbEntity
  8
A-DIM
100
AcDbBlockReference
  2
_CLOSEDFILLED
 10
2400.0
 20
-1500.0
 30
0.0
 41
120.0
 42
120.0
  0
LINE
  5
231
330
228
100
AcDbEntity
  8
0
100
AcDbLine
 10
-2280.0
 20
-1500.0
 30
0.0
 11
-360.0
 21
-1500.0
 31
0.0
  0
LINE
  5
232
330
228
100
AcDbEntity
  8
0
100
AcDbLine
 10
360.0
 20
-1500.0
 30
0.0
 11
2280.0
 21
-1500.0
 31
0.0
  0
MTEXT
  5
233
330
228
100
AcDbEntity
  8
A-DIM
100
AcDbMText
 10
0.0
 20
-1500.0
 30
0.0
 40
180.0
 71
5
  1
4800
  7
GUJIAN_CN
  0
POINT
  5
234
330
228
100
AcDbEntity
  8
Defpoints
100
AcDbPoint
 10
-2400.0
 20
-1500.0
 30
0.0
  0
POINT
  5
235
330
228
100
AcDbEntity
  8
Defpoints
100
AcDbPoint
 10
-2400.0
 20
0.0
 30
0.0
  0
POINT
  5
236
330
228
100
AcDbEntity
  8
Defpoints
100
AcDbPoint
 10
2400.0
 20
0.0
 30
0.0
  0
ENDBLK
  5
22A
330
228
100
AcDbEntity
  8
0
100
AcDbBlockEnd
  0
BLOCK
  5
239
330
238
100
AcDbEntity
  8
0
100
AcDbBlockBegin
  2
*D3
 70
1
 10
0.0
 20
0.0
 30
0.0
  3
*D3
  1

  0
LINE
  5
23B
330
238
100
AcDbEntity
  8
0
100
AcDbLine
 10
2400.0
 20
-60.0
 30
0.0
 11
2400.0
 21
-1600.0
 31
0.0
  0
LINE
  5
23C
330
238
100
AcDbEntity
  8
0
100
AcDbLine
 10
6000.0
 20
-60.0
 30
0.0
 11
6000.0
 21
-1600.0
 31
0.0
  0
INSERT
  5
23D
330
238
100
AcDbEntity
  8
A-DIM
100
AcDbBlockReference
  2
_CLOSEDFILLED
 10
2400.0
 20
-1500.0
 30
0.0
 41
120.0
 42
120.0
 50
180.0
  0
INSERT
  5
23F
330
238
100
AcDbEntity
  8
A-DIM
100
AcDbBlockReference
  2
_CLOSEDFILLED
 10
6000.0
 20
-1500.0
 30
0.0
 41
120.0
 42
120.0
  0
LINE
  5
241
330
238
100
AcDbEntity
  8
0
100
AcDbLine
 10
2520.0
 20
-1500.0
 30
0.0
 11
3840.0
 21
-1500.0
 31
0.0
  0
LINE
  5
242
330
238
100
AcDbEntity
  8
0
100
AcDbLine
 10
4560.0
 20
-1500.0
 30
0.0
 11
5880.0
 21
-1500.0
 31
0.0
  0
MTEXT
  5
243
330
238
100
AcDbEntity
  8
A-DIM
100
AcDbMText
 10
4200.0
 20
-1500.0
 30
0.0
 40
180.0
 71
5
  1
3600
  7
GUJIAN_CN
  0
POINT
  5
244
330
238
100
AcDbEntity
  8
Defpoints
100
AcDbPoint
 10
2400.0
 20
-1500.0
 30
0.0
  0
POINT
  5
245
330
238
100
AcDbEntity
  8
Defpoints
100
AcDbPoint
 10
2400.0
 20
0.0
 30
0.0
  0
POINT
  5
246
330
238
100
AcDbEntity
  8
Defpoints
100
AcDbPoint
 10
6000.0
 20
0.0
 30
0.0
  0
ENDBLK
  5
23A
330
238
100
AcDbEntity
  8
0
100
AcDbBlockEnd
  0
BLOCK
  5
249
330
248
100
AcDbEntity
  8
0
100
AcDbBlockBegin
  2
*D4
 70
1
 10
0.0
 20
0.0
 30
0.0
  3
*D4
  1

  0
LINE
  5
24B
330
248
100
AcDbEntity
  8
0
100
AcDbLine
 10
-6000.0
 20
-60.0
 30
0.0
 11
-6000.0
 21
-2300.0
 31
0.0
  0
LINE
  5
24C
330
248
100
AcDbEntity
  8
0
100
AcDbLine
 10
6000.0
 20
-60.0
 30
0.0
 11
6000.0
 21
-2300.0
 31
0.0
  0
INSERT
  5
24D
330
248
100
AcDbEntity
  8
A-DIM
100
AcDbBlockReference
  2
_CLOSEDFILLED
 10
-6000.0
 20
-2200.0
 30
0.0
 41
120.0
 42
120.0
 50
180.0
  0
INSERT
  5
24F
330
248
100
AcDbEntity
  8
A-DIM
100
AcDbBlockReference
  2
_CLOSEDFILLED
 10
6000.0
 20
-2200.0
 30
0.0
 41
120.0
 42
120.0
  0
LINE
  5
251
330
248
100
AcDbEntity
  8
0
100
AcDbLine
 10
-5880.0
 20
-2200.0
 30
0.0
 11
-450.0
 21
-2200.0
 31
0.0
  0
LINE
  5
252
330
248
100
AcDbEntity
  8
0
100
AcDbLine
 10
449.9999999999991
 20
-2200.0
 30
0.0
 11
5880.0
 21
-2200.0
 31
0.0
  0
MTEXT
  5
253
330
248
100
AcDbEntity
  8
A-DIM
100
AcDbMText
 10
0.0
 20
-2200.0
 30
0.0
 40
180.0
 71
5
  1
12000
  7
GUJIAN_CN
  0
POINT
  5
254
330
248
100
AcDbEntity
  8
Defpoints
100
AcDbPoint
 10
-6000.0
 20
-2200.0
 30
0.0
  0
POINT
  5
255
330
248
100
AcDbEntity
  8
Defpoints
100
AcDbPoint
 10
-6000.0
 20
0.0
 30
0.0
  0
POINT
  5
256
330
248
100
AcDbEntity
  8
Defpoints
100
AcDbPoint
 10
6000.0
 20
0.0
 30
0.0
  0
ENDBLK
  5
24A
330
248
100
AcDbEntity
  8
0
100
AcDbBlockEnd
  0
BLOCK
  5
259
330
258
100
AcDbEntity
  8
0
100
AcDbBlockBegin
  2
*D5
 70
1
 10
0.0
 20
0.0
 30
0.0
  3
*D5
  1

  0
LINE
  5
25B
330
258
100
AcDbEntity
  8
0
100
AcDbLine
 10
6060.0
 20
0.0
 30
0.0
 11
7800.0
 21
0.0
 31
0.0
  0
LINE
  5
25C
330
258
100
AcDbEntity
  8
0
100
AcDbLine
 10
6060.0
 20
9000.0
 30
0.0
 11
7800.0
 21
9000.0
 31
0.0
  0
INSERT
  5
25D
330
258
100
AcDbEntity
  8
A-DIM
100
AcDbBlockReference
  2
_CLOSEDFILLED
 10
7700.0
 20
0.0
 30
0.0
 41
120.0
 42
120.0
 50
270.0
  0
INSERT
  5
25F
330
258
100
AcDbEntity
  8
A-DIM
100
AcDbBlockReference
  2
_CLOSEDFILLED
 10
7700.0
 20
9000.0
 30
0.0
 41
120.0
 42
120.0
 50
90.0
  0
LINE
  5
261
330
258
100
AcDbEntity
  8
0
100
AcDbLine
 10
7700.0
 20
120.0
 30
0.0
 11
7700.0
 21
4140.0
 31
0.0
  0
LINE
  5
262
330
258
100
AcDbEntity
  8
0
100
AcDbLine
 10
7700.0
 20
4860.000000000001
 30
0.0
 11
7700.0
 21
8880.0
 31
0.0
  0
MTEXT
  5
263
330
258
100
AcDbEntity
  8
A-DIM
100
AcDbMText
 10
7700.0
 20
4500.0
 30
0.0
 40
180.0
 71
5
  1
9000
  7
GUJIAN_CN
 50
90.0
  0
POINT
  5
264
330
258
100
AcDbEntity
  8
Defpoints
100
AcDbPoint
 10
7700.0
 20
0.0
 30
0.0
  0
POINT
  5
265
330
258
100
AcDbEntity
  8
Defpoints
100
AcDbPoint
 10
6000.0
 20
0.0
 30
0.0
  0
POINT
  5
266
330
258
100
AcDbEntity
  8
Defpoints
100
AcDbPoint
 10
6000.0
 20
9000.0
 30
0.0
  0
ENDBLK
  5
25A
330
258
100
AcDbEntity
  8
0
100
AcDbBlockEnd
  0
BLOCK
  5
269
330
268
100
AcDbEntity
  8
0
100
AcDbBlockBegin
  2
*D6
 70
1
 10
0.0
 20
0.0
 30
0.0
  3
*D6
  1

  0
LINE
  5
26B
330
268
100
AcDbEntity
  8
0
100
AcDbLine
 10
-7400.0
 20
5340.0
 30
0.0
 11
-7400.0
 21
-3000.0
 31
0.0
  0
LINE
  5
26C
330
268
100
AcDbEntity
  8
0
100
AcDbLine
 10
7400.0
 20
5340.0
 30
0.0
 11
7400.0
 21
-3000.0
 31
0.0
  0
INSERT
  5
26D
330
268
100
AcDbEntity
  8
A-DIM
100
AcDbBlockReference
  2
_CLOSEDFILLED
 10
-7400.0
 20
-2900.0
 30
0.0
 41
120.0
 42
120.0
 50
180.0
  0
INSERT
  5
26F
330
268
100
AcDbEntity
  8
A-DIM
100
AcDbBlockReference
  2
_CLOSEDFILLED
 10
7400.0
 20
-2900.0
 30
0.0
 41
120.0
 42
120.0
  0
LINE
  5
271
330
268
100
AcDbEntity
  8
0
100
AcDbLine
 10
-7280.0
 20
-2900.0
 30
0.0
 11
-450.0
 21
-2900.0
 31
0.0
  0
LINE
  5
272
330
268
100
AcDbEntity
  8
0
100
AcDbLine
 10
450.0
 20
-2900.0
 30
0.0
 11
7280.0
 21
-2900.0
 31
0.0
  0
MTEXT
  5
273
330
268
100
AcDbEntity
  8
A-DIM
100
AcDbMText
 10
0.0
 20
-2900.0
 30
0.0
 40
180.0
 71
5
  1
14800
  7
GUJIAN_CN
  0
POINT
  5
274
330
268
100
AcDbEntity
  8
Defpoints
100
AcDbPoint
 10
-7400.0
 20
-2900.0
 30
0.0
  0
POINT
  5
275
330
268
100
AcDbEntity
  8
Defpoints
100
AcDbPoint
 10
-7400.0
 20
5400.0
 30
0.0
  0
POINT
  5
276
330
268
100
AcDbEntity
  8
Defpoints
100
AcDbPoint
 10
7400.0
 20
5400.0
 30
0.0
  0
ENDBLK
  5
26A
330
268
100
AcDbEntity
  8
0
100
AcDbBlockEnd
  0
BLOCK
  5
2DB
330
2DA
100
AcDbEntity
  8
0
100
AcDbBlockBegin
  2
*D7
 70
1
 10
0.0
 20
0.0
 30
0.0
  3
*D7
  1

  0
LINE
  5
2DD
330
2DA
100
AcDbEntity
  8
0
100
AcDbLine
 10
17800.0
 20
-59.99999999999999
 30
0.0
 11
17800.0
 21
-1800.0
 31
0.0
  0
LINE
  5
2DE
330
2DA
100
AcDbEntity
  8
0
100
AcDbLine
 10
26200.0
 20
-59.99999999999999
 30
0.0
 11
26200.0
 21
-1800.0
 31
0.0
  0
INSERT
  5
2DF
330
2DA
100
AcDbEntity
  8
A-DIM
100
AcDbBlockReference
  2
_CLOSEDFILLED
 10
17800.0
 20
-1700.0
 30
0.0
 41
120.0
 42
120.0
 50
180.0
  0
INSERT
  5
2E1
330
2DA
100
AcDbEntity
  8
A-DIM
100
AcDbBlockReference
  2
_CLOSEDFILLED
 10
26200.0
 20
-1700.0
 30
0.0
 41
120.0
 42
120.0
  0
LINE
  5
2E3
330
2DA
100
AcDbEntity
  8
0
100
AcDbLine
 10
17920.0
 20
-1700.0
 30
0.0
 11
21640.0
 21
-1700.0
 31
0.0
  0
LINE
  5
2E4
330
2DA
100
AcDbEntity
  8
0
100
AcDbLine
 10
22360.0
 20
-1700.0
 30
0.0
 11
26080.0
 21
-1700.0
 31
0.0
  0
MTEXT
  5
2E5
330
2DA
100
AcDbEntity
  8
A-DIM
100
AcDbMText
 10
22000.0
 20
-1700.0
 30
0.0
 40
180.0
 71
5
  1
8400
  7
GUJIAN_CN
  0
POINT
  5
2E6
330
2DA
100
AcDbEntity
  8
Defpoints
100
AcDbPoint
 10
17800.0
 20
-1700.0
 30
0.0
  0
POINT
  5
2E7
330
2DA
100
AcDbEntity
  8
Defpoints
100
AcDbPoint
 10
17800.0
 20
0.0
 30
0.0
  0
POINT
  5
2E8
330
2DA
100
AcDbEntity
  8
Defpoints
100
AcDbPoint
 10
26200.0
 20
0.0
 30
0.0
  0
ENDBLK
  5
2DC
330
2DA
100
AcDbEntity
  8
0
100
AcDbBlockEnd
  0
BLOCK
  5
2EB
330
2EA
100
AcDbEntity
  8
0
100
AcDbBlockBegin
  2
*D8
 70
1
 10
0.0
 20
0.0
 30
0.0
  3
*D8
  1

  0
LINE
  5
2ED
330
2EA
100
AcDbEntity
  8
0
100
AcDbLine
 10
16400.0
 20
-60.0
 30
0.0
 11
16400.0
 21
-2500.0
 31
0.0
  0
LINE
  5
2EE
330
2EA
100
AcDbEntity
  8
0
100
AcDbLine
 10
27600.0
 20
-60.0
 30
0.0
 11
27600.0
 21
-2500.0
 31
0.0
  0
INSERT
  5
2EF
330
2EA
100
AcDbEntity
  8
A-DIM
100
AcDbBlockReference
  2
_CLOSEDFILLED
 10
16400.0
 20
-2400.0
 30
0.0
 41
120.0
 42
120.0
 50
180.0
  0
INSERT
  5
2F1
330
2EA
100
AcDbEntity
  8
A-DIM
100
AcDbBlockReference
  2
_CLOSEDFILLED
 10
27600.0
 20
-2400.0
 30
0.0
 41
120.0
 42
120.0
  0
LINE
  5
2F3
330
2EA
100
AcDbEntity
  8
0
100
AcDbLine
 10
16520.0
 20
-2400.0
 30
0.0
 11
21550.0
 21
-2400.0
 31
0.0
  0
LINE
  5
2F4
330
2EA
100
AcDbEntity
  8
0
100
AcDbLine
 10
22450.0
 20
-2400.0
 30
0.0
 11
27480.0
 21
-2400.0
 31
0.0
  0
MTEXT
  5
2F5
330
2EA
100
AcDbEntity
  8
A-DIM
100
AcDbMText
 10
22000.0
 20
-2400.0
 30
0.0
 40
180.0
 71
5
  1
11200
  7
GUJIAN_CN
  0
POINT
  5
2F6
330
2EA
100
AcDbEntity
  8
Defpoints
100
AcDbPoint
 10
16400.0
 20
-2400.0
 30
0.0
  0
POINT
  5
2F7
330
2EA
100
AcDbEntity
  8
Defpoints
100
AcDbPoint
 10
16400.0
 20
0.0
 30
0.0
  0
POINT
  5
2F8
330
2EA
100
AcDbEntity
  8
Defpoints
100
AcDbPoint
 10
27600.0
 20
0.0
 30
0.0
  0
ENDBLK
  5
2EC
330
2EA
100
AcDbEntity
  8
0
100
AcDbBlockEnd
  0
BLOCK
  5
2FB
330
2FA
100
AcDbEntity
  8
0
100
AcDbBlockBegin
  2
*D9
 70
1
 10
0.0
 20
0.0
 30
0.0
  3
*D9
  1

  0
LINE
  5
2FD
330
2FA
100
AcDbEntity
  8
0
100
AcDbLine
 10
26260.0
 20
0.0
 30
0.0
 11
28100.0
 21
0.0
 31
0.0
  0
LINE
  5
2FE
330
2FA
100
AcDbEntity
  8
0
100
AcDbLine
 10
26260.0
 20
9000.0
 30
0.0
 11
28100.0
 21
9000.0
 31
0.0
  0
INSERT
  5
2FF
330
2FA
100
AcDbEntity
  8
A-DIM
100
AcDbBlockReference
  2
_CLOSEDFILLED
 10
28000.0
 20
0.0
 30
0.0
 41
120.0
 42
120.0
 50
270.0
  0
INSERT
  5
301
330
2FA
100
AcDbEntity
  8
A-DIM
100
AcDbBlockReference
  2
_CLOSEDFILLED
 10
28000.0
 20
9000.0
 30
0.0
 41
120.0
 42
120.0
 50
90.0
  0
LINE
  5
303
330
2FA
100
AcDbEntity
  8
0
100
AcDbLine
 10
28000.0
 20
120.0
 30
0.0
 11
28000.0
 21
4140.0
 31
0.0
  0
LINE
  5
304
330
2FA
100
AcDbEntity
  8
0
100
AcDbLine
 10
28000.0
 20
4860.000000000001
 30
0.0
 11
28000.0
 21
8880.0
 31
0.0
  0
MTEXT
  5
305
330
2FA
100
AcDbEntity
  8
A-DIM
100
AcDbMText
 10
28000.0
 20
4500.0
 30
0.0
 40
180.0
 71
5
  1
9000
  7
GUJIAN_CN
 50
90.0
  0
POINT
  5
306
330
2FA
100
AcDbEntity
  8
Defpoints
100
AcDbPoint
 10
28000.0
 20
0.0
 30
0.0
  0
POINT
  5
307
330
2FA
100
AcDbEntity
  8
Defpoints
100
AcDbPoint
 10
26200.0
 20
0.0
 30
0.0
  0
POINT
  5
308
330
2FA
100
AcDbEntity
  8
Defpoints
100
AcDbPoint
 10
26200.0
 20
9000.0
 30
0.0
  0
ENDBLK
  5
2FC
330
2FA
100
AcDbEntity
  8
0
100
AcDbBlockEnd
  0
BLOCK
  5
328
330
327
100
AcDbEntity
  8
0
100
AcDbBlockBegin
  2
*D10
 70
1
 10
0.0
 20
0.0
 30
0.0
  3
*D10
  1

  0
LINE
  5
32A
330
327
100
AcDbEntity
  8
0
100
AcDbLine
 10
39990.0
 20
0.0
 30
0.0
 11
39000.0
 21
0.0
 31
0.0
  0
LINE
  5
32B
330
327
100
AcDbEntity
  8
0
100
AcDbLine
 10
39990.0
 20
2500.0
 30
0.0
 11
39000.0
 21
2500.0
 31
0.0
  0
INSERT
  5
32C
330
327
100
AcDbEntity
  8
A-DIM
100
AcDbBlockReference
  2
_CLOSEDFILLED
 10
39100.0
 20
0.0
 30
0.0
 41
120.0
 42
120.0
 50
270.0
  0
INSERT
  5
32E
330
327
100
AcDbEntity
  8
A-DIM
100
AcDbBlockReference
  2
_CLOSEDFILLED
 10
39100.0
 20
2500.0
 30
0.0
 41
120.0
 42
120.0
 50
90.0
  0
LINE
  5
330
330
327
100
AcDbEntity
  8
0
100
AcDbLine
 10
39100.0
 20
120.0
 30
0.0
 11
39100.0
 21
889.9999999999999
 31
0.0
  0
LINE
  5
331
330
327
100
AcDbEntity
  8
0
100
AcDbLine
 10
39100.0
 20
1610.0
 30
0.0
 11
39100.0
 21
2380.0
 31
0.0
  0
MTEXT
  5
332
330
327
100
AcDbEntity
  8
A-DIM
100
AcDbMText
 10
39100.0
 20
1250.0
 30
0.0
 40
180.0
 71
5
  1
2500
  7
GUJIAN_CN
 50
90.0
  0
POINT
  5
333
330
327
100
AcDbEntity
  8
Defpoints
100
AcDbPoint
 10
39100.0
 20
0.0
 30
0.0
  0
POINT
  5
334
330
327
100
AcDbEntity
  8
Defpoints
100
AcDbPoint
 10
40050.0
 20
0.0
 30
0.0
  0
POINT
  5
335
330
327
100
AcDbEntity
  8
Defpoints
100
AcDbPoint
 10
40050.0
 20
2500.0
 30
0.0
  0
ENDBLK
  5
329
330
327
100
AcDbEntity
  8
0
100
AcDbBlockEnd
  0
BLOCK
  5
338
330
337
100
AcDbEntity
  8
0
100
AcDbBlockBegin
  2
*D11
 70
1
 10
0.0
 20
0.0
 30
0.0
  3
*D11
  1

  0
LINE
  5
33A
330
337
100
AcDbEntity
  8
0
100
AcDbLine
 10
39350.0
 20
-560.0
 30
0.0
 11
39350.0
 21
-1350.0
 31
0.0
  0
LINE
  5
33B
330
337
100
AcDbEntity
  8
0
100
AcDbLine
 10
40750.0
 20
-560.0
 30
0.0
 11
40750.0
 21
-1350.0
 31
0.0
  0
INSERT
  5
33C
330
337
100
AcDbEntity
  8
A-DIM
100
AcDbBlockReference
  2
_CLOSEDFILLED
 10
39350.0
 20
-1250.0
 30
0.0
 41
120.0
 42
120.0
 50
180.0
  0
INSERT
  5
33E
330
337
100
AcDbEntity
  8
A-DIM
100
AcDbBlockReference
  2
_CLOSEDFILLED
 10
40750.0
 20
-1250.0
 30
0.0
 41
120.0
 42
120.0
  0
LINE
  5
340
330
337
100
AcDbEntity
  8
0
100
AcDbLine
 10
39470.0
 20
-1250.0
 30
0.0
 11
39690.0
 21
-1250.0
 31
0.0
  0
LINE
  5
341
330
337
100
AcDbEntity
  8
0
100
AcDbLine
 10
40410.0
 20
-1250.0
 30
0.0
 11
40630.0
 21
-1250.0
 31
0.0
  0
MTEXT
  5
342
330
337
100
AcDbEntity
  8
A-DIM
100
AcDbMText
 10
40050.0
 20
-1250.0
 30
0.0
 40
180.0
 71
5
  1
1400
  7
GUJIAN_CN
  0
POINT
  5
343
330
337
100
AcDbEntity
  8
Defpoints
100
AcDbPoint
 10
39350.0
 20
-1250.0
 30
0.0
  0
POINT
  5
344
330
337
100
AcDbEntity
  8
Defpoints
100
AcDbPoint
 10
39350.0
 20
-500.0
 30
0.0
  0
POINT
  5
345
330
337
100
AcDbEntity
  8
Defpoints
100
AcDbPoint
 10
40750.0
 20
-500.0
 30
0.0
  0
ENDBLK
  5
339
330
337
100
AcDbEntity
  8
0
100
AcDbBlockEnd
  0
BLOCK
  5
393
330
392
100
AcDbEntity
  8
0
100
AcDbBlockBegin
  2
*D12
 70
1
 10
0.0
 20
0.0
 30
0.0
  3
*D12
  1

  0
LINE
  5
395
330
392
100
AcDbEntity
  8
0
100
AcDbLine
 10
-6000.0
 20
-21260.0
 30
0.0
 11
-6000.0
 21
-23600.0
 31
0.0
  0
LINE
  5
396
330
392
100
AcDbEntity
  8
0
100
AcDbLine
 10
6000.0
 20
-21260.0
 30
0.0
 11
6000.0
 21
-23600.0
 31
0.0
  0
INSERT
  5
397
330
392
100
AcDbEntity
  8
A-DIM
100
AcDbBlockReference
  2
_CLOSEDFILLED
 10
-6000.0
 20
-23500.0
 30
0.0
 41
120.0
 42
120.0
 50
180.0
  0
INSERT
  5
399
330
392
100
AcDbEntity
  8
A-DIM
100
AcDbBlockReference
  2
_CLOSEDFILLED
 10
6000.0
 20
-23500.0
 30
0.0
 41
120.0
 42
120.0
  0
LINE
  5
39B
330
392
100
AcDbEntity
  8
0
100
AcDbLine
 10
-5880.0
 20
-23500.0
 30
0.0
 11
-450.0
 21
-23500.0
 31
0.0
  0
LINE
  5
39C
330
392
100
AcDbEntity
  8
0
100
AcDbLine
 10
449.9999999999991
 20
-23500.0
 30
0.0
 11
5880.0
 21
-23500.0
 31
0.0
  0
MTEXT
  5
39D
330
392
100
AcDbEntity
  8
A-DIM
100
AcDbMText
 10
0.0
 20
-23500.0
 30
0.0
 40
180.0
 71
5
  1
12000
  7
GUJIAN_CN
  0
POINT
  5
39E
330
392
100
AcDbEntity
  8
Defpoints
100
AcDbPoint
 10
-6000.0
 20
-23500.0
 30
0.0
  0
POINT
  5
39F
330
392
100
AcDbEntity
  8
Defpoints
100
AcDbPoint
 10
-6000.0
 20
-21200.0
 30
0.0
  0
POINT
  5
3A0
330
392
100
AcDbEntity
  8
Defpoints
100
AcDbPoint
 10
6000.0
 20
-21200.0
 30
0.0
  0
ENDBLK
  5
394
330
392
100
AcDbEntity
  8
0
100
AcDbBlockEnd
  0
BLOCK
  5
3A3
330
3A2
100
AcDbEntity
  8
0
100
AcDbBlockBegin
  2
*D13
 70
1
 10
0.0
 20
0.0
 30
0.0
  3
*D13
  1

  0
LINE
  5
3A5
330
3A2
100
AcDbEntity
  8
0
100
AcDbLine
 10
6060.0
 20
-21200.0
 30
0.0
 11
7800.0
 21
-21200.0
 31
0.0
  0
LINE
  5
3A6
330
3A2
100
AcDbEntity
  8
0
100
AcDbLine
 10
6060.0
 20
-12800.0
 30
0.0
 11
7800.0
 21
-12800.0
 31
0.0
  0
INSERT
  5
3A7
330
3A2
100
AcDbEntity
  8
A-DIM
100
AcDbBlockReference
  2
_CLOSEDFILLED
 10
7700.0
 20
-21200.0
 30
0.0
 41
120.0
 42
120.0
 50
270.0
  0
INSERT
  5
3A9
330
3A2
100
AcDbEntity
  8
A-DIM
100
AcDbBlockReference
  2
_CLOSEDFILLED
 10
7700.0
 20
-12800.0
 30
0.0
 41
120.0
 42
120.0
 50
90.0
  0
LINE
  5
3AB
330
3A2
100
AcDbEntity
  8
0
100
AcDbLine
 10
7700.0
 20
-21080.0
 30
0.0
 11
7700.0
 21
-17360.0
 31
0.0
  0
LINE
  5
3AC
330
3A2
100
AcDbEntity
  8
0
100
AcDbLine
 10
7700.0
 20
-16640.0
 30
0.0
 11
7700.0
 21
-12920.0
 31
0.0
  0
MTEXT
  5
3AD
330
3A2
100
AcDbEntity
  8
A-DIM
100
AcDbMText
 10
7700.0
 20
-17000.0
 30
0.0
 40
180.0
 71
5
  1
8400
  7
GUJIAN_CN
 50
90.0
  0
POINT
  5
3AE
330
3A2
100
AcDbEntity
  8
Defpoints
100
AcDbPoint
 10
7700.0
 20
-21200.0
 30
0.0
  0
POINT
  5
3AF
330
3A2
100
AcDbEntity
  8
Defpoints
100
AcDbPoint
 10
6000.0
 20
-21200.0
 30
0.0
  0
POINT
  5
3B0
330
3A2
100
AcDbEntity
  8
Defpoints
100
AcDbPoint
 10
6000.0
 20
-12800.0
 30
0.0
  0
ENDBLK
  5
3A4
330
3A2
100
AcDbEntity
  8
0
100
AcDbBlockEnd
  0
BLOCK
  5
3B7
330
3B6
100
AcDbEntity
  8
0
100
AcDbBlockBegin
  2
*Paper_Space0
 70
0
 10
0.0
 20
0.0
 30
0.0
  3
*Paper_Space0
  1

  0
VIEWPORT
  5
3BA
330
3B6
100
AcDbEntity
 67
1
  8
VIEWPORTS
100
AcDbViewport
 10
410.5
 20
287.0
 30
0.0
 40
925.1
 41
653.4000000000001
 68
1
 69
1
 12
410.5
 22
287.0
 13
0.0
 23
0.0
 14
10.0
 24
10.0
 15
10.0
 25
10.0
 16
0.0
 26
0.0
 36
1.0
 17
0.0
 27
0.0
 37
0.0
 42
50.0
 43
0.0
 44
0.0
 45
653.4000000000001
 50
0.0
 51
0.0
 72
100
 90
557088
  1

281
0
 71
0
 74
0
110
0.0
120
0.0
130
0.0
111
1.0
121
0.0
131
0.0
112
0.0
122
1.0
132
0.0
 79
0
146
0.0
282
0
  0
VIEWPORT
  5
3BB
330
3B6
100
AcDbEntity
 67
1
  8
VIEWPORTS
100
AcDbViewport
 10
205.0
 20
430.0
 30
0.0
 40
380.0
 41
250.0
 68
2
 69
3
 12
0.0
 22
4200.0
 13
0.0
 23
0.0
 14
10.0
 24
10.0
 15
10.0
 25
10.0
 16
0.0
 26
0.0
 36
1.0
 17
0.0
 27
0.0
 37
0.0
 42
50.0
 43
0.0
 44
0.0
 45
12500.0
 50
0.0
 51
0.0
 72
100
 90
0
  1

281
0
 71
0
 74
0
110
0.0
120
0.0
130
0.0
111
1.0
121
0.0
131
0.0
112
0.0
122
1.0
132
0.0
 79
0
146
0.0
282
0
  0
VIEWPORT
  5
3BC
330
3B6
100
AcDbEntity
 67
1
  8
VIEWPORTS
100
AcDbViewport
 10
575.0
 20
430.0
 30
0.0
 40
330.0
 41
250.0
 68
3
 69
4
 12
22000.0
 22
4200.0
 13
0.0
 23
0.0
 14
10.0
 24
10.0
 15
10.0
 25
10.0
 16
0.0
 26
0.0
 36
1.0
 17
0.0
 27
0.0
 37
0.0
 42
50.0
 43
0.0
 44
0.0
 45
12500.0
 50
0.0
 51
0.0
 72
100
 90
0
  1

281
0
 71
0
 74
0
110
0.0
120
0.0
130
0.0
111
1.0
121
0.0
131
0.0
112
0.0
122
1.0
132
0.0
 79
0
146
0.0
282
0
  0
VIEWPORT
  5
3BD
330
3B6
100
AcDbEntity
 67
1
  8
VIEWPORTS
100
AcDbViewport
 10
190.0
 20
165.0
 30
0.0
 40
350.0
 41
220.0
 68
4
 69
5
 12
0.0
 22
-17000.0
 13
0.0
 23
0.0
 14
10.0
 24
10.0
 15
10.0
 25
10.0
 16
0.0
 26
0.0
 36
1.0
 17
0.0
 27
0.0
 37
0.0
 42
50.0
 43
0.0
 44
0.0
 45
12500.0
 50
0.0
 51
0.0
 72
100
 90
0
  1

281
0
 71
0
 74
0
110
0.0
120
0.0
130
0.0
111
1.0
121
0.0
131
0.0
112
0.0
122
1.0
132
0.0
 79
0
146
0.0
282
0
  0
VIEWPORT
  5
3BE
330
3B6
100
AcDbEntity
 67
1
  8
VIEWPORTS
100
AcDbViewport
 10
500.0
 20
165.0
 30
0.0
 40
230.0
 41
220.0
 68
5
 69
6
 12
39000.0
 22
3200.0
 13
0.0
 23
0.0
 14
10.0
 24
10.0
 15
10.0
 25
10.0
 16
0.0
 26
0.0
 36
1.0
 17
0.0
 27
0.0
 37
0.0
 42
50.0
 43
0.0
 44
0.0
 45
7200.0
 50
0.0
 51
0.0
 72
100
 90
0
  1

281
0
 71
0
 74
0
110
0.0
120
0.0
130
0.0
111
1.0
121
0.0
131
0.0
112
0.0
122
1.0
132
0.0
 79
0
146
0.0
282
0
  0
MTEXT
  5
3BF
330
3B6
100
AcDbEntity
 67
1
  8
A-TEXT
100
AcDbMText
 10
650.0
 20
70.0
 30
0.0
 40
4.0
 71
1
  1
T0-B 古建局部专业样板 / L1 / DEMO ONLY
  7
GUJIAN_CN
  0
ENDBLK
  5
3B8
330
3B6
100
AcDbEntity
  8
0
100
AcDbBlockEnd
  0
ENDSEC
  0
SECTION
  2
ENTITIES
  0
LINE
  5
48
330
17
100
AcDbEntity
  8
A-OUTLINE
100
AcDbLine
 10
-7800.0
 20
0.0
 30
0.0
 11
7800.0
 21
0.0
 31
0.0
  0
LWPOLYLINE
  5
49
330
17
100
AcDbEntity
  8
A-OUTLINE
100
AcDbPolyline
 90
4
 70
1
 10
-6900.0
 20
0.0
 10
6900.0
 20
0.0
 10
6900.0
 20
900.0
 10
-6900.0
 20
900.0
  0
HATCH
  5
4A
330
17
100
AcDbEntity
  8
A-HATCH
 62
9
100
AcDbHatch
 10
0.0
 20
0.0
 30
0.0
210
0.0
220
0.0
230
1.0
  2
SOLID
 70
1
 71
0
 91
1
 92
3
 72
0
 73
1
 93
4
 10
-6900.0
 20
0.0
 10
6900.0
 20
0.0
 10
6900.0
 20
900.0
 10
-6900.0
 20
900.0
 97
0
 75
0
 76
1
 98
0
  0
LINE
  5
4B
330
17
100
AcDbEntity
  8
A-PROJ
100
AcDbLine
 10
-6600.0
 20
0.0
 30
0.0
 11
-6600.0
 21
900.0
 31
0.0
  0
LINE
  5
4C
330
17
100
AcDbEntity
  8
A-PROJ
100
AcDbLine
 10
-6000.0
 20
0.0
 30
0.0
 11
-6000.0
 21
900.0
 31
0.0
  0
LINE
  5
4D
330
17
100
AcDbEntity
  8
A-PROJ
100
AcDbLine
 10
-5400.0
 20
0.0
 30
0.0
 11
-5400.0
 21
900.0
 31
0.0
  0
LINE
  5
4E
330
17
100
AcDbEntity
  8
A-PROJ
100
AcDbLine
 10
-4800.0
 20
0.0
 30
0.0
 11
-4800.0
 21
900.0
 31
0.0
  0
LINE
  5
4F
330
17
100
AcDbEntity
  8
A-PROJ
100
AcDbLine
 10
-4200.0
 20
0.0
 30
0.0
 11
-4200.0
 21
900.0
 31
0.0
  0
LINE
  5
50
330
17
100
AcDbEntity
  8
A-PROJ
100
AcDbLine
 10
-3600.0
 20
0.0
 30
0.0
 11
-3600.0
 21
900.0
 31
0.0
  0
LINE
  5
51
330
17
100
AcDbEntity
  8
A-PROJ
100
AcDbLine
 10
-3000.0
 20
0.0
 30
0.0
 11
-3000.0
 21
900.0
 31
0.0
  0
LINE
  5
52
330
17
100
AcDbEntity
  8
A-PROJ
100
AcDbLine
 10
-2400.0
 20
0.0
 30
0.0
 11
-2400.0
 21
900.0
 31
0.0
  0
LINE
  5
53
330
17
100
AcDbEntity
  8
A-PROJ
100
AcDbLine
 10
-1800.0
 20
0.0
 30
0.0
 11
-1800.0
 21
900.0
 31
0.0
  0
LINE
  5
54
330
17
100
AcDbEntity
  8
A-PROJ
100
AcDbLine
 10
-1200.0
 20
0.0
 30
0.0
 11
-1200.0
 21
900.0
 31
0.0
  0
LINE
  5
55
330
17
100
AcDbEntity
  8
A-PROJ
100
AcDbLine
 10
-600.0
 20
0.0
 30
0.0
 11
-600.0
 21
900.0
 31
0.0
  0
LINE
  5
56
330
17
100
AcDbEntity
  8
A-PROJ
100
AcDbLine
 10
0.0
 20
0.0
 30
0.0
 11
0.0
 21
900.0
 31
0.0
  0
LINE
  5
57
330
17
100
AcDbEntity
  8
A-PROJ
100
AcDbLine
 10
600.0
 20
0.0
 30
0.0
 11
600.0
 21
900.0
 31
0.0
  0
LINE
  5
58
330
17
100
AcDbEntity
  8
A-PROJ
100
AcDbLine
 10
1200.0
 20
0.0
 30
0.0
 11
1200.0
 21
900.0
 31
0.0
  0
LINE
  5
59
330
17
100
AcDbEntity
  8
A-PROJ
100
AcDbLine
 10
1800.0
 20
0.0
 30
0.0
 11
1800.0
 21
900.0
 31
0.0
  0
LINE
  5
5A
330
17
100
AcDbEntity
  8
A-PROJ
100
AcDbLine
 10
2400.0
 20
0.0
 30
0.0
 11
2400.0
 21
900.0
 31
0.0
  0
LINE
  5
5B
330
17
100
AcDbEntity
  8
A-PROJ
100
AcDbLine
 10
3000.0
 20
0.0
 30
0.0
 11
3000.0
 21
900.0
 31
0.0
  0
LINE
  5
5C
330
17
100
AcDbEntity
  8
A-PROJ
100
AcDbLine
 10
3600.0
 20
0.0
 30
0.0
 11
3600.0
 21
900.0
 31
0.0
  0
LINE
  5
5D
330
17
100
AcDbEntity
  8
A-PROJ
100
AcDbLine
 10
4200.0
 20
0.0
 30
0.0
 11
4200.0
 21
900.0
 31
0.0
  0
LINE
  5
5E
330
17
100
AcDbEntity
  8
A-PROJ
100
AcDbLine
 10
4800.0
 20
0.0
 30
0.0
 11
4800.0
 21
900.0
 31
0.0
  0
LINE
  5
5F
330
17
100
AcDbEntity
  8
A-PROJ
100
AcDbLine
 10
5400.0
 20
0.0
 30
0.0
 11
5400.0
 21
900.0
 31
0.0
  0
LINE
  5
60
330
17
100
AcDbEntity
  8
A-PROJ
100
AcDbLine
 10
6000.0
 20
0.0
 30
0.0
 11
6000.0
 21
900.0
 31
0.0
  0
LINE
  5
61
330
17
100
AcDbEntity
  8
A-PROJ
100
AcDbLine
 10
6600.0
 20
0.0
 30
0.0
 11
6600.0
 21
900.0
 31
0.0
  0
LINE
  5
62
330
17
100
AcDbEntity
  8
A-PROJ
100
AcDbLine
 10
-6900.0
 20
450.0
 30
0.0
 11
6900.0
 21
450.0
 31
0.0
  0
LWPOLYLINE
  5
63
330
17
100
AcDbEntity
  8
A-OUTLINE
100
AcDbPolyline
 90
4
 70
1
 10
-1500.0
 20
-300.0
 10
1500.0
 20
-300.0
 10
1500.0
 20
0.0
 10
-1500.0
 20
0.0
  0
LWPOLYLINE
  5
64
330
17
100
AcDbEntity
  8
A-OUTLINE
100
AcDbPolyline
 90
4
 70
1
 10
-1660.0
 20
-600.0
 10
1660.0
 20
-600.0
 10
1660.0
 20
-300.0
 10
-1660.0
 20
-300.0
  0
LWPOLYLINE
  5
65
330
17
100
AcDbEntity
  8
A-OUTLINE
100
AcDbPolyline
 90
4
 70
1
 10
-1820.0
 20
-900.0
 10
1820.0
 20
-900.0
 10
1820.0
 20
-600.0
 10
-1820.0
 20
-600.0
  0
LWPOLYLINE
  5
66
330
17
100
AcDbEntity
  8
A-CUT
100
AcDbPolyline
 90
4
 70
1
 10
-6210.0
 20
900.0
 10
-5790.0
 20
900.0
 10
-5790.0
 20
5100.0
 10
-6210.0
 20
5100.0
1001
GUJIAN_SOURCE
1000
e3187c1c-5e4c-5129-aebf-9a0cc43268ba
1000
demo
  0
INSERT
  5
67
330
17
100
AcDbEntity
  8
A-TIMBER
100
AcDbBlockReference
  2
BRACKET
 10
-6000.0
 20
5100.0
 30
0.0
1001
GUJIAN_SOURCE
1000
16ab7b6a-11c1-58e6-9e02-54cec0508ff6
1000
demo
  0
LINE
  5
69
330
17
100
AcDbEntity
  8
A-AXIS
100
AcDbLine
 10
-6000.0
 20
-1200.0
 30
0.0
 11
-6000.0
 21
10200.0
 31
0.0
  0
MTEXT
  5
6A
330
17
100
AcDbEntity
  8
A-TEXT
100
AcDbMText
 10
-6080.0
 20
-1150.0
 30
0.0
 40
220.0
 71
1
  1
1
  7
GUJIAN_CN
  0
LWPOLYLINE
  5
6B
330
17
100
AcDbEntity
  8
A-CUT
100
AcDbPolyline
 90
4
 70
1
 10
-2610.0
 20
900.0
 10
-2190.0
 20
900.0
 10
-2190.0
 20
5100.0
 10
-2610.0
 20
5100.0
1001
GUJIAN_SOURCE
1000
074ea479-1cd5-57d3-952f-2f587724e722
1000
demo
  0
INSERT
  5
6C
330
17
100
AcDbEntity
  8
A-TIMBER
100
AcDbBlockReference
  2
BRACKET
 10
-2400.0
 20
5100.0
 30
0.0
1001
GUJIAN_SOURCE
1000
94da40db-39d5-5edc-b2ff-2a0fd9e73a25
1000
demo
  0
LINE
  5
6E
330
17
100
AcDbEntity
  8
A-AXIS
100
AcDbLine
 10
-2400.0
 20
-1200.0
 30
0.0
 11
-2400.0
 21
10200.0
 31
0.0
  0
MTEXT
  5
6F
330
17
100
AcDbEntity
  8
A-TEXT
100
AcDbMText
 10
-2480.0
 20
-1150.0
 30
0.0
 40
220.0
 71
1
  1
2
  7
GUJIAN_CN
  0
LWPOLYLINE
  5
70
330
17
100
AcDbEntity
  8
A-CUT
100
AcDbPolyline
 90
4
 70
1
 10
2190.0
 20
900.0
 10
2610.0
 20
900.0
 10
2610.0
 20
5100.0
 10
2190.0
 20
5100.0
1001
GUJIAN_SOURCE
1000
289347c7-a40b-5a4b-a1f2-cad0d3ba59a6
1000
demo
  0
INSERT
  5
71
330
17
100
AcDbEntity
  8
A-TIMBER
100
AcDbBlockReference
  2
BRACKET
 10
2400.0
 20
5100.0
 30
0.0
1001
GUJIAN_SOURCE
1000
504ab404-53a7-565a-aaa6-c65eafb80702
1000
demo
  0
LINE
  5
73
330
17
100
AcDbEntity
  8
A-AXIS
100
AcDbLine
 10
2400.0
 20
-1200.0
 30
0.0
 11
2400.0
 21
10200.0
 31
0.0
  0
MTEXT
  5
74
330
17
100
AcDbEntity
  8
A-TEXT
100
AcDbMText
 10
2320.0
 20
-1150.0
 30
0.0
 40
220.0
 71
1
  1
3
  7
GUJIAN_CN
  0
LWPOLYLINE
  5
75
330
17
100
AcDbEntity
  8
A-CUT
100
AcDbPolyline
 90
4
 70
1
 10
5790.0
 20
900.0
 10
6210.0
 20
900.0
 10
6210.0
 20
5100.0
 10
5790.0
 20
5100.0
1001
GUJIAN_SOURCE
1000
185653d7-d04e-5b12-bd36-7a8528f05069
1000
demo
  0
INSERT
  5
76
330
17
100
AcDbEntity
  8
A-TIMBER
100
AcDbBlockReference
  2
BRACKET
 10
6000.0
 20
5100.0
 30
0.0
1001
GUJIAN_SOURCE
1000
0ff7bc91-f596-58cd-83a9-6a11ea533b25
1000
demo
  0
LINE
  5
78
330
17
100
AcDbEntity
  8
A-AXIS
100
AcDbLine
 10
6000.0
 20
-1200.0
 30
0.0
 11
6000.0
 21
10200.0
 31
0.0
  0
MTEXT
  5
79
330
17
100
AcDbEntity
  8
A-TEXT
100
AcDbMText
 10
5920.0
 20
-1150.0
 30
0.0
 40
220.0
 71
1
  1
4
  7
GUJIAN_CN
  0
LWPOLYLINE
  5
7A
330
17
100
AcDbEntity
  8
A-TIMBER
100
AcDbPolyline
 90
4
 70
1
 10
-6000.0
 20
4580.0
 10
6000.0
 20
4580.0
 10
6000.0
 20
5100.0
 10
-6000.0
 20
5100.0
1001
GUJIAN_SOURCE
1000
491bd467-c50b-5422-8ea5-9ddc0569cc2a
1000
demo
  0
LWPOLYLINE
  5
7B
330
17
100
AcDbEntity
  8
A-OPEN
100
AcDbPolyline
 90
4
 70
1
 10
-5840.0
 20
1800.0
 10
-2560.0
 20
1800.0
 10
-2560.0
 20
3900.0
 10
-5840.0
 20
3900.0
1001
GUJIAN_SOURCE
1000
93526130-8dd2-561a-aa8b-6431ae9d1cf0
1000
demo
  0
LINE
  5
7C
330
17
100
AcDbEntity
  8
A-OPEN
100
AcDbLine
 10
-5400.0
 20
1800.0
 30
0.0
 11
-5400.0
 21
3900.0
 31
0.0
  0
LINE
  5
7D
330
17
100
AcDbEntity
  8
A-OPEN
100
AcDbLine
 10
-4800.0
 20
1800.0
 30
0.0
 11
-4800.0
 21
3900.0
 31
0.0
  0
LINE
  5
7E
330
17
100
AcDbEntity
  8
A-OPEN
100
AcDbLine
 10
-4200.0
 20
1800.0
 30
0.0
 11
-4200.0
 21
3900.0
 31
0.0
  0
LINE
  5
7F
330
17
100
AcDbEntity
  8
A-OPEN
100
AcDbLine
 10
-3600.0
 20
1800.0
 30
0.0
 11
-3600.0
 21
3900.0
 31
0.0
  0
LINE
  5
80
330
17
100
AcDbEntity
  8
A-OPEN
100
AcDbLine
 10
-3000.0
 20
1800.0
 30
0.0
 11
-3000.0
 21
3900.0
 31
0.0
  0
LINE
  5
81
330
17
100
AcDbEntity
  8
A-OPEN
100
AcDbLine
 10
-5840.0
 20
2325.0
 30
0.0
 11
-2560.0
 21
2325.0
 31
0.0
  0
LINE
  5
82
330
17
100
AcDbEntity
  8
A-OPEN
100
AcDbLine
 10
-5840.0
 20
2850.0
 30
0.0
 11
-2560.0
 21
2850.0
 31
0.0
  0
LINE
  5
83
330
17
100
AcDbEntity
  8
A-OPEN
100
AcDbLine
 10
-5840.0
 20
3375.0
 30
0.0
 11
-2560.0
 21
3375.0
 31
0.0
  0
LINE
  5
84
330
17
100
AcDbEntity
  8
A-PROJ
100
AcDbLine
 10
-5780.0
 20
2062.5
 30
0.0
 11
-5566.666666666667
 21
2265.0
 31
0.0
  0
LINE
  5
85
330
17
100
AcDbEntity
  8
A-PROJ
100
AcDbLine
 10
-5566.666666666667
 20
2265.0
 30
0.0
 11
-5353.333333333333
 21
2062.5
 31
0.0
  0
LINE
  5
86
330
17
100
AcDbEntity
  8
A-PROJ
100
AcDbLine
 10
-5353.333333333333
 20
2062.5
 30
0.0
 11
-5566.666666666667
 21
1860.0
 31
0.0
  0
LINE
  5
87
330
17
100
AcDbEntity
  8
A-PROJ
100
AcDbLine
 10
-5566.666666666667
 20
1860.0
 30
0.0
 11
-5780.0
 21
2062.5
 31
0.0
  0
LINE
  5
88
330
17
100
AcDbEntity
  8
A-PROJ
100
AcDbLine
 10
-5780.0
 20
2587.5
 30
0.0
 11
-5566.666666666667
 21
2790.0
 31
0.0
  0
LINE
  5
89
330
17
100
AcDbEntity
  8
A-PROJ
100
AcDbLine
 10
-5566.666666666667
 20
2790.0
 30
0.0
 11
-5353.333333333333
 21
2587.5
 31
0.0
  0
LINE
  5
8A
330
17
100
AcDbEntity
  8
A-PROJ
100
AcDbLine
 10
-5353.333333333333
 20
2587.5
 30
0.0
 11
-5566.666666666667
 21
2385.0
 31
0.0
  0
LINE
  5
8B
330
17
100
AcDbEntity
  8
A-PROJ
100
AcDbLine
 10
-5566.666666666667
 20
2385.0
 30
0.0
 11
-5780.0
 21
2587.5
 31
0.0
  0
LINE
  5
8C
330
17
100
AcDbEntity
  8
A-PROJ
100
AcDbLine
 10
-5780.0
 20
3112.5
 30
0.0
 11
-5566.666666666667
 21
3315.0
 31
0.0
  0
LINE
  5
8D
330
17
100
AcDbEntity
  8
A-PROJ
100
AcDbLine
 10
-5566.666666666667
 20
3315.0
 30
0.0
 11
-5353.333333333333
 21
3112.5
 31
0.0
  0
LINE
  5
8E
330
17
100
AcDbEntity
  8
A-PROJ
100
AcDbLine
 10
-5353.333333333333
 20
3112.5
 30
0.0
 11
-5566.666666666667
 21
2910.0
 31
0.0
  0
LINE
  5
8F
330
17
100
AcDbEntity
  8
A-PROJ
100
AcDbLine
 10
-5566.666666666667
 20
2910.0
 30
0.0
 11
-5780.0
 21
3112.5
 31
0.0
  0
LINE
  5
90
330
17
100
AcDbEntity
  8
A-PROJ
100
AcDbLine
 10
-5780.0
 20
3637.5
 30
0.0
 11
-5566.666666666667
 21
3840.0
 31
0.0
  0
LINE
  5
91
330
17
100
AcDbEntity
  8
A-PROJ
100
AcDbLine
 10
-5566.666666666667
 20
3840.0
 30
0.0
 11
-5353.333333333333
 21
3637.5
 31
0.0
  0
LINE
  5
92
330
17
100
AcDbEntity
  8
A-PROJ
100
AcDbLine
 10
-5353.333333333333
 20
3637.5
 30
0.0
 11
-5566.666666666667
 21
3435.0
 31
0.0
  0
LINE
  5
93
330
17
100
AcDbEntity
  8
A-PROJ
100
AcDbLine
 10
-5566.666666666667
 20
3435.0
 30
0.0
 11
-5780.0
 21
3637.5
 31
0.0
  0
LINE
  5
94
330
17
100
AcDbEntity
  8
A-PROJ
100
AcDbLine
 10
-5233.333333333333
 20
2062.5
 30
0.0
 11
-5020.0
 21
2265.0
 31
0.0
  0
LINE
  5
95
330
17
100
AcDbEntity
  8
A-PROJ
100
AcDbLine
 10
-5020.0
 20
2265.0
 30
0.0
 11
-4806.666666666666
 21
2062.5
 31
0.0
  0
LINE
  5
96
330
17
100
AcDbEntity
  8
A-PROJ
100
AcDbLine
 10
-4806.666666666666
 20
2062.5
 30
0.0
 11
-5020.0
 21
1860.0
 31
0.0
  0
LINE
  5
97
330
17
100
AcDbEntity
  8
A-PROJ
100
AcDbLine
 10
-5020.0
 20
1860.0
 30
0.0
 11
-5233.333333333333
 21
2062.5
 31
0.0
  0
LINE
  5
98
330
17
100
AcDbEntity
  8
A-PROJ
100
AcDbLine
 10
-5233.333333333333
 20
2587.5
 30
0.0
 11
-5020.0
 21
2790.0
 31
0.0
  0
LINE
  5
99
330
17
100
AcDbEntity
  8
A-PROJ
100
AcDbLine
 10
-5020.0
 20
2790.0
 30
0.0
 11
-4806.666666666666
 21
2587.5
 31
0.0
  0
LINE
  5
9A
330
17
100
AcDbEntity
  8
A-PROJ
100
AcDbLine
 10
-4806.666666666666
 20
2587.5
 30
0.0
 11
-5020.0
 21
2385.0
 31
0.0
  0
LINE
  5
9B
330
17
100
AcDbEntity
  8
A-PROJ
100
AcDbLine
 10
-5020.0
 20
2385.0
 30
0.0
 11
-5233.333333333333
 21
2587.5
 31
0.0
  0
LINE
  5
9C
330
17
100
AcDbEntity
  8
A-PROJ
100
AcDbLine
 10
-5233.333333333333
 20
3112.5
 30
0.0
 11
-5020.0
 21
3315.0
 31
0.0
  0
LINE
  5
9D
330
17
100
AcDbEntity
  8
A-PROJ
100
AcDbLine
 10
-5020.0
 20
3315.0
 30
0.0
 11
-4806.666666666666
 21
3112.5
 31
0.0
  0
LINE
  5
9E
330
17
100
AcDbEntity
  8
A-PROJ
100
AcDbLine
 10
-4806.666666666666
 20
3112.5
 30
0.0
 11
-5020.0
 21
2910.0
 31
0.0
  0
LINE
  5
9F
330
17
100
AcDbEntity
  8
A-PROJ
100
AcDbLine
 10
-5020.0
 20
2910.0
 30
0.0
 11
-5233.333333333333
 21
3112.5
 31
0.0
  0
LINE
  5
A0
330
17
100
AcDbEntity
  8
A-PROJ
100
AcDbLine
 10
-5233.333333333333
 20
3637.5
 30
0.0
 11
-5020.0
 21
3840.0
 31
0.0
  0
LINE
  5
A1
330
17
100
AcDbEntity
  8
A-PROJ
100
AcDbLine
 10
-5020.0
 20
3840.0
 30
0.0
 11
-4806.666666666666
 21
3637.5
 31
0.0
  0
LINE
  5
A2
330
17
100
AcDbEntity
  8
A-PROJ
100
AcDbLine
 10
-4806.666666666666
 20
3637.5
 30
0.0
 11
-5020.0
 21
3435.0
 31
0.0
  0
LINE
  5
A3
330
17
100
AcDbEntity
  8
A-PROJ
100
AcDbLine
 10
-5020.0
 20
3435.0
 30
0.0
 11
-5233.333333333333
 21
3637.5
 31
0.0
  0
LINE
  5
A4
330
17
100
AcDbEntity
  8
A-PROJ
100
AcDbLine
 10
-4686.666666666667
 20
2062.5
 30
0.0
 11
-4473.333333333334
 21
2265.0
 31
0.0
  0
LINE
  5
A5
330
17
100
AcDbEntity
  8
A-PROJ
100
AcDbLine
 10
-4473.333333333334
 20
2265.0
 30
0.0
 11
-4260.0
 21
2062.5
 31
0.0
  0
LINE
  5
A6
330
17
100
AcDbEntity
  8
A-PROJ
100
AcDbLine
 10
-4260.0
 20
2062.5
 30
0.0
 11
-4473.333333333334
 21
1860.0
 31
0.0
  0
LINE
  5
A7
330
17
100
AcDbEntity
  8
A-PROJ
100
AcDbLine
 10
-4473.333333333334
 20
1860.0
 30
0.0
 11
-4686.666666666667
 21
2062.5
 31
0.0
  0
LINE
  5
A8
330
17
100
AcDbEntity
  8
A-PROJ
100
AcDbLine
 10
-4686.666666666667
 20
2587.5
 30
0.0
 11
-4473.333333333334
 21
2790.0
 31
0.0
  0
LINE
  5
A9
330
17
100
AcDbEntity
  8
A-PROJ
100
AcDbLine
 10
-4473.333333333334
 20
2790.0
 30
0.0
 11
-4260.0
 21
2587.5
 31
0.0
  0
LINE
  5
AA
330
17
100
AcDbEntity
  8
A-PROJ
100
AcDbLine
 10
-4260.0
 20
2587.5
 30
0.0
 11
-4473.333333333334
 21
2385.0
 31
0.0
  0
LINE
  5
AB
330
17
100
AcDbEntity
  8
A-PROJ
100
AcDbLine
 10
-4473.333333333334
 20
2385.0
 30
0.0
 11
-4686.666666666667
 21
2587.5
 31
0.0
  0
LINE
  5
AC
330
17
100
AcDbEntity
  8
A-PROJ
100
AcDbLine
 10
-4686.666666666667
 20
3112.5
 30
0.0
 11
-4473.333333333334
 21
3315.0
 31
0.0
  0
LINE
  5
AD
330
17
100
AcDbEntity
  8
A-PROJ
100
AcDbLine
 10
-4473.333333333334
 20
3315.0
 30
0.0
 11
-4260.0
 21
3112.5
 31
0.0
  0
LINE
  5
AE
330
17
100
AcDbEntity
  8
A-PROJ
100
AcDbLine
 10
-4260.0
 20
3112.5
 30
0.0
 11
-4473.333333333334
 21
2910.0
 31
0.0
  0
LINE
  5
AF
330
17
100
AcDbEntity
  8
A-PROJ
100
AcDbLine
 10
-4473.333333333334
 20
2910.0
 30
0.0
 11
-4686.666666666667
 21
3112.5
 31
0.0
  0
LINE
  5
B0
330
17
100
AcDbEntity
  8
A-PROJ
100
AcDbLine
 10
-4686.666666666667
 20
3637.5
 30
0.0
 11
-4473.333333333334
 21
3840.0
 31
0.0
  0
LINE
  5
B1
330
17
100
AcDbEntity
  8
A-PROJ
100
AcDbLine
 10
-4473.333333333334
 20
3840.0
 30
0.0
 11
-4260.0
 21
3637.5
 31
0.0
  0
LINE
  5
B2
330
17
100
AcDbEntity
  8
A-PROJ
100
AcDbLine
 10
-4260.0
 20
3637.5
 30
0.0
 11
-4473.333333333334
 21
3435.0
 31
0.0
  0
LINE
  5
B3
330
17
100
AcDbEntity
  8
A-PROJ
100
AcDbLine
 10
-4473.333333333334
 20
3435.0
 30
0.0
 11
-4686.666666666667
 21
3637.5
 31
0.0
  0
LINE
  5
B4
330
17
100
AcDbEntity
  8
A-PROJ
100
AcDbLine
 10
-4140.0
 20
2062.5
 30
0.0
 11
-3926.6666666666665
 21
2265.0
 31
0.0
  0
LINE
  5
B5
330
17
100
AcDbEntity
  8
A-PROJ
100
AcDbLine
 10
-3926.6666666666665
 20
2265.0
 30
0.0
 11
-3713.3333333333335
 21
2062.5
 31
0.0
  0
LINE
  5
B6
330
17
100
AcDbEntity
  8
A-PROJ
100
AcDbLine
 10
-3713.3333333333335
 20
2062.5
 30
0.0
 11
-3926.6666666666665
 21
1860.0
 31
0.0
  0
LINE
  5
B7
330
17
100
AcDbEntity
  8
A-PROJ
100
AcDbLine
 10
-3926.6666666666665
 20
1860.0
 30
0.0
 11
-4140.0
 21
2062.5
 31
0.0
  0
LINE
  5
B8
330
17
100
AcDbEntity
  8
A-PROJ
100
AcDbLine
 10
-4140.0
 20
2587.5
 30
0.0
 11
-3926.6666666666665
 21
2790.0
 31
0.0
  0
LINE
  5
B9
330
17
100
AcDbEntity
  8
A-PROJ
100
AcDbLine
 10
-3926.6666666666665
 20
2790.0
 30
0.0
 11
-3713.3333333333335
 21
2587.5
 31
0.0
  0
LINE
  5
BA
330
17
100
AcDbEntity
  8
A-PROJ
100
AcDbLine
 10
-3713.3333333333335
 20
2587.5
 30
0.0
 11
-3926.6666666666665
 21
2385.0
 31
0.0
  0
LINE
  5
BB
330
17
100
AcDbEntity
  8
A-PROJ
100
AcDbLine
 10
-3926.6666666666665
 20
2385.0
 30
0.0
 11
-4140.0
 21
2587.5
 31
0.0
  0
LINE
  5
BC
330
17
100
AcDbEntity
  8
A-PROJ
100
AcDbLine
 10
-4140.0
 20
3112.5
 30
0.0
 11
-3926.6666666666665
 21
3315.0
 31
0.0
  0
LINE
  5
BD
330
17
100
AcDbEntity
  8
A-PROJ
100
AcDbLine
 10
-3926.6666666666665
 20
3315.0
 30
0.0
 11
-3713.3333333333335
 21
3112.5
 31
0.0
  0
LINE
  5
BE
330
17
100
AcDbEntity
  8
A-PROJ
100
AcDbLine
 10
-3713.3333333333335
 20
3112.5
 30
0.0
 11
-3926.6666666666665
 21
2910.0
 31
0.0
  0
LINE
  5
BF
330
17
100
AcDbEntity
  8
A-PROJ
100
AcDbLine
 10
-3926.6666666666665
 20
2910.0
 30
0.0
 11
-4140.0
 21
3112.5
 31
0.0
  0
LINE
  5
C0
330
17
100
AcDbEntity
  8
A-PROJ
100
AcDbLine
 10
-4140.0
 20
3637.5
 30
0.0
 11
-3926.6666666666665
 21
3840.0
 31
0.0
  0
LINE
  5
C1
330
17
100
AcDbEntity
  8
A-PROJ
100
AcDbLine
 10
-3926.6666666666665
 20
3840.0
 30
0.0
 11
-3713.3333333333335
 21
3637.5
 31
0.0
  0
LINE
  5
C2
330
17
100
AcDbEntity
  8
A-PROJ
100
AcDbLine
 10
-3713.3333333333335
 20
3637.5
 30
0.0
 11
-3926.6666666666665
 21
3435.0
 31
0.0
  0
LINE
  5
C3
330
17
100
AcDbEntity
  8
A-PROJ
100
AcDbLine
 10
-3926.6666666666665
 20
3435.0
 30
0.0
 11
-4140.0
 21
3637.5
 31
0.0
  0
LINE
  5
C4
330
17
100
AcDbEntity
  8
A-PROJ
100
AcDbLine
 10
-3593.3333333333335
 20
2062.5
 30
0.0
 11
-3380.0
 21
2265.0
 31
0.0
  0
LINE
  5
C5
330
17
100
AcDbEntity
  8
A-PROJ
100
AcDbLine
 10
-3380.0
 20
2265.0
 30
0.0
 11
-3166.666666666667
 21
2062.5
 31
0.0
  0
LINE
  5
C6
330
17
100
AcDbEntity
  8
A-PROJ
100
AcDbLine
 10
-3166.666666666667
 20
2062.5
 30
0.0
 11
-3380.0
 21
1860.0
 31
0.0
  0
LINE
  5
C7
330
17
100
AcDbEntity
  8
A-PROJ
100
AcDbLine
 10
-3380.0
 20
1860.0
 30
0.0
 11
-3593.3333333333335
 21
2062.5
 31
0.0
  0
LINE
  5
C8
330
17
100
AcDbEntity
  8
A-PROJ
100
AcDbLine
 10
-3593.3333333333335
 20
2587.5
 30
0.0
 11
-3380.0
 21
2790.0
 31
0.0
  0
LINE
  5
C9
330
17
100
AcDbEntity
  8
A-PROJ
100
AcDbLine
 10
-3380.0
 20
2790.0
 30
0.0
 11
-3166.666666666667
 21
2587.5
 31
0.0
  0
LINE
  5
CA
330
17
100
AcDbEntity
  8
A-PROJ
100
AcDbLine
 10
-3166.666666666667
 20
2587.5
 30
0.0
 11
-3380.0
 21
2385.0
 31
0.0
  0
LINE
  5
CB
330
17
100
AcDbEntity
  8
A-PROJ
100
AcDbLine
 10
-3380.0
 20
2385.0
 30
0.0
 11
-3593.3333333333335
 21
2587.5
 31
0.0
  0
LINE
  5
CC
330
17
100
AcDbEntity
  8
A-PROJ
100
AcDbLine
 10
-3593.3333333333335
 20
3112.5
 30
0.0
 11
-3380.0
 21
3315.0
 31
0.0
  0
LINE
  5
CD
330
17
100
AcDbEntity
  8
A-PROJ
100
AcDbLine
 10
-3380.0
 20
3315.0
 30
0.0
 11
-3166.666666666667
 21
3112.5
 31
0.0
  0
LINE
  5
CE
330
17
100
AcDbEntity
  8
A-PROJ
100
AcDbLine
 10
-3166.666666666667
 20
3112.5
 30
0.0
 11
-3380.0
 21
2910.0
 31
0.0
  0
LINE
  5
CF
330
17
100
AcDbEntity
  8
A-PROJ
100
AcDbLine
 10
-3380.0
 20
2910.0
 30
0.0
 11
-3593.3333333333335
 21
3112.5
 31
0.0
  0
LINE
  5
D0
330
17
100
AcDbEntity
  8
A-PROJ
100
AcDbLine
 10
-3593.3333333333335
 20
3637.5
 30
0.0
 11
-3380.0
 21
3840.0
 31
0.0
  0
LINE
  5
D1
330
17
100
AcDbEntity
  8
A-PROJ
100
AcDbLine
 10
-3380.0
 20
3840.0
 30
0.0
 11
-3166.666666666667
 21
3637.5
 31
0.0
  0
LINE
  5
D2
330
17
100
AcDbEntity
  8
A-PROJ
100
AcDbLine
 10
-3166.666666666667
 20
3637.5
 30
0.0
 11
-3380.0
 21
3435.0
 31
0.0
  0
LINE
  5
D3
330
17
100
AcDbEntity
  8
A-PROJ
100
AcDbLine
 10
-3380.0
 20
3435.0
 30
0.0
 11
-3593.3333333333335
 21
3637.5
 31
0.0
  0
LINE
  5
D4
330
17
100
AcDbEntity
  8
A-PROJ
100
AcDbLine
 10
-3046.666666666667
 20
2062.5
 30
0.0
 11
-2833.3333333333335
 21
2265.0
 31
0.0
  0
LINE
  5
D5
330
17
100
AcDbEntity
  8
A-PROJ
100
AcDbLine
 10
-2833.3333333333335
 20
2265.0
 30
0.0
 11
-2620.0000000000005
 21
2062.5
 31
0.0
  0
LINE
  5
D6
330
17
100
AcDbEntity
  8
A-PROJ
100
AcDbLine
 10
-2620.0000000000005
 20
2062.5
 30
0.0
 11
-2833.3333333333335
 21
1860.0
 31
0.0
  0
LINE
  5
D7
330
17
100
AcDbEntity
  8
A-PROJ
100
AcDbLine
 10
-2833.3333333333335
 20
1860.0
 30
0.0
 11
-3046.666666666667
 21
2062.5
 31
0.0
  0
LINE
  5
D8
330
17
100
AcDbEntity
  8
A-PROJ
100
AcDbLine
 10
-3046.666666666667
 20
2587.5
 30
0.0
 11
-2833.3333333333335
 21
2790.0
 31
0.0
  0
LINE
  5
D9
330
17
100
AcDbEntity
  8
A-PROJ
100
AcDbLine
 10
-2833.3333333333335
 20
2790.0
 30
0.0
 11
-2620.0000000000005
 21
2587.5
 31
0.0
  0
LINE
  5
DA
330
17
100
AcDbEntity
  8
A-PROJ
100
AcDbLine
 10
-2620.0000000000005
 20
2587.5
 30
0.0
 11
-2833.3333333333335
 21
2385.0
 31
0.0
  0
LINE
  5
DB
330
17
100
AcDbEntity
  8
A-PROJ
100
AcDbLine
 10
-2833.3333333333335
 20
2385.0
 30
0.0
 11
-3046.666666666667
 21
2587.5
 31
0.0
  0
LINE
  5
DC
330
17
100
AcDbEntity
  8
A-PROJ
100
AcDbLine
 10
-3046.666666666667
 20
3112.5
 30
0.0
 11
-2833.3333333333335
 21
3315.0
 31
0.0
  0
LINE
  5
DD
330
17
100
AcDbEntity
  8
A-PROJ
100
AcDbLine
 10
-2833.3333333333335
 20
3315.0
 30
0.0
 11
-2620.0000000000005
 21
3112.5
 31
0.0
  0
LINE
  5
DE
330
17
100
AcDbEntity
  8
A-PROJ
100
AcDbLine
 10
-2620.0000000000005
 20
3112.5
 30
0.0
 11
-2833.3333333333335
 21
2910.0
 31
0.0
  0
LINE
  5
DF
330
17
100
AcDbEntity
  8
A-PROJ
100
AcDbLine
 10
-2833.3333333333335
 20
2910.0
 30
0.0
 11
-3046.666666666667
 21
3112.5
 31
0.0
  0
LINE
  5
E0
330
17
100
AcDbEntity
  8
A-PROJ
100
AcDbLine
 10
-3046.666666666667
 20
3637.5
 30
0.0
 11
-2833.3333333333335
 21
3840.0
 31
0.0
  0
LINE
  5
E1
330
17
100
AcDbEntity
  8
A-PROJ
100
AcDbLine
 10
-2833.3333333333335
 20
3840.0
 30
0.0
 11
-2620.0000000000005
 21
3637.5
 31
0.0
  0
LINE
  5
E2
330
17
100
AcDbEntity
  8
A-PROJ
100
AcDbLine
 10
-2620.0000000000005
 20
3637.5
 30
0.0
 11
-2833.3333333333335
 21
3435.0
 31
0.0
  0
LINE
  5
E3
330
17
100
AcDbEntity
  8
A-PROJ
100
AcDbLine
 10
-2833.3333333333335
 20
3435.0
 30
0.0
 11
-3046.666666666667
 21
3637.5
 31
0.0
  0
LWPOLYLINE
  5
E4
330
17
100
AcDbEntity
  8
A-OPEN
100
AcDbPolyline
 90
4
 70
1
 10
-2280.0
 20
900.0
 10
2280.0
 20
900.0
 10
2280.0
 20
3900.0
 10
-2280.0
 20
3900.0
1001
GUJIAN_SOURCE
1000
72cba1e7-e593-5193-a369-d2d1b46377d1
1000
demo
  0
LINE
  5
E5
330
17
100
AcDbEntity
  8
A-OPEN
100
AcDbLine
 10
-1200.0
 20
900.0
 30
0.0
 11
-1200.0
 21
3900.0
 31
0.0
  0
LINE
  5
E6
330
17
100
AcDbEntity
  8
A-OPEN
100
AcDbLine
 10
0.0
 20
900.0
 30
0.0
 11
0.0
 21
3900.0
 31
0.0
  0
LINE
  5
E7
330
17
100
AcDbEntity
  8
A-OPEN
100
AcDbLine
 10
1200.0
 20
900.0
 30
0.0
 11
1200.0
 21
3900.0
 31
0.0
  0
LINE
  5
E8
330
17
100
AcDbEntity
  8
A-OPEN
100
AcDbLine
 10
-2280.0
 20
1650.0
 30
0.0
 11
2280.0
 21
1650.0
 31
0.0
  0
LINE
  5
E9
330
17
100
AcDbEntity
  8
A-OPEN
100
AcDbLine
 10
-2280.0
 20
2400.0
 30
0.0
 11
2280.0
 21
2400.0
 31
0.0
  0
LINE
  5
EA
330
17
100
AcDbEntity
  8
A-OPEN
100
AcDbLine
 10
-2280.0
 20
3150.0
 30
0.0
 11
2280.0
 21
3150.0
 31
0.0
  0
LWPOLYLINE
  5
EB
330
17
100
AcDbEntity
  8
A-PROJ
100
AcDbPolyline
 90
4
 70
1
 10
-2190.0
 20
1020.0
 10
-1230.0
 20
1020.0
 10
-1230.0
 20
1540.0
 10
-2190.0
 20
1540.0
  0
LWPOLYLINE
  5
EC
330
17
100
AcDbEntity
  8
A-PROJ
100
AcDbPolyline
 90
4
 70
1
 10
-2190.0
 20
1680.0
 10
-1230.0
 20
1680.0
 10
-1230.0
 20
2200.0
 10
-2190.0
 20
2200.0
  0
LINE
  5
ED
330
17
100
AcDbEntity
  8
A-PROJ
100
AcDbLine
 10
-2160.0
 20
2500.0
 30
0.0
 11
-1740.0
 21
2920.0
 31
0.0
  0
LINE
  5
EE
330
17
100
AcDbEntity
  8
A-PROJ
100
AcDbLine
 10
-2160.0
 20
2920.0
 30
0.0
 11
-1740.0
 21
2500.0
 31
0.0
  0
LINE
  5
EF
330
17
100
AcDbEntity
  8
A-PROJ
100
AcDbLine
 10
-1860.0
 20
2500.0
 30
0.0
 11
-1440.0
 21
2920.0
 31
0.0
  0
LINE
  5
F0
330
17
100
AcDbEntity
  8
A-PROJ
100
AcDbLine
 10
-1860.0
 20
2920.0
 30
0.0
 11
-1440.0
 21
2500.0
 31
0.0
  0
LINE
  5
F1
330
17
100
AcDbEntity
  8
A-PROJ
100
AcDbLine
 10
-1560.0
 20
2500.0
 30
0.0
 11
-1240.0
 21
2920.0
 31
0.0
  0
LINE
  5
F2
330
17
100
AcDbEntity
  8
A-PROJ
100
AcDbLine
 10
-1560.0
 20
2920.0
 30
0.0
 11
-1240.0
 21
2500.0
 31
0.0
  0
LWPOLYLINE
  5
F3
330
17
100
AcDbEntity
  8
A-PROJ
100
AcDbPolyline
 90
4
 70
1
 10
-1050.0
 20
1020.0
 10
-90.0
 20
1020.0
 10
-90.0
 20
1540.0
 10
-1050.0
 20
1540.0
  0
LWPOLYLINE
  5
F4
330
17
100
AcDbEntity
  8
A-PROJ
100
AcDbPolyline
 90
4
 70
1
 10
-1050.0
 20
1680.0
 10
-90.0
 20
1680.0
 10
-90.0
 20
2200.0
 10
-1050.0
 20
2200.0
  0
LINE
  5
F5
330
17
100
AcDbEntity
  8
A-PROJ
100
AcDbLine
 10
-1020.0
 20
2500.0
 30
0.0
 11
-600.0
 21
2920.0
 31
0.0
  0
LINE
  5
F6
330
17
100
AcDbEntity
  8
A-PROJ
100
AcDbLine
 10
-1020.0
 20
2920.0
 30
0.0
 11
-600.0
 21
2500.0
 31
0.0
  0
LINE
  5
F7
330
17
100
AcDbEntity
  8
A-PROJ
100
AcDbLine
 10
-720.0
 20
2500.0
 30
0.0
 11
-300.0
 21
2920.0
 31
0.0
  0
LINE
  5
F8
330
17
100
AcDbEntity
  8
A-PROJ
100
AcDbLine
 10
-720.0
 20
2920.0
 30
0.0
 11
-300.0
 21
2500.0
 31
0.0
  0
LINE
  5
F9
330
17
100
AcDbEntity
  8
A-PROJ
100
AcDbLine
 10
-420.0
 20
2500.0
 30
0.0
 11
-100.0
 21
2920.0
 31
0.0
  0
LINE
  5
FA
330
17
100
AcDbEntity
  8
A-PROJ
100
AcDbLine
 10
-420.0
 20
2920.0
 30
0.0
 11
-100.0
 21
2500.0
 31
0.0
  0
LWPOLYLINE
  5
FB
330
17
100
AcDbEntity
  8
A-PROJ
100
AcDbPolyline
 90
4
 70
1
 10
90.0
 20
1020.0
 10
1050.0
 20
1020.0
 10
1050.0
 20
1540.0
 10
90.0
 20
1540.0
  0
LWPOLYLINE
  5
FC
330
17
100
AcDbEntity
  8
A-PROJ
100
AcDbPolyline
 90
4
 70
1
 10
90.0
 20
1680.0
 10
1050.0
 20
1680.0
 10
1050.0
 20
2200.0
 10
90.0
 20
2200.0
  0
LINE
  5
FD
330
17
100
AcDbEntity
  8
A-PROJ
100
AcDbLine
 10
120.0
 20
2500.0
 30
0.0
 11
540.0
 21
2920.0
 31
0.0
  0
LINE
  5
FE
330
17
100
AcDbEntity
  8
A-PROJ
100
AcDbLine
 10
120.0
 20
2920.0
 30
0.0
 11
540.0
 21
2500.0
 31
0.0
  0
LINE
  5
FF
330
17
100
AcDbEntity
  8
A-PROJ
100
AcDbLine
 10
420.0
 20
2500.0
 30
0.0
 11
840.0
 21
2920.0
 31
0.0
  0
LINE
  5
100
330
17
100
AcDbEntity
  8
A-PROJ
100
AcDbLine
 10
420.0
 20
2920.0
 30
0.0
 11
840.0
 21
2500.0
 31
0.0
  0
LINE
  5
101
330
17
100
AcDbEntity
  8
A-PROJ
100
AcDbLine
 10
720.0
 20
2500.0
 30
0.0
 11
1040.0
 21
2920.0
 31
0.0
  0
LINE
  5
102
330
17
100
AcDbEntity
  8
A-PROJ
100
AcDbLine
 10
720.0
 20
2920.0
 30
0.0
 11
1040.0
 21
2500.0
 31
0.0
  0
LWPOLYLINE
  5
103
330
17
100
AcDbEntity
  8
A-PROJ
100
AcDbPolyline
 90
4
 70
1
 10
1230.0
 20
1020.0
 10
2190.0
 20
1020.0
 10
2190.0
 20
1540.0
 10
1230.0
 20
1540.0
  0
LWPOLYLINE
  5
104
330
17
100
AcDbEntity
  8
A-PROJ
100
AcDbPolyline
 90
4
 70
1
 10
1230.0
 20
1680.0
 10
2190.0
 20
1680.0
 10
2190.0
 20
2200.0
 10
1230.0
 20
2200.0
  0
LINE
  5
105
330
17
100
AcDbEntity
  8
A-PROJ
100
AcDbLine
 10
1260.0
 20
2500.0
 30
0.0
 11
1680.0
 21
2920.0
 31
0.0
  0
LINE
  5
106
330
17
100
AcDbEntity
  8
A-PROJ
100
AcDbLine
 10
1260.0
 20
2920.0
 30
0.0
 11
1680.0
 21
2500.0
 31
0.0
  0
LINE
  5
107
330
17
100
AcDbEntity
  8
A-PROJ
100
AcDbLine
 10
1560.0
 20
2500.0
 30
0.0
 11
1980.0
 21
2920.0
 31
0.0
  0
LINE
  5
108
330
17
100
AcDbEntity
  8
A-PROJ
100
AcDbLine
 10
1560.0
 20
2920.0
 30
0.0
 11
1980.0
 21
2500.0
 31
0.0
  0
LINE
  5
109
330
17
100
AcDbEntity
  8
A-PROJ
100
AcDbLine
 10
1860.0
 20
2500.0
 30
0.0
 11
2180.0
 21
2920.0
 31
0.0
  0
LINE
  5
10A
330
17
100
AcDbEntity
  8
A-PROJ
100
AcDbLine
 10
1860.0
 20
2920.0
 30
0.0
 11
2180.0
 21
2500.0
 31
0.0
  0
LWPOLYLINE
  5
10B
330
17
100
AcDbEntity
  8
A-OPEN
100
AcDbPolyline
 90
4
 70
1
 10
2560.0
 20
1800.0
 10
5840.0
 20
1800.0
 10
5840.0
 20
3900.0
 10
2560.0
 20
3900.0
1001
GUJIAN_SOURCE
1000
5fc5ae0d-2193-5667-8e39-9902207ab7b6
1000
demo
  0
LINE
  5
10C
330
17
100
AcDbEntity
  8
A-OPEN
100
AcDbLine
 10
3000.0
 20
1800.0
 30
0.0
 11
3000.0
 21
3900.0
 31
0.0
  0
LINE
  5
10D
330
17
100
AcDbEntity
  8
A-OPEN
100
AcDbLine
 10
3600.0
 20
1800.0
 30
0.0
 11
3600.0
 21
3900.0
 31
0.0
  0
LINE
  5
10E
330
17
100
AcDbEntity
  8
A-OPEN
100
AcDbLine
 10
4200.0
 20
1800.0
 30
0.0
 11
4200.0
 21
3900.0
 31
0.0
  0
LINE
  5
10F
330
17
100
AcDbEntity
  8
A-OPEN
100
AcDbLine
 10
4800.0
 20
1800.0
 30
0.0
 11
4800.0
 21
3900.0
 31
0.0
  0
LINE
  5
110
330
17
100
AcDbEntity
  8
A-OPEN
100
AcDbLine
 10
5400.0
 20
1800.0
 30
0.0
 11
5400.0
 21
3900.0
 31
0.0
  0
LINE
  5
111
330
17
100
AcDbEntity
  8
A-OPEN
100
AcDbLine
 10
2560.0
 20
2325.0
 30
0.0
 11
5840.0
 21
2325.0
 31
0.0
  0
LINE
  5
112
330
17
100
AcDbEntity
  8
A-OPEN
100
AcDbLine
 10
2560.0
 20
2850.0
 30
0.0
 11
5840.0
 21
2850.0
 31
0.0
  0
LINE
  5
113
330
17
100
AcDbEntity
  8
A-OPEN
100
AcDbLine
 10
2560.0
 20
3375.0
 30
0.0
 11
5840.0
 21
3375.0
 31
0.0
  0
LINE
  5
114
330
17
100
AcDbEntity
  8
A-PROJ
100
AcDbLine
 10
2620.0
 20
2062.5
 30
0.0
 11
2833.3333333333335
 21
2265.0
 31
0.0
  0
LINE
  5
115
330
17
100
AcDbEntity
  8
A-PROJ
100
AcDbLine
 10
2833.3333333333335
 20
2265.0
 30
0.0
 11
3046.6666666666665
 21
2062.5
 31
0.0
  0
LINE
  5
116
330
17
100
AcDbEntity
  8
A-PROJ
100
AcDbLine
 10
3046.6666666666665
 20
2062.5
 30
0.0
 11
2833.3333333333335
 21
1860.0
 31
0.0
  0
LINE
  5
117
330
17
100
AcDbEntity
  8
A-PROJ
100
AcDbLine
 10
2833.3333333333335
 20
1860.0
 30
0.0
 11
2620.0
 21
2062.5
 31
0.0
  0
LINE
  5
118
330
17
100
AcDbEntity
  8
A-PROJ
100
AcDbLine
 10
2620.0
 20
2587.5
 30
0.0
 11
2833.3333333333335
 21
2790.0
 31
0.0
  0
LINE
  5
119
330
17
100
AcDbEntity
  8
A-PROJ
100
AcDbLine
 10
2833.3333333333335
 20
2790.0
 30
0.0
 11
3046.6666666666665
 21
2587.5
 31
0.0
  0
LINE
  5
11A
330
17
100
AcDbEntity
  8
A-PROJ
100
AcDbLine
 10
3046.6666666666665
 20
2587.5
 30
0.0
 11
2833.3333333333335
 21
2385.0
 31
0.0
  0
LINE
  5
11B
330
17
100
AcDbEntity
  8
A-PROJ
100
AcDbLine
 10
2833.3333333333335
 20
2385.0
 30
0.0
 11
2620.0
 21
2587.5
 31
0.0
  0
LINE
  5
11C
330
17
100
AcDbEntity
  8
A-PROJ
100
AcDbLine
 10
2620.0
 20
3112.5
 30
0.0
 11
2833.3333333333335
 21
3315.0
 31
0.0
  0
LINE
  5
11D
330
17
100
AcDbEntity
  8
A-PROJ
100
AcDbLine
 10
2833.3333333333335
 20
3315.0
 30
0.0
 11
3046.6666666666665
 21
3112.5
 31
0.0
  0
LINE
  5
11E
330
17
100
AcDbEntity
  8
A-PROJ
100
AcDbLine
 10
3046.6666666666665
 20
3112.5
 30
0.0
 11
2833.3333333333335
 21
2910.0
 31
0.0
  0
LINE
  5
11F
330
17
100
AcDbEntity
  8
A-PROJ
100
AcDbLine
 10
2833.3333333333335
 20
2910.0
 30
0.0
 11
2620.0
 21
3112.5
 31
0.0
  0
LINE
  5
120
330
17
100
AcDbEntity
  8
A-PROJ
100
AcDbLine
 10
2620.0
 20
3637.5
 30
0.0
 11
2833.3333333333335
 21
3840.0
 31
0.0
  0
LINE
  5
121
330
17
100
AcDbEntity
  8
A-PROJ
100
AcDbLine
 10
2833.3333333333335
 20
3840.0
 30
0.0
 11
3046.6666666666665
 21
3637.5
 31
0.0
  0
LINE
  5
122
330
17
100
AcDbEntity
  8
A-PROJ
100
AcDbLine
 10
3046.6666666666665
 20
3637.5
 30
0.0
 11
2833.3333333333335
 21
3435.0
 31
0.0
  0
LINE
  5
123
330
17
100
AcDbEntity
  8
A-PROJ
100
AcDbLine
 10
2833.3333333333335
 20
3435.0
 30
0.0
 11
2620.0
 21
3637.5
 31
0.0
  0
LINE
  5
124
330
17
100
AcDbEntity
  8
A-PROJ
100
AcDbLine
 10
3166.6666666666665
 20
2062.5
 30
0.0
 11
3380.0
 21
2265.0
 31
0.0
  0
LINE
  5
125
330
17
100
AcDbEntity
  8
A-PROJ
100
AcDbLine
 10
3380.0
 20
2265.0
 30
0.0
 11
3593.333333333333
 21
2062.5
 31
0.0
  0
LINE
  5
126
330
17
100
AcDbEntity
  8
A-PROJ
100
AcDbLine
 10
3593.333333333333
 20
2062.5
 30
0.0
 11
3380.0
 21
1860.0
 31
0.0
  0
LINE
  5
127
330
17
100
AcDbEntity
  8
A-PROJ
100
AcDbLine
 10
3380.0
 20
1860.0
 30
0.0
 11
3166.6666666666665
 21
2062.5
 31
0.0
  0
LINE
  5
128
330
17
100
AcDbEntity
  8
A-PROJ
100
AcDbLine
 10
3166.6666666666665
 20
2587.5
 30
0.0
 11
3380.0
 21
2790.0
 31
0.0
  0
LINE
  5
129
330
17
100
AcDbEntity
  8
A-PROJ
100
AcDbLine
 10
3380.0
 20
2790.0
 30
0.0
 11
3593.333333333333
 21
2587.5
 31
0.0
  0
LINE
  5
12A
330
17
100
AcDbEntity
  8
A-PROJ
100
AcDbLine
 10
3593.333333333333
 20
2587.5
 30
0.0
 11
3380.0
 21
2385.0
 31
0.0
  0
LINE
  5
12B
330
17
100
AcDbEntity
  8
A-PROJ
100
AcDbLine
 10
3380.0
 20
2385.0
 30
0.0
 11
3166.6666666666665
 21
2587.5
 31
0.0
  0
LINE
  5
12C
330
17
100
AcDbEntity
  8
A-PROJ
100
AcDbLine
 10
3166.6666666666665
 20
3112.5
 30
0.0
 11
3380.0
 21
3315.0
 31
0.0
  0
LINE
  5
12D
330
17
100
AcDbEntity
  8
A-PROJ
100
AcDbLine
 10
3380.0
 20
3315.0
 30
0.0
 11
3593.333333333333
 21
3112.5
 31
0.0
  0
LINE
  5
12E
330
17
100
AcDbEntity
  8
A-PROJ
100
AcDbLine
 10
3593.333333333333
 20
3112.5
 30
0.0
 11
3380.0
 21
2910.0
 31
0.0
  0
LINE
  5
12F
330
17
100
AcDbEntity
  8
A-PROJ
100
AcDbLine
 10
3380.0
 20
2910.0
 30
0.0
 11
3166.6666666666665
 21
3112.5
 31
0.0
  0
LINE
  5
130
330
17
100
AcDbEntity
  8
A-PROJ
100
AcDbLine
 10
3166.6666666666665
 20
3637.5
 30
0.0
 11
3380.0
 21
3840.0
 31
0.0
  0
LINE
  5
131
330
17
100
AcDbEntity
  8
A-PROJ
100
AcDbLine
 10
3380.0
 20
3840.0
 30
0.0
 11
3593.333333333333
 21
3637.5
 31
0.0
  0
LINE
  5
132
330
17
100
AcDbEntity
  8
A-PROJ
100
AcDbLine
 10
3593.333333333333
 20
3637.5
 30
0.0
 11
3380.0
 21
3435.0
 31
0.0
  0
LINE
  5
133
330
17
100
AcDbEntity
  8
A-PROJ
100
AcDbLine
 10
3380.0
 20
3435.0
 30
0.0
 11
3166.6666666666665
 21
3637.5
 31
0.0
  0
LINE
  5
134
330
17
100
AcDbEntity
  8
A-PROJ
100
AcDbLine
 10
3713.333333333333
 20
2062.5
 30
0.0
 11
3926.6666666666665
 21
2265.0
 31
0.0
  0
LINE
  5
135
330
17
100
AcDbEntity
  8
A-PROJ
100
AcDbLine
 10
3926.6666666666665
 20
2265.0
 30
0.0
 11
4140.0
 21
2062.5
 31
0.0
  0
LINE
  5
136
330
17
100
AcDbEntity
  8
A-PROJ
100
AcDbLine
 10
4140.0
 20
2062.5
 30
0.0
 11
3926.6666666666665
 21
1860.0
 31
0.0
  0
LINE
  5
137
330
17
100
AcDbEntity
  8
A-PROJ
100
AcDbLine
 10
3926.6666666666665
 20
1860.0
 30
0.0
 11
3713.333333333333
 21
2062.5
 31
0.0
  0
LINE
  5
138
330
17
100
AcDbEntity
  8
A-PROJ
100
AcDbLine
 10
3713.333333333333
 20
2587.5
 30
0.0
 11
3926.6666666666665
 21
2790.0
 31
0.0
  0
LINE
  5
139
330
17
100
AcDbEntity
  8
A-PROJ
100
AcDbLine
 10
3926.6666666666665
 20
2790.0
 30
0.0
 11
4140.0
 21
2587.5
 31
0.0
  0
LINE
  5
13A
330
17
100
AcDbEntity
  8
A-PROJ
100
AcDbLine
 10
4140.0
 20
2587.5
 30
0.0
 11
3926.6666666666665
 21
2385.0
 31
0.0
  0
LINE
  5
13B
330
17
100
AcDbEntity
  8
A-PROJ
100
AcDbLine
 10
3926.6666666666665
 20
2385.0
 30
0.0
 11
3713.333333333333
 21
2587.5
 31
0.0
  0
LINE
  5
13C
330
17
100
AcDbEntity
  8
A-PROJ
100
AcDbLine
 10
3713.333333333333
 20
3112.5
 30
0.0
 11
3926.6666666666665
 21
3315.0
 31
0.0
  0
LINE
  5
13D
330
17
100
AcDbEntity
  8
A-PROJ
100
AcDbLine
 10
3926.6666666666665
 20
3315.0
 30
0.0
 11
4140.0
 21
3112.5
 31
0.0
  0
LINE
  5
13E
330
17
100
AcDbEntity
  8
A-PROJ
100
AcDbLine
 10
4140.0
 20
3112.5
 30
0.0
 11
3926.6666666666665
 21
2910.0
 31
0.0
  0
LINE
  5
13F
330
17
100
AcDbEntity
  8
A-PROJ
100
AcDbLine
 10
3926.6666666666665
 20
2910.0
 30
0.0
 11
3713.333333333333
 21
3112.5
 31
0.0
  0
LINE
  5
140
330
17
100
AcDbEntity
  8
A-PROJ
100
AcDbLine
 10
3713.333333333333
 20
3637.5
 30
0.0
 11
3926.6666666666665
 21
3840.0
 31
0.0
  0
LINE
  5
141
330
17
100
AcDbEntity
  8
A-PROJ
100
AcDbLine
 10
3926.6666666666665
 20
3840.0
 30
0.0
 11
4140.0
 21
3637.5
 31
0.0
  0
LINE
  5
142
330
17
100
AcDbEntity
  8
A-PROJ
100
AcDbLine
 10
4140.0
 20
3637.5
 30
0.0
 11
3926.6666666666665
 21
3435.0
 31
0.0
  0
LINE
  5
143
330
17
100
AcDbEntity
  8
A-PROJ
100
AcDbLine
 10
3926.6666666666665
 20
3435.0
 30
0.0
 11
3713.333333333333
 21
3637.5
 31
0.0
  0
LINE
  5
144
330
17
100
AcDbEntity
  8
A-PROJ
100
AcDbLine
 10
4260.0
 20
2062.5
 30
0.0
 11
4473.333333333333
 21
2265.0
 31
0.0
  0
LINE
  5
145
330
17
100
AcDbEntity
  8
A-PROJ
100
AcDbLine
 10
4473.333333333333
 20
2265.0
 30
0.0
 11
4686.666666666667
 21
2062.5
 31
0.0
  0
LINE
  5
146
330
17
100
AcDbEntity
  8
A-PROJ
100
AcDbLine
 10
4686.666666666667
 20
2062.5
 30
0.0
 11
4473.333333333333
 21
1860.0
 31
0.0
  0
LINE
  5
147
330
17
100
AcDbEntity
  8
A-PROJ
100
AcDbLine
 10
4473.333333333333
 20
1860.0
 30
0.0
 11
4260.0
 21
2062.5
 31
0.0
  0
LINE
  5
148
330
17
100
AcDbEntity
  8
A-PROJ
100
AcDbLine
 10
4260.0
 20
2587.5
 30
0.0
 11
4473.333333333333
 21
2790.0
 31
0.0
  0
LINE
  5
149
330
17
100
AcDbEntity
  8
A-PROJ
100
AcDbLine
 10
4473.333333333333
 20
2790.0
 30
0.0
 11
4686.666666666667
 21
2587.5
 31
0.0
  0
LINE
  5
14A
330
17
100
AcDbEntity
  8
A-PROJ
100
AcDbLine
 10
4686.666666666667
 20
2587.5
 30
0.0
 11
4473.333333333333
 21
2385.0
 31
0.0
  0
LINE
  5
14B
330
17
100
AcDbEntity
  8
A-PROJ
100
AcDbLine
 10
4473.333333333333
 20
2385.0
 30
0.0
 11
4260.0
 21
2587.5
 31
0.0
  0
LINE
  5
14C
330
17
100
AcDbEntity
  8
A-PROJ
100
AcDbLine
 10
4260.0
 20
3112.5
 30
0.0
 11
4473.333333333333
 21
3315.0
 31
0.0
  0
LINE
  5
14D
330
17
100
AcDbEntity
  8
A-PROJ
100
AcDbLine
 10
4473.333333333333
 20
3315.0
 30
0.0
 11
4686.666666666667
 21
3112.5
 31
0.0
  0
LINE
  5
14E
330
17
100
AcDbEntity
  8
A-PROJ
100
AcDbLine
 10
4686.666666666667
 20
3112.5
 30
0.0
 11
4473.333333333333
 21
2910.0
 31
0.0
  0
LINE
  5
14F
330
17
100
AcDbEntity
  8
A-PROJ
100
AcDbLine
 10
4473.333333333333
 20
2910.0
 30
0.0
 11
4260.0
 21
3112.5
 31
0.0
  0
LINE
  5
150
330
17
100
AcDbEntity
  8
A-PROJ
100
AcDbLine
 10
4260.0
 20
3637.5
 30
0.0
 11
4473.333333333333
 21
3840.0
 31
0.0
  0
LINE
  5
151
330
17
100
AcDbEntity
  8
A-PROJ
100
AcDbLine
 10
4473.333333333333
 20
3840.0
 30
0.0
 11
4686.666666666667
 21
3637.5
 31
0.0
  0
LINE
  5
152
330
17
100
AcDbEntity
  8
A-PROJ
100
AcDbLine
 10
4686.666666666667
 20
3637.5
 30
0.0
 11
4473.333333333333
 21
3435.0
 31
0.0
  0
LINE
  5
153
330
17
100
AcDbEntity
  8
A-PROJ
100
AcDbLine
 10
4473.333333333333
 20
3435.0
 30
0.0
 11
4260.0
 21
3637.5
 31
0.0
  0
LINE
  5
154
330
17
100
AcDbEntity
  8
A-PROJ
100
AcDbLine
 10
4806.666666666666
 20
2062.5
 30
0.0
 11
5019.999999999999
 21
2265.0
 31
0.0
  0
LINE
  5
155
330
17
100
AcDbEntity
  8
A-PROJ
100
AcDbLine
 10
5019.999999999999
 20
2265.0
 30
0.0
 11
5233.333333333333
 21
2062.5
 31
0.0
  0
LINE
  5
156
330
17
100
AcDbEntity
  8
A-PROJ
100
AcDbLine
 10
5233.333333333333
 20
2062.5
 30
0.0
 11
5019.999999999999
 21
1860.0
 31
0.0
  0
LINE
  5
157
330
17
100
AcDbEntity
  8
A-PROJ
100
AcDbLine
 10
5019.999999999999
 20
1860.0
 30
0.0
 11
4806.666666666666
 21
2062.5
 31
0.0
  0
LINE
  5
158
330
17
100
AcDbEntity
  8
A-PROJ
100
AcDbLine
 10
4806.666666666666
 20
2587.5
 30
0.0
 11
5019.999999999999
 21
2790.0
 31
0.0
  0
LINE
  5
159
330
17
100
AcDbEntity
  8
A-PROJ
100
AcDbLine
 10
5019.999999999999
 20
2790.0
 30
0.0
 11
5233.333333333333
 21
2587.5
 31
0.0
  0
LINE
  5
15A
330
17
100
AcDbEntity
  8
A-PROJ
100
AcDbLine
 10
5233.333333333333
 20
2587.5
 30
0.0
 11
5019.999999999999
 21
2385.0
 31
0.0
  0
LINE
  5
15B
330
17
100
AcDbEntity
  8
A-PROJ
100
AcDbLine
 10
5019.999999999999
 20
2385.0
 30
0.0
 11
4806.666666666666
 21
2587.5
 31
0.0
  0
LINE
  5
15C
330
17
100
AcDbEntity
  8
A-PROJ
100
AcDbLine
 10
4806.666666666666
 20
3112.5
 30
0.0
 11
5019.999999999999
 21
3315.0
 31
0.0
  0
LINE
  5
15D
330
17
100
AcDbEntity
  8
A-PROJ
100
AcDbLine
 10
5019.999999999999
 20
3315.0
 30
0.0
 11
5233.333333333333
 21
3112.5
 31
0.0
  0
LINE
  5
15E
330
17
100
AcDbEntity
  8
A-PROJ
100
AcDbLine
 10
5233.333333333333
 20
3112.5
 30
0.0
 11
5019.999999999999
 21
2910.0
 31
0.0
  0
LINE
  5
15F
330
17
100
AcDbEntity
  8
A-PROJ
100
AcDbLine
 10
5019.999999999999
 20
2910.0
 30
0.0
 11
4806.666666666666
 21
3112.5
 31
0.0
  0
LINE
  5
160
330
17
100
AcDbEntity
  8
A-PROJ
100
AcDbLine
 10
4806.666666666666
 20
3637.5
 30
0.0
 11
5019.999999999999
 21
3840.0
 31
0.0
  0
LINE
  5
161
330
17
100
AcDbEntity
  8
A-PROJ
100
AcDbLine
 10
5019.999999999999
 20
3840.0
 30
0.0
 11
5233.333333333333
 21
3637.5
 31
0.0
  0
LINE
  5
162
330
17
100
AcDbEntity
  8
A-PROJ
100
AcDbLine
 10
5233.333333333333
 20
3637.5
 30
0.0
 11
5019.999999999999
 21
3435.0
 31
0.0
  0
LINE
  5
163
330
17
100
AcDbEntity
  8
A-PROJ
100
AcDbLine
 10
5019.999999999999
 20
3435.0
 30
0.0
 11
4806.666666666666
 21
3637.5
 31
0.0
  0
LINE
  5
164
330
17
100
AcDbEntity
  8
A-PROJ
100
AcDbLine
 10
5353.333333333333
 20
2062.5
 30
0.0
 11
5566.666666666666
 21
2265.0
 31
0.0
  0
LINE
  5
165
330
17
100
AcDbEntity
  8
A-PROJ
100
AcDbLine
 10
5566.666666666666
 20
2265.0
 30
0.0
 11
5780.0
 21
2062.5
 31
0.0
  0
LINE
  5
166
330
17
100
AcDbEntity
  8
A-PROJ
100
AcDbLine
 10
5780.0
 20
2062.5
 30
0.0
 11
5566.666666666666
 21
1860.0
 31
0.0
  0
LINE
  5
167
330
17
100
AcDbEntity
  8
A-PROJ
100
AcDbLine
 10
5566.666666666666
 20
1860.0
 30
0.0
 11
5353.333333333333
 21
2062.5
 31
0.0
  0
LINE
  5
168
330
17
100
AcDbEntity
  8
A-PROJ
100
AcDbLine
 10
5353.333333333333
 20
2587.5
 30
0.0
 11
5566.666666666666
 21
2790.0
 31
0.0
  0
LINE
  5
169
330
17
100
AcDbEntity
  8
A-PROJ
100
AcDbLine
 10
5566.666666666666
 20
2790.0
 30
0.0
 11
5780.0
 21
2587.5
 31
0.0
  0
LINE
  5
16A
330
17
100
AcDbEntity
  8
A-PROJ
100
AcDbLine
 10
5780.0
 20
2587.5
 30
0.0
 11
5566.666666666666
 21
2385.0
 31
0.0
  0
LINE
  5
16B
330
17
100
AcDbEntity
  8
A-PROJ
100
AcDbLine
 10
5566.666666666666
 20
2385.0
 30
0.0
 11
5353.333333333333
 21
2587.5
 31
0.0
  0
LINE
  5
16C
330
17
100
AcDbEntity
  8
A-PROJ
100
AcDbLine
 10
5353.333333333333
 20
3112.5
 30
0.0
 11
5566.666666666666
 21
3315.0
 31
0.0
  0
LINE
  5
16D
330
17
100
AcDbEntity
  8
A-PROJ
100
AcDbLine
 10
5566.666666666666
 20
3315.0
 30
0.0
 11
5780.0
 21
3112.5
 31
0.0
  0
LINE
  5
16E
330
17
100
AcDbEntity
  8
A-PROJ
100
AcDbLine
 10
5780.0
 20
3112.5
 30
0.0
 11
5566.666666666666
 21
2910.0
 31
0.0
  0
LINE
  5
16F
330
17
100
AcDbEntity
  8
A-PROJ
100
AcDbLine
 10
5566.666666666666
 20
2910.0
 30
0.0
 11
5353.333333333333
 21
3112.5
 31
0.0
  0
LINE
  5
170
330
17
100
AcDbEntity
  8
A-PROJ
100
AcDbLine
 10
5353.333333333333
 20
3637.5
 30
0.0
 11
5566.666666666666
 21
3840.0
 31
0.0
  0
LINE
  5
171
330
17
100
AcDbEntity
  8
A-PROJ
100
AcDbLine
 10
5566.666666666666
 20
3840.0
 30
0.0
 11
5780.0
 21
3637.5
 31
0.0
  0
LINE
  5
172
330
17
100
AcDbEntity
  8
A-PROJ
100
AcDbLine
 10
5780.0
 20
3637.5
 30
0.0
 11
5566.666666666666
 21
3435.0
 31
0.0
  0
LINE
  5
173
330
17
100
AcDbEntity
  8
A-PROJ
100
AcDbLine
 10
5566.666666666666
 20
3435.0
 30
0.0
 11
5353.333333333333
 21
3637.5
 31
0.0
  0
LWPOLYLINE
  5
174
330
17
100
AcDbEntity
  8
A-TIMBER
100
AcDbPolyline
 90
4
 70
1
 10
-6000.0
 20
4120.0
 10
6000.0
 20
4120.0
 10
6000.0
 20
4480.0
 10
-6000.0
 20
4480.0
  0
LWPOLYLINE
  5
175
330
17
100
AcDbEntity
  8
A-PROJ
100
AcDbPolyline
 90
4
 70
1
 10
-5975.0
 20
4160.0
 10
-5358.333333333333
 20
4160.0
 10
-5358.333333333333
 20
4440.0
 10
-5975.0
 20
4440.0
  0
LINE
  5
176
330
17
100
AcDbEntity
  8
A-PROJ
100
AcDbLine
 10
-5930.0
 20
4300.0
 30
0.0
 11
-5403.333333333333
 21
4420.0
 31
0.0
  0
LINE
  5
177
330
17
100
AcDbEntity
  8
A-PROJ
100
AcDbLine
 10
-5930.0
 20
4420.0
 30
0.0
 11
-5403.333333333333
 21
4300.0
 31
0.0
  0
LWPOLYLINE
  5
178
330
17
100
AcDbEntity
  8
A-PROJ
100
AcDbPolyline
 90
4
 70
1
 10
-5308.333333333333
 20
4160.0
 10
-4691.666666666667
 20
4160.0
 10
-4691.666666666667
 20
4440.0
 10
-5308.333333333333
 20
4440.0
  0
LINE
  5
179
330
17
100
AcDbEntity
  8
A-PROJ
100
AcDbLine
 10
-5263.333333333333
 20
4300.0
 30
0.0
 11
-4736.666666666667
 21
4420.0
 31
0.0
  0
LINE
  5
17A
330
17
100
AcDbEntity
  8
A-PROJ
100
AcDbLine
 10
-5263.333333333333
 20
4420.0
 30
0.0
 11
-4736.666666666667
 21
4300.0
 31
0.0
  0
LWPOLYLINE
  5
17B
330
17
100
AcDbEntity
  8
A-PROJ
100
AcDbPolyline
 90
4
 70
1
 10
-4641.666666666667
 20
4160.0
 10
-4025.0
 20
4160.0
 10
-4025.0
 20
4440.0
 10
-4641.666666666667
 20
4440.0
  0
LINE
  5
17C
330
17
100
AcDbEntity
  8
A-PROJ
100
AcDbLine
 10
-4596.666666666667
 20
4300.0
 30
0.0
 11
-4070.0
 21
4420.0
 31
0.0
  0
LINE
  5
17D
330
17
100
AcDbEntity
  8
A-PROJ
100
AcDbLine
 10
-4596.666666666667
 20
4420.0
 30
0.0
 11
-4070.0
 21
4300.0
 31
0.0
  0
LWPOLYLINE
  5
17E
330
17
100
AcDbEntity
  8
A-PROJ
100
AcDbPolyline
 90
4
 70
1
 10
-3975.0
 20
4160.0
 10
-3358.3333333333335
 20
4160.0
 10
-3358.3333333333335
 20
4440.0
 10
-3975.0
 20
4440.0
  0
LINE
  5
17F
330
17
100
AcDbEntity
  8
A-PROJ
100
AcDbLine
 10
-3930.0
 20
4300.0
 30
0.0
 11
-3403.3333333333335
 21
4420.0
 31
0.0
  0
LINE
  5
180
330
17
100
AcDbEntity
  8
A-PROJ
100
AcDbLine
 10
-3930.0
 20
4420.0
 30
0.0
 11
-3403.3333333333335
 21
4300.0
 31
0.0
  0
LWPOLYLINE
  5
181
330
17
100
AcDbEntity
  8
A-PROJ
100
AcDbPolyline
 90
4
 70
1
 10
-3308.3333333333335
 20
4160.0
 10
-2691.6666666666665
 20
4160.0
 10
-2691.6666666666665
 20
4440.0
 10
-3308.3333333333335
 20
4440.0
  0
LINE
  5
182
330
17
100
AcDbEntity
  8
A-PROJ
100
AcDbLine
 10
-3263.3333333333335
 20
4300.0
 30
0.0
 11
-2736.6666666666665
 21
4420.0
 31
0.0
  0
LINE
  5
183
330
17
100
AcDbEntity
  8
A-PROJ
100
AcDbLine
 10
-3263.3333333333335
 20
4420.0
 30
0.0
 11
-2736.6666666666665
 21
4300.0
 31
0.0
  0
LWPOLYLINE
  5
184
330
17
100
AcDbEntity
  8
A-PROJ
100
AcDbPolyline
 90
4
 70
1
 10
-2641.6666666666665
 20
4160.0
 10
-2025.0
 20
4160.0
 10
-2025.0
 20
4440.0
 10
-2641.6666666666665
 20
4440.0
  0
LINE
  5
185
330
17
100
AcDbEntity
  8
A-PROJ
100
AcDbLine
 10
-2596.6666666666665
 20
4300.0
 30
0.0
 11
-2070.0
 21
4420.0
 31
0.0
  0
LINE
  5
186
330
17
100
AcDbEntity
  8
A-PROJ
100
AcDbLine
 10
-2596.6666666666665
 20
4420.0
 30
0.0
 11
-2070.0
 21
4300.0
 31
0.0
  0
LWPOLYLINE
  5
187
330
17
100
AcDbEntity
  8
A-PROJ
100
AcDbPolyline
 90
4
 70
1
 10
-1975.0
 20
4160.0
 10
-1358.333333333333
 20
4160.0
 10
-1358.333333333333
 20
4440.0
 10
-1975.0
 20
4440.0
  0
LINE
  5
188
330
17
100
AcDbEntity
  8
A-PROJ
100
AcDbLine
 10
-1930.0
 20
4300.0
 30
0.0
 11
-1403.333333333333
 21
4420.0
 31
0.0
  0
LINE
  5
189
330
17
100
AcDbEntity
  8
A-PROJ
100
AcDbLine
 10
-1930.0
 20
4420.0
 30
0.0
 11
-1403.333333333333
 21
4300.0
 31
0.0
  0
LWPOLYLINE
  5
18A
330
17
100
AcDbEntity
  8
A-PROJ
100
AcDbPolyline
 90
4
 70
1
 10
-1308.333333333333
 20
4160.0
 10
-691.666666666667
 20
4160.0
 10
-691.666666666667
 20
4440.0
 10
-1308.333333333333
 20
4440.0
  0
LINE
  5
18B
330
17
100
AcDbEntity
  8
A-PROJ
100
AcDbLine
 10
-1263.333333333333
 20
4300.0
 30
0.0
 11
-736.666666666667
 21
4420.0
 31
0.0
  0
LINE
  5
18C
330
17
100
AcDbEntity
  8
A-PROJ
100
AcDbLine
 10
-1263.333333333333
 20
4420.0
 30
0.0
 11
-736.666666666667
 21
4300.0
 31
0.0
  0
LWPOLYLINE
  5
18D
330
17
100
AcDbEntity
  8
A-PROJ
100
AcDbPolyline
 90
4
 70
1
 10
-641.666666666667
 20
4160.0
 10
-25.0
 20
4160.0
 10
-25.0
 20
4440.0
 10
-641.666666666667
 20
4440.0
  0
LINE
  5
18E
330
17
100
AcDbEntity
  8
A-PROJ
100
AcDbLine
 10
-596.666666666667
 20
4300.0
 30
0.0
 11
-70.0
 21
4420.0
 31
0.0
  0
LINE
  5
18F
330
17
100
AcDbEntity
  8
A-PROJ
100
AcDbLine
 10
-596.666666666667
 20
4420.0
 30
0.0
 11
-70.0
 21
4300.0
 31
0.0
  0
LWPOLYLINE
  5
190
330
17
100
AcDbEntity
  8
A-PROJ
100
AcDbPolyline
 90
4
 70
1
 10
25.0
 20
4160.0
 10
641.666666666667
 20
4160.0
 10
641.666666666667
 20
4440.0
 10
25.0
 20
4440.0
  0
LINE
  5
191
330
17
100
AcDbEntity
  8
A-PROJ
100
AcDbLine
 10
70.0
 20
4300.0
 30
0.0
 11
596.666666666667
 21
4420.0
 31
0.0
  0
LINE
  5
192
330
17
100
AcDbEntity
  8
A-PROJ
100
AcDbLine
 10
70.0
 20
4420.0
 30
0.0
 11
596.666666666667
 21
4300.0
 31
0.0
  0
LWPOLYLINE
  5
193
330
17
100
AcDbEntity
  8
A-PROJ
100
AcDbPolyline
 90
4
 70
1
 10
691.666666666667
 20
4160.0
 10
1308.333333333333
 20
4160.0
 10
1308.333333333333
 20
4440.0
 10
691.666666666667
 20
4440.0
  0
LINE
  5
194
330
17
100
AcDbEntity
  8
A-PROJ
100
AcDbLine
 10
736.666666666667
 20
4300.0
 30
0.0
 11
1263.333333333333
 21
4420.0
 31
0.0
  0
LINE
  5
195
330
17
100
AcDbEntity
  8
A-PROJ
100
AcDbLine
 10
736.666666666667
 20
4420.0
 30
0.0
 11
1263.333333333333
 21
4300.0
 31
0.0
  0
LWPOLYLINE
  5
196
330
17
100
AcDbEntity
  8
A-PROJ
100
AcDbPolyline
 90
4
 70
1
 10
1358.333333333333
 20
4160.0
 10
1975.0
 20
4160.0
 10
1975.0
 20
4440.0
 10
1358.333333333333
 20
4440.0
  0
LINE
  5
197
330
17
100
AcDbEntity
  8
A-PROJ
100
AcDbLine
 10
1403.333333333333
 20
4300.0
 30
0.0
 11
1930.0
 21
4420.0
 31
0.0
  0
LINE
  5
198
330
17
100
AcDbEntity
  8
A-PROJ
100
AcDbLine
 10
1403.333333333333
 20
4420.0
 30
0.0
 11
1930.0
 21
4300.0
 31
0.0
  0
LWPOLYLINE
  5
199
330
17
100
AcDbEntity
  8
A-PROJ
100
AcDbPolyline
 90
4
 70
1
 10
2025.0
 20
4160.0
 10
2641.666666666666
 20
4160.0
 10
2641.666666666666
 20
4440.0
 10
2025.0
 20
4440.0
  0
LINE
  5
19A
330
17
100
AcDbEntity
  8
A-PROJ
100
AcDbLine
 10
2070.0
 20
4300.0
 30
0.0
 11
2596.666666666666
 21
4420.0
 31
0.0
  0
LINE
  5
19B
330
17
100
AcDbEntity
  8
A-PROJ
100
AcDbLine
 10
2070.0
 20
4420.0
 30
0.0
 11
2596.666666666666
 21
4300.0
 31
0.0
  0
LWPOLYLINE
  5
19C
330
17
100
AcDbEntity
  8
A-PROJ
100
AcDbPolyline
 90
4
 70
1
 10
2691.666666666666
 20
4160.0
 10
3308.333333333334
 20
4160.0
 10
3308.333333333334
 20
4440.0
 10
2691.666666666666
 20
4440.0
  0
LINE
  5
19D
330
17
100
AcDbEntity
  8
A-PROJ
100
AcDbLine
 10
2736.666666666666
 20
4300.0
 30
0.0
 11
3263.333333333334
 21
4420.0
 31
0.0
  0
LINE
  5
19E
330
17
100
AcDbEntity
  8
A-PROJ
100
AcDbLine
 10
2736.666666666666
 20
4420.0
 30
0.0
 11
3263.333333333334
 21
4300.0
 31
0.0
  0
LWPOLYLINE
  5
19F
330
17
100
AcDbEntity
  8
A-PROJ
100
AcDbPolyline
 90
4
 70
1
 10
3358.333333333334
 20
4160.0
 10
3975.0
 20
4160.0
 10
3975.0
 20
4440.0
 10
3358.333333333334
 20
4440.0
  0
LINE
  5
1A0
330
17
100
AcDbEntity
  8
A-PROJ
100
AcDbLine
 10
3403.333333333334
 20
4300.0
 30
0.0
 11
3930.0
 21
4420.0
 31
0.0
  0
LINE
  5
1A1
330
17
100
AcDbEntity
  8
A-PROJ
100
AcDbLine
 10
3403.333333333334
 20
4420.0
 30
0.0
 11
3930.0
 21
4300.0
 31
0.0
  0
LWPOLYLINE
  5
1A2
330
17
100
AcDbEntity
  8
A-PROJ
100
AcDbPolyline
 90
4
 70
1
 10
4025.0
 20
4160.0
 10
4641.666666666666
 20
4160.0
 10
4641.666666666666
 20
4440.0
 10
4025.0
 20
4440.0
  0
LINE
  5
1A3
330
17
100
AcDbEntity
  8
A-PROJ
100
AcDbLine
 10
4070.0
 20
4300.0
 30
0.0
 11
4596.666666666666
 21
4420.0
 31
0.0
  0
LINE
  5
1A4
330
17
100
AcDbEntity
  8
A-PROJ
100
AcDbLine
 10
4070.0
 20
4420.0
 30
0.0
 11
4596.666666666666
 21
4300.0
 31
0.0
  0
LWPOLYLINE
  5
1A5
330
17
100
AcDbEntity
  8
A-PROJ
100
AcDbPolyline
 90
4
 70
1
 10
4691.666666666666
 20
4160.0
 10
5308.333333333334
 20
4160.0
 10
5308.333333333334
 20
4440.0
 10
4691.666666666666
 20
4440.0
  0
LINE
  5
1A6
330
17
100
AcDbEntity
  8
A-PROJ
100
AcDbLine
 10
4736.666666666666
 20
4300.0
 30
0.0
 11
5263.333333333334
 21
4420.0
 31
0.0
  0
LINE
  5
1A7
330
17
100
AcDbEntity
  8
A-PROJ
100
AcDbLine
 10
4736.666666666666
 20
4420.0
 30
0.0
 11
5263.333333333334
 21
4300.0
 31
0.0
  0
LWPOLYLINE
  5
1A8
330
17
100
AcDbEntity
  8
A-PROJ
100
AcDbPolyline
 90
4
 70
1
 10
5358.333333333334
 20
4160.0
 10
5975.0
 20
4160.0
 10
5975.0
 20
4440.0
 10
5358.333333333334
 20
4440.0
  0
LINE
  5
1A9
330
17
100
AcDbEntity
  8
A-PROJ
100
AcDbLine
 10
5403.333333333334
 20
4300.0
 30
0.0
 11
5930.0
 21
4420.0
 31
0.0
  0
LINE
  5
1AA
330
17
100
AcDbEntity
  8
A-PROJ
100
AcDbLine
 10
5403.333333333334
 20
4420.0
 30
0.0
 11
5930.0
 21
4300.0
 31
0.0
  0
LWPOLYLINE
  5
1AB
330
17
100
AcDbEntity
  8
A-OUTLINE
100
AcDbPolyline
 90
49
 70
0
 10
-7400.0
 20
6050.0
 10
-7091.666666666667
 20
5882.535774445065
 10
-6783.333333333333
 20
5753.503265869253
 10
-6475.0
 20
5655.2523374557495
 10
-6166.666666666667
 20
5581.403070701875
 10
-5858.333333333334
 20
5526.68052989705
 10
-5550.0
 20
5486.7645263671875
 10
-5241.666666666667
 20
5458.1536682108845
 10
-4933.333333333334
 20
5438.042981252858
 10
-4625.0
 20
5424.214386940002
 10
-4316.666666666667
 20
5414.939322905503
 10
-4008.3333333333335
 20
5408.892791926398
 10
-3700.0
 20
5405.078125
 10
-3391.666666666667
 20
5402.761744264603
 10
-3083.333333333334
 20
5401.417211489858
 10
-2775.0
 20
5400.677847862244
 10
-2466.666666666667
 20
5400.297210791038
 10
-2158.333333333334
 20
5400.116713460199
 10
-1850.0
 20
5400.0396728515625
 10
-1541.666666666667
 20
5400.011071964765
 10
-1233.333333333334
 20
5400.002321959305
 10
-925.0
 20
5400.000309944153
 10
-616.666666666667
 20
5400.0000181403075
 10
-308.33333333333394
 20
5400.000000141721
 10
0.0
 20
5400.0
 10
308.33333333333303
 20
5400.000000141721
 10
616.6666666666661
 20
5400.0000181403075
 10
925.0
 20
5400.000309944153
 10
1233.3333333333321
 20
5400.002321959305
 10
1541.666666666666
 20
5400.011071964765
 10
1850.0
 20
5400.0396728515625
 10
2158.333333333332
 20
5400.116713460199
 10
2466.666666666666
 20
5400.297210791038
 10
2775.0
 20
5400.677847862244
 10
3083.333333333332
 20
5401.417211489858
 10
3391.666666666666
 20
5402.761744264603
 10
3700.0
 20
5405.078125
 10
4008.333333333332
 20
5408.892791926398
 10
4316.666666666666
 20
5414.939322905503
 10
4625.0
 20
5424.214386940002
 10
4933.333333333332
 20
5438.042981252857
 10
5241.666666666666
 20
5458.1536682108845
 10
5550.0
 20
5486.7645263671875
 10
5858.333333333332
 20
5526.68052989705
 10
6166.666666666666
 20
5581.403070701875
 10
6475.0
 20
5655.2523374557495
 10
6783.333333333332
 20
5753.503265869252
 10
7091.666666666666
 20
5882.535774445065
 10
7400.0
 20
6050.0
1001
GUJIAN_SOURCE
1000
268530ca-e098-5c98-88a2-4e3e3c93a799
1000
demo
  0
LINE
  5
1AC
330
17
100
AcDbEntity
  8
A-OUTLINE
100
AcDbLine
 10
-3600.0
 20
9000.0
 30
0.0
 11
3600.0
 21
9000.0
 31
0.0
1001
GUJIAN_SOURCE
1000
528508c5-e906-51af-a5ce-83d479e7f61f
1000
demo
  0
LWPOLYLINE
  5
1AD
330
17
100
AcDbEntity
  8
A-ROOF
100
AcDbPolyline
 90
4
 70
0
 10
-7400.0
 20
6050.0
 10
-3600.0
 20
9000.0
 10
3600.0
 20
9000.0
 10
7400.0
 20
6050.0
  0
LWPOLYLINE
  5
1AE
330
17
100
AcDbEntity
  8
A-PROJ
100
AcDbPolyline
 90
41
 70
0
 10
-3980.0
 20
8938.546676470623
 10
-3781.0
 20
8938.544123801987
 10
-3582.0
 20
8938.542261821003
 10
-3383.0
 20
8938.540927196564
 10
-3184.0
 20
8938.539989083694
 10
-2985.0
 20
8938.539344014614
 10
-2786.0
 20
8938.538911356249
 10
-2587.0
 20
8938.538629300814
 10
-2388.0
 20
8938.538451356215
 10
-2189.0
 20
8938.538343302891
 10
-1990.0
 20
8938.538280583825
 10
-1791.0
 20
8938.538246094375
 10
-1592.0
 20
8938.538228338615
 10
-1393.0
 20
8938.538219918868
 10
-1194.0
 20
8938.538216325118
 10
-995.0
 20
8938.538214990958
 10
-796.0
 20
8938.538214582793
 10
-597.0
 20
8938.538214488937
 10
-398.0
 20
8938.538214475326
 10
-199.0
 20
8938.538214474487
 10
0.0
 20
8938.53821447448
 10
199.0
 20
8938.538214474487
 10
398.0
 20
8938.538214475326
 10
597.0
 20
8938.538214488937
 10
796.0
 20
8938.538214582793
 10
995.0
 20
8938.538214990958
 10
1194.0
 20
8938.538216325118
 10
1393.0
 20
8938.538219918868
 10
1592.0
 20
8938.538228338615
 10
1791.0
 20
8938.538246094375
 10
1990.0
 20
8938.538280583825
 10
2189.0
 20
8938.538343302891
 10
2388.0
 20
8938.538451356215
 10
2587.0
 20
8938.538629300814
 10
2786.0
 20
8938.538911356249
 10
2985.0
 20
8938.539344014614
 10
3184.0
 20
8938.539989083694
 10
3383.0
 20
8938.540927196564
 10
3582.0
 20
8938.542261821003
 10
3781.0
 20
8938.544123801987
 10
3980.0
 20
8938.546676470623
1001
GUJIAN_SOURCE
1000
fc2f8704-77f3-5a6f-8d21-662c7000b674
1000
demo
  0
LWPOLYLINE
  5
1AF
330
17
100
AcDbEntity
  8
A-PROJ
100
AcDbPolyline
 90
41
 70
0
 10
-4360.0
 20
8743.030672356103
 10
-4142.0
 20
8742.992008216532
 10
-3924.0
 20
8742.963805616491
 10
-3706.0
 20
8742.943590652114
 10
-3488.0
 20
8742.92938147257
 10
-3270.0
 20
8742.919610897361
 10
-3052.0
 20
8742.913057613008
 10
-2834.0
 20
8742.90878544446
 10
-2616.0
 20
8742.906090196537
 10
-2398.0
 20
8742.90445356076
 10
-2180.0
 20
8742.90350358289
 10
-1962.0
 20
8742.902981186486
 10
-1744.0
 20
8742.902712247862
 10
-1526.0
 20
8742.902584717709
 10
-1308.0
 20
8742.902530284768
 10
-1090.0
 20
8742.902510076849
 10
-872.0
 20
8742.902503894544
 10
-654.0
 20
8742.902502472956
 10
-436.0
 20
8742.902502266783
 10
-218.0
 20
8742.902502254066
 10
0.0
 20
8742.902502253966
 10
218.0
 20
8742.902502254066
 10
436.0
 20
8742.902502266783
 10
654.0
 20
8742.902502472956
 10
872.0
 20
8742.902503894544
 10
1090.0
 20
8742.902510076849
 10
1308.0
 20
8742.902530284768
 10
1526.0
 20
8742.902584717709
 10
1744.0
 20
8742.902712247862
 10
1962.0
 20
8742.902981186486
 10
2180.0
 20
8742.90350358289
 10
2398.0
 20
8742.90445356076
 10
2616.0
 20
8742.906090196537
 10
2834.0
 20
8742.90878544446
 10
3052.0
 20
8742.913057613008
 10
3270.0
 20
8742.919610897361
 10
3488.0
 20
8742.92938147257
 10
3706.0
 20
8742.943590652114
 10
3924.0
 20
8742.963805616491
 10
4142.0
 20
8742.992008216532
 10
4360.0
 20
8743.030672356103
1001
GUJIAN_SOURCE
1000
fc2f8704-77f3-5a6f-8d21-662c7000b674
1000
demo
  0
LWPOLYLINE
  5
1B0
330
17
100
AcDbEntity
  8
A-PROJ
100
AcDbPolyline
 90
41
 70
0
 10
-4740.0
 20
8483.795348703876
 10
-4503.0
 20
8483.561128101344
 10
-4266.0
 20
8483.39028167755
 10
-4029.0
 20
8483.267822955098
 10
-3792.0
 20
8483.181746227896
 10
-3555.0
 20
8483.12255779029
 10
-3318.0
 20
8483.082859138605
 10
-3081.0
 20
8483.056979087929
 10
-2844.0
 20
8483.040651746895
 10
-2607.0
 20
8483.030737293298
 10
-2370.0
 20
8483.02498249332
 10
-2133.0
 20
8483.021817907176
 10
-1896.0
 20
8483.020188723976
 10
-1659.0
 20
8483.01941616859
 10
-1422.0
 20
8483.019086423343
 10
-1185.0
 20
8483.0189640073
 10
-948.0
 20
8483.018926555977
 10
-711.0
 20
8483.018917944253
 10
-474.0
 20
8483.01891669529
 10
-237.0
 20
8483.018916618252
 10
0.0
 20
8483.018916617646
 10
237.0
 20
8483.018916618252
 10
474.0
 20
8483.01891669529
 10
711.0
 20
8483.018917944253
 10
948.0
 20
8483.018926555977
 10
1185.0
 20
8483.0189640073
 10
1422.0
 20
8483.019086423343
 10
1659.0
 20
8483.01941616859
 10
1896.0
 20
8483.020188723976
 10
2133.0
 20
8483.021817907176
 10
2370.0
 20
8483.02498249332
 10
2607.0
 20
8483.030737293298
 10
2844.0
 20
8483.040651746895
 10
3081.0
 20
8483.056979087929
 10
3318.0
 20
8483.082859138605
 10
3555.0
 20
8483.12255779029
 10
3792.0
 20
8483.181746227896
 10
4029.0
 20
8483.267822955098
 10
4266.0
 20
8483.39028167755
 10
4503.0
 20
8483.561128101344
 10
4740.0
 20
8483.795348703876
1001
GUJIAN_SOURCE
1000
fc2f8704-77f3-5a6f-8d21-662c7000b674
1000
demo
  0
LWPOLYLINE
  5
1B1
330
17
100
AcDbEntity
  8
A-PROJ
100
AcDbPolyline
 90
41
 70
0
 10
-5120.0
 20
8173.205234896504
 10
-4864.0
 20
8172.252696175756
 10
-4608.0
 20
8171.557890372141
 10
-4352.0
 20
8171.059869815585
 10
-4096.0
 20
8170.709809168791
 10
-3840.0
 20
8170.469099009088
 10
-3584.0
 20
8170.30765077404
 10
-3328.0
 20
8170.2024006376405
 10
-3072.0
 20
8170.135999883934
 10
-2816.0
 20
8170.095679344902
 10
-2560.0
 20
8170.072275469453
 10
-2304.0
 20
8170.059405590357
 10
-2048.0
 20
8170.052779955955
 10
-1792.0
 20
8170.0496380934965
 10
-1536.0
 20
8170.048297070917
 10
-1280.0
 20
8170.047799223929
 10
-1024.0
 20
8170.04764691523
 10
-768.0
 20
8170.047611892691
 10
-512.0
 20
8170.047606813349
 10
-256.0
 20
8170.047606500053
 10
0.0
 20
8170.0476064975865
 10
256.0
 20
8170.047606500053
 10
512.0
 20
8170.047606813349
 10
768.0
 20
8170.047611892691
 10
1024.0
 20
8170.04764691523
 10
1280.0
 20
8170.047799223929
 10
1536.0
 20
8170.048297070917
 10
1792.0
 20
8170.0496380934965
 10
2048.0
 20
8170.052779955955
 10
2304.0
 20
8170.059405590357
 10
2560.0
 20
8170.072275469453
 10
2816.0
 20
8170.095679344902
 10
3072.0
 20
8170.135999883934
 10
3328.0
 20
8170.2024006376405
 10
3584.0
 20
8170.30765077404
 10
3840.0
 20
8170.469099009088
 10
4096.0
 20
8170.709809168791
 10
4352.0
 20
8171.059869815585
 10
4608.0
 20
8171.557890372141
 10
4864.0
 20
8172.252696175756
 10
5120.0
 20
8173.205234896504
1001
GUJIAN_SOURCE
1000
fc2f8704-77f3-5a6f-8d21-662c7000b674
1000
demo
  0
LWPOLYLINE
  5
1B2
330
17
100
AcDbEntity
  8
A-PROJ
100
AcDbPolyline
 90
41
 70
0
 10
-5500.0
 20
7820.743590307237
 10
-5225.0
 20
7817.672717862595
 10
-4950.0
 20
7815.432745932614
 10
-4675.0
 20
7813.8271864202525
 10
-4400.0
 20
7812.698632199013
 10
-4125.0
 20
7811.922611045776
 10
-3850.0
 20
7811.402120985428
 10
-3575.0
 20
7811.0628069642535
 10
-3300.0
 20
7810.848738769
 10
-3025.0
 20
7810.718750108624
 10
-2750.0
 20
7810.643298775623
 10
-2475.0
 20
7810.601807803946
 10
-2200.0
 20
7810.580447540403
 10
-1925.0
 20
7810.570318546546
 10
-1650.0
 20
7810.565995247981
 10
-1375.0
 20
7810.564390248032
 10
-1100.0
 20
7810.563899222757
 10
-825.0
 20
7810.563786314223
 10
-550.0
 20
7810.563769939025
 10
-275.0
 20
7810.563768928996
 10
0.0
 20
7810.563768921043
 10
275.0
 20
7810.563768928996
 10
550.0
 20
7810.563769939025
 10
825.0
 20
7810.563786314223
 10
1100.0
 20
7810.563899222757
 10
1375.0
 20
7810.564390248032
 10
1650.0
 20
7810.565995247981
 10
1925.0
 20
7810.570318546546
 10
2200.0
 20
7810.580447540403
 10
2475.0
 20
7810.601807803946
 10
2750.0
 20
7810.643298775623
 10
3025.0
 20
7810.718750108624
 10
3300.0
 20
7810.848738769
 10
3575.0
 20
7811.0628069642535
 10
3850.0
 20
7811.402120985428
 10
4125.0
 20
7811.922611045776
 10
4400.0
 20
7812.698632199013
 10
4675.0
 20
7813.8271864202525
 10
4950.0
 20
7815.432745932614
 10
5225.0
 20
7817.672717862595
 10
5500.0
 20
7820.743590307237
1001
GUJIAN_SOURCE
1000
fc2f8704-77f3-5a6f-8d21-662c7000b674
1000
demo
  0
LWPOLYLINE
  5
1B3
330
17
100
AcDbEntity
  8
A-PROJ
100
AcDbPolyline
 90
41
 70
0
 10
-5880.0
 20
7437.143230684786
 10
-5586.0
 20
7428.672751654019
 10
-5292.0
 20
7422.494170288478
 10
-4998.0
 20
7418.065507611253
 10
-4704.0
 20
7414.952582851786
 10
-4410.0
 20
7412.812060565553
 10
-4116.0
 20
7411.376377312221
 10
-3822.0
 20
7410.44043733001
 10
-3528.0
 20
7409.849966643997
 10
-3234.0
 20
7409.491415046102
 10
-2940.0
 20
7409.283295384494
 10
-2646.0
 20
7409.168849600147
 10
-2352.0
 20
7409.109930948298
 10
-2058.0
 20
7409.08199184252
 10
-1764.0
 20
7409.070066759175
 10
-1470.0
 20
7409.06563963996
 10
-1176.0
 20
7409.064285230302
 10
-882.0
 20
7409.063973791324
 10
-588.0
 20
7409.06392862313
 10
-294.0
 20
7409.063925837137
 10
0.0
 20
7409.0639258152
 10
294.0
 20
7409.063925837137
 10
588.0
 20
7409.06392862313
 10
882.0
 20
7409.063973791324
 10
1176.0
 20
7409.064285230302
 10
1470.0
 20
7409.06563963996
 10
1764.0
 20
7409.070066759175
 10
2058.0
 20
7409.08199184252
 10
2352.0
 20
7409.109930948298
 10
2646.0
 20
7409.168849600147
 10
2940.0
 20
7409.283295384494
 10
3234.0
 20
7409.491415046102
 10
3528.0
 20
7409.849966643997
 10
3822.0
 20
7410.44043733001
 10
4116.0
 20
7411.376377312221
 10
4410.0
 20
7412.812060565553
 10
4704.0
 20
7414.952582851786
 10
4998.0
 20
7418.065507611253
 10
5292.0
 20
7422.494170288478
 10
5586.0
 20
7428.672751654019
 10
5880.0
 20
7437.143230684786
1001
GUJIAN_SOURCE
1000
fc2f8704-77f3-5a6f-8d21-662c7000b674
1000
demo
  0
LWPOLYLINE
  5
1B4
330
17
100
AcDbEntity
  8
A-PROJ
100
AcDbPolyline
 90
41
 70
0
 10
-6260.0
 20
7038.004138684192
 10
-5947.0
 20
7017.153114572034
 10
-5634.0
 20
7001.9438508971125
 10
-5321.0
 20
6991.042206263792
 10
-5008.0
 20
6983.379396523844
 10
-4695.0
 20
6978.110263380282
 10
-4382.0
 20
6974.576169732933
 10
-4069.0
 20
6972.272249604481
 10
-3756.0
 20
6970.818740485709
 10
-3443.0
 20
6969.936125938644
 10
-3130.0
 20
6969.423816296338
 10
-2817.0
 20
6969.142095298002
 10
-2504.0
 20
6968.997060498211
 10
-2191.0
 20
6968.928285288906
 10
-1878.0
 20
6968.898930372913
 10
-1565.0
 20
6968.888032527683
 10
-1252.0
 20
6968.88469849801
 10
-939.0
 20
6968.883931856407
 10
-626.0
 20
6968.883820669884
 10
-313.0
 20
6968.883813811852
 10
0.0
 20
6968.883813757851
 10
313.0
 20
6968.883813811852
 10
626.0
 20
6968.883820669884
 10
939.0
 20
6968.883931856407
 10
1252.0
 20
6968.88469849801
 10
1565.0
 20
6968.888032527683
 10
1878.0
 20
6968.898930372913
 10
2191.0
 20
6968.928285288906
 10
2504.0
 20
6968.997060498211
 10
2817.0
 20
6969.142095298002
 10
3130.0
 20
6969.423816296338
 10
3443.0
 20
6969.936125938644
 10
3756.0
 20
6970.818740485709
 10
4069.0
 20
6972.272249604481
 10
4382.0
 20
6974.576169732933
 10
4695.0
 20
6978.110263380282
 10
5008.0
 20
6983.379396523844
 10
5321.0
 20
6991.042206263792
 10
5634.0
 20
7001.9438508971125
 10
5947.0
 20
7017.153114572034
 10
6260.0
 20
7038.004138684192
1001
GUJIAN_SOURCE
1000
fc2f8704-77f3-5a6f-8d21-662c7000b674
1000
demo
  0
LWPOLYLINE
  5
1B5
330
17
100
AcDbEntity
  8
A-PROJ
100
AcDbPolyline
 90
41
 70
0
 10
-6640.0
 20
6648.49142424611
 10
-6308.0
 20
6601.473932765609
 10
-5976.0
 20
6567.178186838995
 10
-5644.0
 20
6542.595797939846
 10
-5312.0
 20
6525.316738181117
 10
-4980.0
 20
6513.435239154765
 10
-4648.0
 20
6505.466123726106
 10
-4316.0
 20
6500.270957079684
 10
-3984.0
 20
6496.993403313449
 10
-3652.0
 20
6495.0031738780035
 10
-3320.0
 20
6493.847954157719
 10
-2988.0
 20
6493.212694490476
 10
-2656.0
 20
6492.885651922836
 10
-2324.0
 20
6492.730568997406
 10
-1992.0
 20
6492.664375869183
 10
-1660.0
 20
6492.639802047654
 10
-1328.0
 20
6492.632284061443
 10
-996.0
 20
6492.6305553422735
 10
-664.0
 20
6492.630304625026
 10
-332.0
 20
6492.630289160679
 10
0.0
 20
6492.630289038912
 10
332.0
 20
6492.630289160679
 10
664.0
 20
6492.630304625026
 10
996.0
 20
6492.6305553422735
 10
1328.0
 20
6492.632284061443
 10
1660.0
 20
6492.639802047654
 10
1992.0
 20
6492.664375869183
 10
2324.0
 20
6492.730568997406
 10
2656.0
 20
6492.885651922836
 10
2988.0
 20
6493.212694490476
 10
3320.0
 20
6493.847954157719
 10
3652.0
 20
6495.0031738780035
 10
3984.0
 20
6496.993403313449
 10
4316.0
 20
6500.270957079684
 10
4648.0
 20
6505.466123726106
 10
4980.0
 20
6513.435239154765
 10
5312.0
 20
6525.316738181117
 10
5644.0
 20
6542.595797939846
 10
5976.0
 20
6567.178186838995
 10
6308.0
 20
6601.473932765609
 10
6640.0
 20
6648.49142424611
1001
GUJIAN_SOURCE
1000
fc2f8704-77f3-5a6f-8d21-662c7000b674
1000
demo
  0
LWPOLYLINE
  5
1B6
330
17
100
AcDbEntity
  8
A-PROJ
100
AcDbPolyline
 90
41
 70
0
 10
-7020.0
 20
6310.042252551094
 10
-6669.0
 20
6211.209645572812
 10
-6318.0
 20
6139.118645575553
 10
-5967.0
 20
6087.445502152653
 10
-5616.0
 20
6051.124242376449
 10
-5265.0
 20
6026.148866476797
 10
-4914.0
 20
6009.397473998704
 10
-4563.0
 20
5998.477030410908
 10
-4212.0
 20
5991.587484137201
 10
-3861.0
 20
5987.40394398233
 10
-3510.0
 20
5984.975626924287
 10
-3159.0
 20
5983.640286244791
 10
-2808.0
 20
5982.952829969799
 10
-2457.0
 20
5982.626839591847
 10
-2106.0
 20
5982.487699046054
 10
-1755.0
 20
5982.436043911578
 10
-1404.0
 20
5982.420240810371
 10
-1053.0
 20
5982.416606975029
 10
-702.0
 20
5982.416079957563
 10
-351.0
 20
5982.416047450901
 10
0.0
 20
5982.416047194943
 10
351.0
 20
5982.416047450901
 10
702.0
 20
5982.416079957563
 10
1053.0
 20
5982.416606975029
 10
1404.0
 20
5982.420240810371
 10
1755.0
 20
5982.436043911578
 10
2106.0
 20
5982.487699046054
 10
2457.0
 20
5982.626839591847
 10
2808.0
 20
5982.952829969799
 10
3159.0
 20
5983.640286244791
 10
3510.0
 20
5984.975626924287
 10
3861.0
 20
5987.40394398233
 10
4212.0
 20
5991.587484137201
 10
4563.0
 20
5998.477030410908
 10
4914.0
 20
6009.397473998704
 10
5265.0
 20
6026.148866476797
 10
5616.0
 20
6051.124242376449
 10
5967.0
 20
6087.445502152653
 10
6318.0
 20
6139.118645575553
 10
6669.0
 20
6211.209645572812
 10
7020.0
 20
6310.042252551094
1001
GUJIAN_SOURCE
1000
fc2f8704-77f3-5a6f-8d21-662c7000b674
1000
demo
  0
LINE
  5
1B7
330
17
100
AcDbEntity
  8
A-PROJ
100
AcDbLine
 10
-3512.4324324324325
 20
8900.0
 30
0.0
 11
-7220.0
 21
6007.081087453119
 31
0.0
1001
GUJIAN_SOURCE
1000
a05d3dec-23cd-58d4-bb3d-d4b5b0e4ddd2
1000
demo
  0
LINE
  5
1B8
330
17
100
AcDbEntity
  8
A-PROJ
100
AcDbLine
 10
-3317.2972972972975
 20
8900.0
 30
0.0
 11
-6818.888888888889
 21
5826.679487300588
 31
0.0
1001
GUJIAN_SOURCE
1000
a05d3dec-23cd-58d4-bb3d-d4b5b0e4ddd2
1000
demo
  0
LINE
  5
1B9
330
17
100
AcDbEntity
  8
A-PROJ
100
AcDbLine
 10
-3122.162162162162
 20
8900.0
 30
0.0
 11
-6417.777777777777
 21
5699.874478951146
 31
0.0
1001
GUJIAN_SOURCE
1000
a05d3dec-23cd-58d4-bb3d-d4b5b0e4ddd2
1000
demo
  0
LINE
  5
1BA
330
17
100
AcDbEntity
  8
A-PROJ
100
AcDbLine
 10
-2927.027027027027
 20
8900.0
 30
0.0
 11
-6016.666666666667
 21
5612.680291056795
 31
0.0
1001
GUJIAN_SOURCE
1000
a05d3dec-23cd-58d4-bb3d-d4b5b0e4ddd2
1000
demo
  0
LINE
  5
1BB
330
17
100
AcDbEntity
  8
A-PROJ
100
AcDbLine
 10
-2731.891891891892
 20
8900.0
 30
0.0
 11
-5615.555555555556
 21
5554.197725305015
 31
0.0
1001
GUJIAN_SOURCE
1000
a05d3dec-23cd-58d4-bb3d-d4b5b0e4ddd2
1000
demo
  0
LINE
  5
1BC
330
17
100
AcDbEntity
  8
A-PROJ
100
AcDbLine
 10
-2536.7567567567567
 20
8900.0
 30
0.0
 11
-5214.444444444444
 21
5516.072204635784
 31
0.0
1001
GUJIAN_SOURCE
1000
a05d3dec-23cd-58d4-bb3d-d4b5b0e4ddd2
1000
demo
  0
LINE
  5
1BD
330
17
100
AcDbEntity
  8
A-PROJ
100
AcDbLine
 10
-2341.621621621622
 20
8900.0
 30
0.0
 11
-4813.333333333334
 21
5492.019377775034
 31
0.0
1001
GUJIAN_SOURCE
1000
a05d3dec-23cd-58d4-bb3d-d4b5b0e4ddd2
1000
demo
  0
LINE
  5
1BE
330
17
100
AcDbEntity
  8
A-PROJ
100
AcDbLine
 10
-2146.4864864864867
 20
8900.0
 30
0.0
 11
-4412.222222222223
 21
5477.413776330117
 31
0.0
1001
GUJIAN_SOURCE
1000
a05d3dec-23cd-58d4-bb3d-d4b5b0e4ddd2
1000
demo
  0
LINE
  5
1BF
330
17
100
AcDbEntity
  8
A-PROJ
100
AcDbLine
 10
-1951.3513513513512
 20
8900.0
 30
0.0
 11
-4011.1111111111113
 21
5468.936020692853
 31
0.0
1001
GUJIAN_SOURCE
1000
a05d3dec-23cd-58d4-bb3d-d4b5b0e4ddd2
1000
demo
  0
LINE
  5
1C0
330
17
100
AcDbEntity
  8
A-PROJ
100
AcDbLine
 10
-1756.2162162162163
 20
8900.0
 30
0.0
 11
-3610.0
 21
5464.274070995728
 31
0.0
1001
GUJIAN_SOURCE
1000
a05d3dec-23cd-58d4-bb3d-d4b5b0e4ddd2
1000
demo
  0
LINE
  5
1C1
330
17
100
AcDbEntity
  8
A-PROJ
100
AcDbLine
 10
-1561.081081081081
 20
8900.0
 30
0.0
 11
-3208.888888888889
 21
5461.874019366805
 31
0.0
1001
GUJIAN_SOURCE
1000
a05d3dec-23cd-58d4-bb3d-d4b5b0e4ddd2
1000
demo
  0
LINE
  5
1C2
330
17
100
AcDbEntity
  8
A-PROJ
100
AcDbLine
 10
-1365.9459459459463
 20
8900.0
 30
0.0
 11
-2807.7777777777783
 21
5460.735919728945
 31
0.0
1001
GUJIAN_SOURCE
1000
a05d3dec-23cd-58d4-bb3d-d4b5b0e4ddd2
1000
demo
  0
LINE
  5
1C3
330
17
100
AcDbEntity
  8
A-PROJ
100
AcDbLine
 10
-1170.810810810811
 20
8900.0
 30
0.0
 11
-2406.666666666667
 21
5460.250151388867
 31
0.0
1001
GUJIAN_SOURCE
1000
a05d3dec-23cd-58d4-bb3d-d4b5b0e4ddd2
1000
demo
  0
LINE
  5
1C4
330
17
100
AcDbEntity
  8
A-PROJ
100
AcDbLine
 10
-975.6756756756756
 20
8900.0
 30
0.0
 11
-2005.5555555555557
 21
5460.069812661663
 31
0.0
1001
GUJIAN_SOURCE
1000
a05d3dec-23cd-58d4-bb3d-d4b5b0e4ddd2
1000
demo
  0
LINE
  5
1C5
330
17
100
AcDbEntity
  8
A-PROJ
100
AcDbLine
 10
-780.540540540541
 20
8900.0
 30
0.0
 11
-1604.4444444444453
 21
5460.014640776303
 31
0.0
1001
GUJIAN_SOURCE
1000
a05d3dec-23cd-58d4-bb3d-d4b5b0e4ddd2
1000
demo
  0
LINE
  5
1C6
330
17
100
AcDbEntity
  8
A-PROJ
100
AcDbLine
 10
-585.4054054054056
 20
8900.0
 30
0.0
 11
-1203.333333333334
 21
5460.001954307725
 31
0.0
1001
GUJIAN_SOURCE
1000
a05d3dec-23cd-58d4-bb3d-d4b5b0e4ddd2
1000
demo
  0
LINE
  5
1C7
330
17
100
AcDbEntity
  8
A-PROJ
100
AcDbLine
 10
-390.2702702702705
 20
8900.0
 30
0.0
 11
-802.2222222222226
 21
5460.000114381065
 31
0.0
1001
GUJIAN_SOURCE
1000
a05d3dec-23cd-58d4-bb3d-d4b5b0e4ddd2
1000
demo
  0
LINE
  5
1C8
330
17
100
AcDbEntity
  8
A-PROJ
100
AcDbLine
 10
-195.13513513513524
 20
8900.0
 30
0.0
 11
-401.1111111111113
 21
5460.000000893602
 31
0.0
1001
GUJIAN_SOURCE
1000
a05d3dec-23cd-58d4-bb3d-d4b5b0e4ddd2
1000
demo
  0
LINE
  5
1C9
330
17
100
AcDbEntity
  8
A-PROJ
100
AcDbLine
 10
0.0
 20
8900.0
 30
0.0
 11
0.0
 21
5460.0
 31
0.0
1001
GUJIAN_SOURCE
1000
a05d3dec-23cd-58d4-bb3d-d4b5b0e4ddd2
1000
demo
  0
LINE
  5
1CA
330
17
100
AcDbEntity
  8
A-PROJ
100
AcDbLine
 10
195.1351351351348
 20
8900.0
 30
0.0
 11
401.1111111111104
 21
5460.000000893602
 31
0.0
1001
GUJIAN_SOURCE
1000
a05d3dec-23cd-58d4-bb3d-d4b5b0e4ddd2
1000
demo
  0
LINE
  5
1CB
330
17
100
AcDbEntity
  8
A-PROJ
100
AcDbLine
 10
390.27027027027003
 20
8900.0
 30
0.0
 11
802.2222222222217
 21
5460.000114381065
 31
0.0
1001
GUJIAN_SOURCE
1000
a05d3dec-23cd-58d4-bb3d-d4b5b0e4ddd2
1000
demo
  0
LINE
  5
1CC
330
17
100
AcDbEntity
  8
A-PROJ
100
AcDbLine
 10
585.4054054054047
 20
8900.0
 30
0.0
 11
1203.3333333333321
 21
5460.001954307725
 31
0.0
1001
GUJIAN_SOURCE
1000
a05d3dec-23cd-58d4-bb3d-d4b5b0e4ddd2
1000
demo
  0
LINE
  5
1CD
330
17
100
AcDbEntity
  8
A-PROJ
100
AcDbLine
 10
780.5405405405401
 20
8900.0
 30
0.0
 11
1604.4444444444434
 21
5460.014640776303
 31
0.0
1001
GUJIAN_SOURCE
1000
a05d3dec-23cd-58d4-bb3d-d4b5b0e4ddd2
1000
demo
  0
LINE
  5
1CE
330
17
100
AcDbEntity
  8
A-PROJ
100
AcDbLine
 10
975.6756756756753
 20
8900.0
 30
0.0
 11
2005.5555555555547
 21
5460.069812661663
 31
0.0
1001
GUJIAN_SOURCE
1000
a05d3dec-23cd-58d4-bb3d-d4b5b0e4ddd2
1000
demo
  0
LINE
  5
1CF
330
17
100
AcDbEntity
  8
A-PROJ
100
AcDbLine
 10
1170.8108108108106
 20
8900.0
 30
0.0
 11
2406.666666666666
 21
5460.250151388867
 31
0.0
1001
GUJIAN_SOURCE
1000
a05d3dec-23cd-58d4-bb3d-d4b5b0e4ddd2
1000
demo
  0
LINE
  5
1D0
330
17
100
AcDbEntity
  8
A-PROJ
100
AcDbLine
 10
1365.9459459459456
 20
8900.0
 30
0.0
 11
2807.7777777777774
 21
5460.735919728945
 31
0.0
1001
GUJIAN_SOURCE
1000
a05d3dec-23cd-58d4-bb3d-d4b5b0e4ddd2
1000
demo
  0
LINE
  5
1D1
330
17
100
AcDbEntity
  8
A-PROJ
100
AcDbLine
 10
1561.081081081081
 20
8900.0
 30
0.0
 11
3208.8888888888887
 21
5461.874019366805
 31
0.0
1001
GUJIAN_SOURCE
1000
a05d3dec-23cd-58d4-bb3d-d4b5b0e4ddd2
1000
demo
  0
LINE
  5
1D2
330
17
100
AcDbEntity
  8
A-PROJ
100
AcDbLine
 10
1756.2162162162163
 20
8900.0
 30
0.0
 11
3610.0
 21
5464.274070995728
 31
0.0
1001
GUJIAN_SOURCE
1000
a05d3dec-23cd-58d4-bb3d-d4b5b0e4ddd2
1000
demo
  0
LINE
  5
1D3
330
17
100
AcDbEntity
  8
A-PROJ
100
AcDbLine
 10
1951.3513513513506
 20
8900.0
 30
0.0
 11
4011.1111111111095
 21
5468.936020692853
 31
0.0
1001
GUJIAN_SOURCE
1000
a05d3dec-23cd-58d4-bb3d-d4b5b0e4ddd2
1000
demo
  0
LINE
  5
1D4
330
17
100
AcDbEntity
  8
A-PROJ
100
AcDbLine
 10
2146.486486486486
 20
8900.0
 30
0.0
 11
4412.222222222221
 21
5477.413776330117
 31
0.0
1001
GUJIAN_SOURCE
1000
a05d3dec-23cd-58d4-bb3d-d4b5b0e4ddd2
1000
demo
  0
LINE
  5
1D5
330
17
100
AcDbEntity
  8
A-PROJ
100
AcDbLine
 10
2341.621621621621
 20
8900.0
 30
0.0
 11
4813.333333333332
 21
5492.019377775034
 31
0.0
1001
GUJIAN_SOURCE
1000
a05d3dec-23cd-58d4-bb3d-d4b5b0e4ddd2
1000
demo
  0
LINE
  5
1D6
330
17
100
AcDbEntity
  8
A-PROJ
100
AcDbLine
 10
2536.756756756756
 20
8900.0
 30
0.0
 11
5214.444444444443
 21
5516.072204635784
 31
0.0
1001
GUJIAN_SOURCE
1000
a05d3dec-23cd-58d4-bb3d-d4b5b0e4ddd2
1000
demo
  0
LINE
  5
1D7
330
17
100
AcDbEntity
  8
A-PROJ
100
AcDbLine
 10
2731.891891891891
 20
8900.0
 30
0.0
 11
5615.555555555555
 21
5554.197725305015
 31
0.0
1001
GUJIAN_SOURCE
1000
a05d3dec-23cd-58d4-bb3d-d4b5b0e4ddd2
1000
demo
  0
LINE
  5
1D8
330
17
100
AcDbEntity
  8
A-PROJ
100
AcDbLine
 10
2927.0270270270266
 20
8900.0
 30
0.0
 11
6016.666666666666
 21
5612.680291056795
 31
0.0
1001
GUJIAN_SOURCE
1000
a05d3dec-23cd-58d4-bb3d-d4b5b0e4ddd2
1000
demo
  0
LINE
  5
1D9
330
17
100
AcDbEntity
  8
A-PROJ
100
AcDbLine
 10
3122.162162162162
 20
8900.0
 30
0.0
 11
6417.777777777777
 21
5699.874478951146
 31
0.0
1001
GUJIAN_SOURCE
1000
a05d3dec-23cd-58d4-bb3d-d4b5b0e4ddd2
1000
demo
  0
LINE
  5
1DA
330
17
100
AcDbEntity
  8
A-PROJ
100
AcDbLine
 10
3317.2972972972975
 20
8900.0
 30
0.0
 11
6818.888888888889
 21
5826.679487300588
 31
0.0
1001
GUJIAN_SOURCE
1000
a05d3dec-23cd-58d4-bb3d-d4b5b0e4ddd2
1000
demo
  0
LINE
  5
1DB
330
17
100
AcDbEntity
  8
A-PROJ
100
AcDbLine
 10
3512.4324324324325
 20
8900.0
 30
0.0
 11
7220.0
 21
6007.081087453119
 31
0.0
1001
GUJIAN_SOURCE
1000
a05d3dec-23cd-58d4-bb3d-d4b5b0e4ddd2
1000
demo
  0
CIRCLE
  5
1DC
330
17
100
AcDbEntity
  8
A-ROOF
100
AcDbCircle
 10
-7220.0
 20
5907.081087453119
 30
0.0
 40
55.0
1001
GUJIAN_SOURCE
1000
a05d3dec-23cd-58d4-bb3d-d4b5b0e4ddd2
1000
demo
  0
CIRCLE
  5
1DD
330
17
100
AcDbEntity
  8
A-ROOF
100
AcDbCircle
 10
-6859.0
 20
5742.047127356039
 30
0.0
 40
55.0
1001
GUJIAN_SOURCE
1000
a05d3dec-23cd-58d4-bb3d-d4b5b0e4ddd2
1000
demo
  0
CIRCLE
  5
1DE
330
17
100
AcDbEntity
  8
A-ROOF
100
AcDbCircle
 10
-6498.0
 20
5621.6671881774555
 30
0.0
 40
55.0
1001
GUJIAN_SOURCE
1000
a05d3dec-23cd-58d4-bb3d-d4b5b0e4ddd2
1000
demo
  0
CIRCLE
  5
1DF
330
17
100
AcDbEntity
  8
A-ROOF
100
AcDbCircle
 10
-6137.0
 20
5535.381662069461
 30
0.0
 40
55.0
1001
GUJIAN_SOURCE
1000
a05d3dec-23cd-58d4-bb3d-d4b5b0e4ddd2
1000
demo
  0
CIRCLE
  5
1E0
330
17
100
AcDbEntity
  8
A-ROOF
100
AcDbCircle
 10
-5776.0
 20
5474.731219671448
 30
0.0
 40
55.0
1001
GUJIAN_SOURCE
1000
a05d3dec-23cd-58d4-bb3d-d4b5b0e4ddd2
1000
demo
  0
CIRCLE
  5
1E1
330
17
100
AcDbEntity
  8
A-ROOF
100
AcDbCircle
 10
-5415.0
 20
5433.026509903562
 30
0.0
 40
55.0
1001
GUJIAN_SOURCE
1000
a05d3dec-23cd-58d4-bb3d-d4b5b0e4ddd2
1000
demo
  0
CIRCLE
  5
1E2
330
17
100
AcDbEntity
  8
A-ROOF
100
AcDbCircle
 10
-5054.0
 20
5405.05448000044
 30
0.0
 40
55.0
1001
GUJIAN_SOURCE
1000
a05d3dec-23cd-58d4-bb3d-d4b5b0e4ddd2
1000
demo
  0
CIRCLE
  5
1E3
330
17
100
AcDbEntity
  8
A-ROOF
100
AcDbCircle
 10
-4693.0
 20
5386.819161653461
 30
0.0
 40
55.0
1001
GUJIAN_SOURCE
1000
a05d3dec-23cd-58d4-bb3d-d4b5b0e4ddd2
1000
demo
  0
CIRCLE
  5
1E4
330
17
100
AcDbEntity
  8
A-ROOF
100
AcDbCircle
 10
-4332.0
 20
5375.314769129727
 30
0.0
 40
55.0
1001
GUJIAN_SOURCE
1000
a05d3dec-23cd-58d4-bb3d-d4b5b0e4ddd2
1000
demo
  0
CIRCLE
  5
1E5
330
17
100
AcDbEntity
  8
A-ROOF
100
AcDbCircle
 10
-3971.0
 20
5368.328955235988
 30
0.0
 40
55.0
1001
GUJIAN_SOURCE
1000
a05d3dec-23cd-58d4-bb3d-d4b5b0e4ddd2
1000
demo
  0
CIRCLE
  5
1E6
330
17
100
AcDbEntity
  8
A-ROOF
100
AcDbCircle
 10
-3610.0
 20
5364.274070995728
 30
0.0
 40
55.0
1001
GUJIAN_SOURCE
1000
a05d3dec-23cd-58d4-bb3d-d4b5b0e4ddd2
1000
demo
  0
CIRCLE
  5
1E7
330
17
100
AcDbEntity
  8
A-ROOF
100
AcDbCircle
 10
-3249.0
 20
5362.0442749076365
 30
0.0
 40
55.0
1001
GUJIAN_SOURCE
1000
a05d3dec-23cd-58d4-bb3d-d4b5b0e4ddd2
1000
demo
  0
CIRCLE
  5
1E8
330
17
100
AcDbEntity
  8
A-ROOF
100
AcDbCircle
 10
-2888.0
 20
5360.896337653683
 30
0.0
 40
55.0
1001
GUJIAN_SOURCE
1000
a05d3dec-23cd-58d4-bb3d-d4b5b0e4ddd2
1000
demo
  0
CIRCLE
  5
1E9
330
17
100
AcDbEntity
  8
A-ROOF
100
AcDbCircle
 10
-2527.0
 20
5360.351988125003
 30
0.0
 40
55.0
1001
GUJIAN_SOURCE
1000
a05d3dec-23cd-58d4-bb3d-d4b5b0e4ddd2
1000
demo
  0
CIRCLE
  5
1EA
330
17
100
AcDbEntity
  8
A-ROOF
100
AcDbCircle
 10
-2166.0
 20
5360.119646633826
 30
0.0
 40
55.0
1001
GUJIAN_SOURCE
1000
a05d3dec-23cd-58d4-bb3d-d4b5b0e4ddd2
1000
demo
  0
CIRCLE
  5
1EB
330
17
100
AcDbEntity
  8
A-ROOF
100
AcDbCircle
 10
-1805.0
 20
5360.033391179654
 30
0.0
 40
55.0
1001
GUJIAN_SOURCE
1000
a05d3dec-23cd-58d4-bb3d-d4b5b0e4ddd2
1000
demo
  0
CIRCLE
  5
1EC
330
17
100
AcDbEntity
  8
A-ROOF
100
AcDbCircle
 10
-1444.0
 20
5360.007002637919
 30
0.0
 40
55.0
1001
GUJIAN_SOURCE
1000
a05d3dec-23cd-58d4-bb3d-d4b5b0e4ddd2
1000
demo
  0
CIRCLE
  5
1ED
330
17
100
AcDbEntity
  8
A-ROOF
100
AcDbCircle
 10
-1083.0
 20
5360.000934739327
 30
0.0
 40
55.0
1001
GUJIAN_SOURCE
1000
a05d3dec-23cd-58d4-bb3d-d4b5b0e4ddd2
1000
demo
  0
CIRCLE
  5
1EE
330
17
100
AcDbEntity
  8
A-ROOF
100
AcDbCircle
 10
-722.0
 20
5360.000054708109
 30
0.0
 40
55.0
1001
GUJIAN_SOURCE
1000
a05d3dec-23cd-58d4-bb3d-d4b5b0e4ddd2
1000
demo
  0
CIRCLE
  5
1EF
330
17
100
AcDbEntity
  8
A-ROOF
100
AcDbCircle
 10
-361.0
 20
5360.000000427407
 30
0.0
 40
55.0
1001
GUJIAN_SOURCE
1000
a05d3dec-23cd-58d4-bb3d-d4b5b0e4ddd2
1000
demo
  0
CIRCLE
  5
1F0
330
17
100
AcDbEntity
  8
A-ROOF
100
AcDbCircle
 10
0.0
 20
5360.0
 30
0.0
 40
55.0
1001
GUJIAN_SOURCE
1000
a05d3dec-23cd-58d4-bb3d-d4b5b0e4ddd2
1000
demo
  0
CIRCLE
  5
1F1
330
17
100
AcDbEntity
  8
A-ROOF
100
AcDbCircle
 10
361.0
 20
5360.000000427407
 30
0.0
 40
55.0
1001
GUJIAN_SOURCE
1000
a05d3dec-23cd-58d4-bb3d-d4b5b0e4ddd2
1000
demo
  0
CIRCLE
  5
1F2
330
17
100
AcDbEntity
  8
A-ROOF
100
AcDbCircle
 10
722.0
 20
5360.000054708109
 30
0.0
 40
55.0
1001
GUJIAN_SOURCE
1000
a05d3dec-23cd-58d4-bb3d-d4b5b0e4ddd2
1000
demo
  0
CIRCLE
  5
1F3
330
17
100
AcDbEntity
  8
A-ROOF
100
AcDbCircle
 10
1083.0
 20
5360.000934739327
 30
0.0
 40
55.0
1001
GUJIAN_SOURCE
1000
a05d3dec-23cd-58d4-bb3d-d4b5b0e4ddd2
1000
demo
  0
CIRCLE
  5
1F4
330
17
100
AcDbEntity
  8
A-ROOF
100
AcDbCircle
 10
1444.0
 20
5360.007002637919
 30
0.0
 40
55.0
1001
GUJIAN_SOURCE
1000
a05d3dec-23cd-58d4-bb3d-d4b5b0e4ddd2
1000
demo
  0
CIRCLE
  5
1F5
330
17
100
AcDbEntity
  8
A-ROOF
100
AcDbCircle
 10
1805.0
 20
5360.033391179654
 30
0.0
 40
55.0
1001
GUJIAN_SOURCE
1000
a05d3dec-23cd-58d4-bb3d-d4b5b0e4ddd2
1000
demo
  0
CIRCLE
  5
1F6
330
17
100
AcDbEntity
  8
A-ROOF
100
AcDbCircle
 10
2166.0
 20
5360.119646633826
 30
0.0
 40
55.0
1001
GUJIAN_SOURCE
1000
a05d3dec-23cd-58d4-bb3d-d4b5b0e4ddd2
1000
demo
  0
CIRCLE
  5
1F7
330
17
100
AcDbEntity
  8
A-ROOF
100
AcDbCircle
 10
2527.0
 20
5360.351988125003
 30
0.0
 40
55.0
1001
GUJIAN_SOURCE
1000
a05d3dec-23cd-58d4-bb3d-d4b5b0e4ddd2
1000
demo
  0
CIRCLE
  5
1F8
330
17
100
AcDbEntity
  8
A-ROOF
100
AcDbCircle
 10
2888.0
 20
5360.896337653683
 30
0.0
 40
55.0
1001
GUJIAN_SOURCE
1000
a05d3dec-23cd-58d4-bb3d-d4b5b0e4ddd2
1000
demo
  0
CIRCLE
  5
1F9
330
17
100
AcDbEntity
  8
A-ROOF
100
AcDbCircle
 10
3249.0
 20
5362.0442749076365
 30
0.0
 40
55.0
1001
GUJIAN_SOURCE
1000
a05d3dec-23cd-58d4-bb3d-d4b5b0e4ddd2
1000
demo
  0
CIRCLE
  5
1FA
330
17
100
AcDbEntity
  8
A-ROOF
100
AcDbCircle
 10
3610.0
 20
5364.274070995728
 30
0.0
 40
55.0
1001
GUJIAN_SOURCE
1000
a05d3dec-23cd-58d4-bb3d-d4b5b0e4ddd2
1000
demo
  0
CIRCLE
  5
1FB
330
17
100
AcDbEntity
  8
A-ROOF
100
AcDbCircle
 10
3971.0
 20
5368.328955235988
 30
0.0
 40
55.0
1001
GUJIAN_SOURCE
1000
a05d3dec-23cd-58d4-bb3d-d4b5b0e4ddd2
1000
demo
  0
CIRCLE
  5
1FC
330
17
100
AcDbEntity
  8
A-ROOF
100
AcDbCircle
 10
4332.0
 20
5375.314769129727
 30
0.0
 40
55.0
1001
GUJIAN_SOURCE
1000
a05d3dec-23cd-58d4-bb3d-d4b5b0e4ddd2
1000
demo
  0
CIRCLE
  5
1FD
330
17
100
AcDbEntity
  8
A-ROOF
100
AcDbCircle
 10
4693.0
 20
5386.819161653461
 30
0.0
 40
55.0
1001
GUJIAN_SOURCE
1000
a05d3dec-23cd-58d4-bb3d-d4b5b0e4ddd2
1000
demo
  0
CIRCLE
  5
1FE
330
17
100
AcDbEntity
  8
A-ROOF
100
AcDbCircle
 10
5054.0
 20
5405.05448000044
 30
0.0
 40
55.0
1001
GUJIAN_SOURCE
1000
a05d3dec-23cd-58d4-bb3d-d4b5b0e4ddd2
1000
demo
  0
CIRCLE
  5
1FF
330
17
100
AcDbEntity
  8
A-ROOF
100
AcDbCircle
 10
5415.0
 20
5433.026509903562
 30
0.0
 40
55.0
1001
GUJIAN_SOURCE
1000
a05d3dec-23cd-58d4-bb3d-d4b5b0e4ddd2
1000
demo
  0
CIRCLE
  5
200
330
17
100
AcDbEntity
  8
A-ROOF
100
AcDbCircle
 10
5776.0
 20
5474.731219671448
 30
0.0
 40
55.0
1001
GUJIAN_SOURCE
1000
a05d3dec-23cd-58d4-bb3d-d4b5b0e4ddd2
1000
demo
  0
CIRCLE
  5
201
330
17
100
AcDbEntity
  8
A-ROOF
100
AcDbCircle
 10
6137.0
 20
5535.381662069461
 30
0.0
 40
55.0
1001
GUJIAN_SOURCE
1000
a05d3dec-23cd-58d4-bb3d-d4b5b0e4ddd2
1000
demo
  0
CIRCLE
  5
202
330
17
100
AcDbEntity
  8
A-ROOF
100
AcDbCircle
 10
6498.0
 20
5621.6671881774555
 30
0.0
 40
55.0
1001
GUJIAN_SOURCE
1000
a05d3dec-23cd-58d4-bb3d-d4b5b0e4ddd2
1000
demo
  0
CIRCLE
  5
203
330
17
100
AcDbEntity
  8
A-ROOF
100
AcDbCircle
 10
6859.0
 20
5742.047127356039
 30
0.0
 40
55.0
1001
GUJIAN_SOURCE
1000
a05d3dec-23cd-58d4-bb3d-d4b5b0e4ddd2
1000
demo
  0
CIRCLE
  5
204
330
17
100
AcDbEntity
  8
A-ROOF
100
AcDbCircle
 10
7220.0
 20
5907.081087453119
 30
0.0
 40
55.0
1001
GUJIAN_SOURCE
1000
a05d3dec-23cd-58d4-bb3d-d4b5b0e4ddd2
1000
demo
  0
CIRCLE
  5
205
330
17
100
AcDbEntity
  8
A-ROOF
100
AcDbCircle
 10
-3600.0
 20
9080.0
 30
0.0
 40
180.0
  0
LWPOLYLINE
  5
206
330
17
100
AcDbEntity
  8
A-ROOF
100
AcDbPolyline
 90
3
 70
0
 10
-3600.0
 20
9260.0
 10
-3820.0
 20
9520.0
 10
-4020.0
 20
9300.0
  0
CIRCLE
  5
207
330
17
100
AcDbEntity
  8
A-ROOF
100
AcDbCircle
 10
3600.0
 20
9080.0
 30
0.0
 40
180.0
  0
LWPOLYLINE
  5
208
330
17
100
AcDbEntity
  8
A-ROOF
100
AcDbPolyline
 90
3
 70
0
 10
3600.0
 20
9260.0
 10
3820.0
 20
9520.0
 10
4020.0
 20
9300.0
  0
LINE
  5
209
330
17
100
AcDbEntity
  8
A-DIM
100
AcDbLine
 10
7000.0
 20
0.0
 30
0.0
 11
7600.0
 21
0.0
 31
0.0
  0
MTEXT
  5
20A
330
17
100
AcDbEntity
  8
A-TEXT
100
AcDbMText
 10
7040.0
 20
100.0
 30
0.0
 40
180.0
 71
1
  1
±0.000
  7
GUJIAN_CN
  0
LINE
  5
20B
330
17
100
AcDbEntity
  8
A-DIM
100
AcDbLine
 10
7000.0
 20
900.0
 30
0.0
 11
7600.0
 21
900.0
 31
0.0
  0
MTEXT
  5
20C
330
17
100
AcDbEntity
  8
A-TEXT
100
AcDbMText
 10
7040.0
 20
1000.0
 30
0.0
 40
180.0
 71
1
  1
+0.900
  7
GUJIAN_CN
  0
LINE
  5
20D
330
17
100
AcDbEntity
  8
A-DIM
100
AcDbLine
 10
7000.0
 20
5100.0
 30
0.0
 11
7600.0
 21
5100.0
 31
0.0
  0
MTEXT
  5
20E
330
17
100
AcDbEntity
  8
A-TEXT
100
AcDbMText
 10
7040.0
 20
5200.0
 30
0.0
 40
180.0
 71
1
  1
+5.100
  7
GUJIAN_CN
  0
LINE
  5
20F
330
17
100
AcDbEntity
  8
A-DIM
100
AcDbLine
 10
7000.0
 20
5400.0
 30
0.0
 11
7600.0
 21
5400.0
 31
0.0
  0
MTEXT
  5
210
330
17
100
AcDbEntity
  8
A-TEXT
100
AcDbMText
 10
7040.0
 20
5500.0
 30
0.0
 40
180.0
 71
1
  1
+5.400
  7
GUJIAN_CN
  0
LINE
  5
211
330
17
100
AcDbEntity
  8
A-DIM
100
AcDbLine
 10
7000.0
 20
9000.0
 30
0.0
 11
7600.0
 21
9000.0
 31
0.0
  0
MTEXT
  5
212
330
17
100
AcDbEntity
  8
A-TEXT
100
AcDbMText
 10
7040.0
 20
9100.0
 30
0.0
 40
180.0
 71
1
  1
+9.000
  7
GUJIAN_CN
  0
DIMENSION
  5
213
330
17
100
AcDbEntity
  8
A-DIM
100
AcDbDimension
280
0
  2
*D1
  3
GUJIAN-DIM
 10
-6000.0
 20
-1500.0
 30
0.0
 11
-4200.0
 21
-1500.0
 31
0.0
 70
32
 71
5
  1
3600
100
AcDbAlignedDimension
 13
-6000.0
 23
0.0
 33
0.0
 14
-2400.0
 24
0.0
 34
0.0
 50
0.0
100
AcDbRotatedDimension
  0
DIMENSION
  5
227
330
17
100
AcDbEntity
  8
A-DIM
100
AcDbDimension
280
0
  2
*D2
  3
GUJIAN-DIM
 10
-2400.0
 20
-1500.0
 30
0.0
 11
0.0
 21
-1500.0
 31
0.0
 70
32
 71
5
  1
4800
100
AcDbAlignedDimension
 13
-2400.0
 23
0.0
 33
0.0
 14
2400.0
 24
0.0
 34
0.0
 50
0.0
100
AcDbRotatedDimension
  0
DIMENSION
  5
237
330
17
100
AcDbEntity
  8
A-DIM
100
AcDbDimension
280
0
  2
*D3
  3
GUJIAN-DIM
 10
2400.0
 20
-1500.0
 30
0.0
 11
4200.0
 21
-1500.0
 31
0.0
 70
32
 71
5
  1
3600
100
AcDbAlignedDimension
 13
2400.0
 23
0.0
 33
0.0
 14
6000.0
 24
0.0
 34
0.0
 50
0.0
100
AcDbRotatedDimension
  0
DIMENSION
  5
247
330
17
100
AcDbEntity
  8
A-DIM
100
AcDbDimension
280
0
  2
*D4
  3
GUJIAN-DIM
 10
-6000.0
 20
-2200.0
 30
0.0
 11
0.0
 21
-2200.0
 31
0.0
 70
32
 71
5
  1
12000
100
AcDbAlignedDimension
 13
-6000.0
 23
0.0
 33
0.0
 14
6000.0
 24
0.0
 34
0.0
 50
0.0
100
AcDbRotatedDimension
  0
DIMENSION
  5
257
330
17
100
AcDbEntity
  8
A-DIM
100
AcDbDimension
280
0
  2
*D5
  3
GUJIAN-DIM
 10
7700.0
 20
0.0
 30
0.0
 11
7700.0
 21
4500.0
 31
0.0
 70
32
 71
5
  1
9000
100
AcDbAlignedDimension
 13
6000.0
 23
0.0
 33
0.0
 14
6000.0
 24
9000.0
 34
0.0
 50
90.0
100
AcDbRotatedDimension
  0
DIMENSION
  5
267
330
17
100
AcDbEntity
  8
A-DIM
100
AcDbDimension
280
0
  2
*D6
  3
GUJIAN-DIM
 10
-7400.0
 20
-2900.0
 30
0.0
 11
0.0
 21
-2900.0
 31
0.0
 70
32
 71
5
  1
14800
100
AcDbAlignedDimension
 13
-7400.0
 23
5400.0
 33
0.0
 14
7400.0
 24
5400.0
 34
0.0
 50
0.0
100
AcDbRotatedDimension
  0
MTEXT
  5
277
330
17
100
AcDbEntity
  8
A-TEXT
100
AcDbMText
 10
-7500.0
 20
10100.0
 30
0.0
 40
220.0
 71
1
  1
南立面：瓦作、木构、门窗、台基与病害索引
  7
GUJIAN_CN
  0
CIRCLE
  5
278
330
17
100
AcDbEntity
  8
A-DAMAGE
100
AcDbCircle
 10
-2400.0
 20
1100.0
 30
0.0
 40
180.0
1001
GUJIAN_SOURCE
1000
b1ba592b-2437-588b-b23c-0ca9ee831e3b
1000
demo
  0
LINE
  5
279
330
17
100
AcDbEntity
  8
A-DAMAGE
100
AcDbLine
 10
-2220.0
 20
1200.0
 30
0.0
 11
2500.0
 21
2500.0
 31
0.0
1001
GUJIAN_SOURCE
1000
b1ba592b-2437-588b-b23c-0ca9ee831e3b
1000
demo
  0
MTEXT
  5
27A
330
17
100
AcDbEntity
  8
A-DAMAGE
100
AcDbMText
 10
2600.0
 20
2500.0
 30
0.0
 40
180.0
 71
1
  1
D-COL-01 柱脚表面劣化（DEMO）
  7
GUJIAN_CN
1001
GUJIAN_SOURCE
1000
b1ba592b-2437-588b-b23c-0ca9ee831e3b
1000
demo
  0
LINE
  5
27B
330
17
100
AcDbEntity
  8
A-OUTLINE
100
AcDbLine
 10
15500.0
 20
0.0
 30
0.0
 11
28500.0
 21
0.0
 31
0.0
  0
LWPOLYLINE
  5
27C
330
17
100
AcDbEntity
  8
A-CUT
100
AcDbPolyline
 90
4
 70
1
 10
16800.0
 20
0.0
 10
27200.0
 20
0.0
 10
27200.0
 20
900.0
 10
16800.0
 20
900.0
  0
HATCH
  5
27D
330
17
100
AcDbEntity
  8
A-HATCH
 62
9
100
AcDbHatch
 10
0.0
 20
0.0
 30
0.0
210
0.0
220
0.0
230
1.0
  2
SOLID
 70
1
 71
0
 91
1
 92
3
 72
0
 73
1
 93
4
 10
16800.0
 20
-1200.0
 10
27200.0
 20
-1200.0
 10
27200.0
 20
0.0
 10
16800.0
 20
0.0
 97
0
 75
0
 76
1
 98
0
  0
LINE
  5
27E
330
17
100
AcDbEntity
  8
A-PROJ
100
AcDbLine
 10
16800.0
 20
-900.0
 30
0.0
 11
27200.0
 21
-900.0
 31
0.0
  0
LINE
  5
27F
330
17
100
AcDbEntity
  8
A-PROJ
100
AcDbLine
 10
16800.0
 20
-600.0
 30
0.0
 11
27200.0
 21
-600.0
 31
0.0
  0
LINE
  5
280
330
17
100
AcDbEntity
  8
A-PROJ
100
AcDbLine
 10
16800.0
 20
-300.0
 30
0.0
 11
27200.0
 21
-300.0
 31
0.0
  0
LINE
  5
281
330
17
100
AcDbEntity
  8
A-PROJ
100
AcDbLine
 10
16800.0
 20
300.0
 30
0.0
 11
27200.0
 21
300.0
 31
0.0
  0
LINE
  5
282
330
17
100
AcDbEntity
  8
A-PROJ
100
AcDbLine
 10
16800.0
 20
600.0
 30
0.0
 11
27200.0
 21
600.0
 31
0.0
  0
LWPOLYLINE
  5
283
330
17
100
AcDbEntity
  8
A-CUT
100
AcDbPolyline
 90
4
 70
1
 10
17590.0
 20
900.0
 10
18010.0
 20
900.0
 10
18010.0
 20
5100.0
 10
17590.0
 20
5100.0
  0
HATCH
  5
284
330
17
100
AcDbEntity
  8
A-HATCH
 62
9
100
AcDbHatch
 10
0.0
 20
0.0
 30
0.0
210
0.0
220
0.0
230
1.0
  2
SOLID
 70
1
 71
0
 91
1
 92
3
 72
0
 73
1
 93
4
 10
17250.0
 20
-1200.0
 10
18350.0
 20
-1200.0
 10
18350.0
 20
0.0
 10
17250.0
 20
0.0
 97
0
 75
0
 76
1
 98
0
  0
INSERT
  5
285
330
17
100
AcDbEntity
  8
A-TIMBER
100
AcDbBlockReference
  2
BRACKET
 10
17800.0
 20
5100.0
 30
0.0
  0
LWPOLYLINE
  5
287
330
17
100
AcDbEntity
  8
A-CUT
100
AcDbPolyline
 90
4
 70
1
 10
25990.0
 20
900.0
 10
26410.0
 20
900.0
 10
26410.0
 20
5100.0
 10
25990.0
 20
5100.0
  0
HATCH
  5
288
330
17
100
AcDbEntity
  8
A-HATCH
 62
9
100
AcDbHatch
 10
0.0
 20
0.0
 30
0.0
210
0.0
220
0.0
230
1.0
  2
SOLID
 70
1
 71
0
 91
1
 92
3
 72
0
 73
1
 93
4
 10
25650.0
 20
-1200.0
 10
26750.0
 20
-1200.0
 10
26750.0
 20
0.0
 10
25650.0
 20
0.0
 97
0
 75
0
 76
1
 98
0
  0
INSERT
  5
289
330
17
100
AcDbEntity
  8
A-TIMBER
100
AcDbBlockReference
  2
BRACKET
 10
26200.0
 20
5100.0
 30
0.0
  0
LWPOLYLINE
  5
28B
330
17
100
AcDbEntity
  8
A-CUT
100
AcDbPolyline
 90
4
 70
1
 10
17800.0
 20
4580.0
 10
26200.0
 20
4580.0
 10
26200.0
 20
5100.0
 10
17800.0
 20
5100.0
  0
LWPOLYLINE
  5
28C
330
17
100
AcDbEntity
  8
A-OUTLINE
100
AcDbPolyline
 90
61
 70
0
 10
16400.0
 20
5400.0
 10
16586.666666666668
 20
5584.286370274133
 10
16773.333333333332
 20
5765.11009583771
 10
16960.0
 20
5942.416047194943
 10
17146.666666666668
 20
6116.146162041125
 10
17333.333333333332
 20
6286.2391715159665
 10
17520.0
 20
6452.630289038912
 10
17706.666666666664
 20
6615.25085485468
 10
17893.333333333332
 20
6774.027927804551
 10
18080.0
 20
6928.883813757851
 10
18266.666666666668
 20
7079.735517424197
 10
18453.333333333332
 20
7226.494100686885
 10
18640.0
 20
7369.0639258152
 10
18826.666666666668
 20
7507.341755435838
 10
19013.333333333332
 20
7641.215672236676
 10
19200.0
 20
7770.563768921043
 10
19386.666666666668
 20
7895.252541186486
 10
19573.333333333332
 20
8015.134890688127
 10
19760.0
 20
8130.0476064975865
 10
19946.666666666668
 20
8239.808134742503
 10
20133.333333333332
 20
8344.21035329645
 10
20320.0
 20
8443.018916617646
 10
20506.666666666664
 20
8535.961477007084
 10
20693.333333333332
 20
8622.717624428406
 10
20880.0
 20
8702.902502253966
 10
21066.666666666664
 20
8776.041235660052
 10
21253.333333333332
 20
8841.526174226707
 10
21440.0
 20
8898.53821447448
 10
21626.666666666664
 20
8945.87959358795
 10
21813.333333333332
 20
8981.517336532308
 10
22000.0
 20
9000.0
 10
22186.666666666664
 20
8981.517336532308
 10
22373.333333333332
 20
8945.87959358795
 10
22560.0
 20
8898.53821447448
 10
22746.666666666664
 20
8841.526174226707
 10
22933.333333333332
 20
8776.041235660052
 10
23120.0
 20
8702.902502253966
 10
23306.666666666664
 20
8622.717624428406
 10
23493.333333333332
 20
8535.961477007086
 10
23680.0
 20
8443.018916617646
 10
23866.666666666664
 20
8344.21035329645
 10
24053.333333333332
 20
8239.808134742503
 10
24240.0
 20
8130.0476064975865
 10
24426.666666666664
 20
8015.134890688128
 10
24613.333333333332
 20
7895.252541186486
 10
24800.0
 20
7770.563768921043
 10
24986.666666666664
 20
7641.215672236676
 10
25173.333333333332
 20
7507.341755435838
 10
25360.0
 20
7369.0639258152
 10
25546.666666666664
 20
7226.494100686887
 10
25733.333333333332
 20
7079.7355174241975
 10
25920.0
 20
6928.883813757851
 10
26106.666666666664
 20
6774.027927804552
 10
26293.333333333332
 20
6615.250854854681
 10
26480.0
 20
6452.630289038912
 10
26666.666666666664
 20
6286.239171515967
 10
26853.333333333332
 20
6116.146162041125
 10
27040.0
 20
5942.416047194943
 10
27226.666666666664
 20
5765.110095837711
 10
27413.333333333332
 20
5584.286370274133
 10
27600.0
 20
5400.0
  0
LWPOLYLINE
  5
28D
330
17
100
AcDbEntity
  8
A-CUT
100
AcDbPolyline
 90
61
 70
0
 10
16400.0
 20
5220.0
 10
16586.666666666668
 20
5404.286370274133
 10
16773.333333333332
 20
5585.11009583771
 10
16960.0
 20
5762.416047194943
 10
17146.666666666668
 20
5936.146162041125
 10
17333.333333333332
 20
6106.2391715159665
 10
17520.0
 20
6272.630289038912
 10
17706.666666666664
 20
6435.25085485468
 10
17893.333333333332
 20
6594.027927804551
 10
18080.0
 20
6748.883813757851
 10
18266.666666666668
 20
6899.735517424197
 10
18453.333333333332
 20
7046.494100686885
 10
18640.0
 20
7189.0639258152
 10
18826.666666666668
 20
7327.341755435838
 10
19013.333333333332
 20
7461.215672236676
 10
19200.0
 20
7590.563768921043
 10
19386.666666666668
 20
7715.252541186486
 10
19573.333333333332
 20
7835.134890688127
 10
19760.0
 20
7950.0476064975865
 10
19946.666666666668
 20
8059.808134742503
 10
20133.333333333332
 20
8164.21035329645
 10
20320.0
 20
8263.018916617646
 10
20506.666666666664
 20
8355.961477007084
 10
20693.333333333332
 20
8442.717624428406
 10
20880.0
 20
8522.902502253966
 10
21066.666666666664
 20
8596.041235660052
 10
21253.333333333332
 20
8661.526174226707
 10
21440.0
 20
8718.53821447448
 10
21626.666666666664
 20
8765.87959358795
 10
21813.333333333332
 20
8801.517336532308
 10
22000.0
 20
8820.0
 10
22186.666666666664
 20
8801.517336532308
 10
22373.333333333332
 20
8765.87959358795
 10
22560.0
 20
8718.53821447448
 10
22746.666666666664
 20
8661.526174226707
 10
22933.333333333332
 20
8596.041235660052
 10
23120.0
 20
8522.902502253966
 10
23306.666666666664
 20
8442.717624428406
 10
23493.333333333332
 20
8355.961477007086
 10
23680.0
 20
8263.018916617646
 10
23866.666666666664
 20
8164.21035329645
 10
24053.333333333332
 20
8059.808134742503
 10
24240.0
 20
7950.0476064975865
 10
24426.666666666664
 20
7835.134890688128
 10
24613.333333333332
 20
7715.252541186486
 10
24800.0
 20
7590.563768921043
 10
24986.666666666664
 20
7461.215672236676
 10
25173.333333333332
 20
7327.341755435838
 10
25360.0
 20
7189.0639258152
 10
25546.666666666664
 20
7046.494100686887
 10
25733.333333333332
 20
6899.7355174241975
 10
25920.0
 20
6748.883813757851
 10
26106.666666666664
 20
6594.027927804552
 10
26293.333333333332
 20
6435.250854854681
 10
26480.0
 20
6272.630289038912
 10
26666.666666666664
 20
6106.239171515967
 10
26853.333333333332
 20
5936.146162041125
 10
27040.0
 20
5762.416047194943
 10
27226.666666666664
 20
5585.110095837711
 10
27413.333333333332
 20
5404.286370274133
 10
27600.0
 20
5220.0
  0
LWPOLYLINE
  5
28E
330
17
100
AcDbEntity
  8
A-PROJ
100
AcDbPolyline
 90
61
 70
0
 10
16400.0
 20
5455.0
 10
16586.666666666668
 20
5639.286370274133
 10
16773.333333333332
 20
5820.11009583771
 10
16960.0
 20
5997.416047194943
 10
17146.666666666668
 20
6171.146162041125
 10
17333.333333333332
 20
6341.2391715159665
 10
17520.0
 20
6507.630289038912
 10
17706.666666666664
 20
6670.25085485468
 10
17893.333333333332
 20
6829.027927804551
 10
18080.0
 20
6983.883813757851
 10
18266.666666666668
 20
7134.735517424197
 10
18453.333333333332
 20
7281.494100686885
 10
18640.0
 20
7424.0639258152
 10
18826.666666666668
 20
7562.341755435838
 10
19013.333333333332
 20
7696.215672236676
 10
19200.0
 20
7825.563768921043
 10
19386.666666666668
 20
7950.252541186486
 10
19573.333333333332
 20
8070.134890688127
 10
19760.0
 20
8185.0476064975865
 10
19946.666666666668
 20
8294.808134742503
 10
20133.333333333332
 20
8399.21035329645
 10
20320.0
 20
8498.018916617646
 10
20506.666666666664
 20
8590.961477007084
 10
20693.333333333332
 20
8677.717624428406
 10
20880.0
 20
8757.902502253966
 10
21066.666666666664
 20
8831.041235660052
 10
21253.333333333332
 20
8896.526174226707
 10
21440.0
 20
8953.53821447448
 10
21626.666666666664
 20
9000.87959358795
 10
21813.333333333332
 20
9036.517336532308
 10
22000.0
 20
9055.0
 10
22186.666666666664
 20
9036.517336532308
 10
22373.333333333332
 20
9000.87959358795
 10
22560.0
 20
8953.53821447448
 10
22746.666666666664
 20
8896.526174226707
 10
22933.333333333332
 20
8831.041235660052
 10
23120.0
 20
8757.902502253966
 10
23306.666666666664
 20
8677.717624428406
 10
23493.333333333332
 20
8590.961477007086
 10
23680.0
 20
8498.018916617646
 10
23866.666666666664
 20
8399.21035329645
 10
24053.333333333332
 20
8294.808134742503
 10
24240.0
 20
8185.0476064975865
 10
24426.666666666664
 20
8070.134890688128
 10
24613.333333333332
 20
7950.252541186486
 10
24800.0
 20
7825.563768921043
 10
24986.666666666664
 20
7696.215672236676
 10
25173.333333333332
 20
7562.341755435838
 10
25360.0
 20
7424.0639258152
 10
25546.666666666664
 20
7281.494100686887
 10
25733.333333333332
 20
7134.7355174241975
 10
25920.0
 20
6983.883813757851
 10
26106.666666666664
 20
6829.027927804552
 10
26293.333333333332
 20
6670.250854854681
 10
26480.0
 20
6507.630289038912
 10
26666.666666666664
 20
6341.239171515967
 10
26853.333333333332
 20
6171.146162041125
 10
27040.0
 20
5997.416047194943
 10
27226.666666666664
 20
5820.110095837711
 10
27413.333333333332
 20
5639.286370274133
 10
27600.0
 20
5455.0
  0
LWPOLYLINE
  5
28F
330
17
100
AcDbEntity
  8
A-PROJ
100
AcDbPolyline
 90
61
 70
0
 10
16400.0
 20
5510.0
 10
16586.666666666668
 20
5694.286370274133
 10
16773.333333333332
 20
5875.11009583771
 10
16960.0
 20
6052.416047194943
 10
17146.666666666668
 20
6226.146162041125
 10
17333.333333333332
 20
6396.2391715159665
 10
17520.0
 20
6562.630289038912
 10
17706.666666666664
 20
6725.25085485468
 10
17893.333333333332
 20
6884.027927804551
 10
18080.0
 20
7038.883813757851
 10
18266.666666666668
 20
7189.735517424197
 10
18453.333333333332
 20
7336.494100686885
 10
18640.0
 20
7479.0639258152
 10
18826.666666666668
 20
7617.341755435838
 10
19013.333333333332
 20
7751.215672236676
 10
19200.0
 20
7880.563768921043
 10
19386.666666666668
 20
8005.252541186486
 10
19573.333333333332
 20
8125.134890688127
 10
19760.0
 20
8240.047606497586
 10
19946.666666666668
 20
8349.808134742503
 10
20133.333333333332
 20
8454.21035329645
 10
20320.0
 20
8553.018916617646
 10
20506.666666666664
 20
8645.961477007084
 10
20693.333333333332
 20
8732.717624428406
 10
20880.0
 20
8812.902502253966
 10
21066.666666666664
 20
8886.041235660052
 10
21253.333333333332
 20
8951.526174226707
 10
21440.0
 20
9008.53821447448
 10
21626.666666666664
 20
9055.87959358795
 10
21813.333333333332
 20
9091.517336532308
 10
22000.0
 20
9110.0
 10
22186.666666666664
 20
9091.517336532308
 10
22373.333333333332
 20
9055.87959358795
 10
22560.0
 20
9008.53821447448
 10
22746.666666666664
 20
8951.526174226707
 10
22933.333333333332
 20
8886.041235660052
 10
23120.0
 20
8812.902502253966
 10
23306.666666666664
 20
8732.717624428406
 10
23493.333333333332
 20
8645.961477007086
 10
23680.0
 20
8553.018916617646
 10
23866.666666666664
 20
8454.21035329645
 10
24053.333333333332
 20
8349.808134742503
 10
24240.0
 20
8240.047606497586
 10
24426.666666666664
 20
8125.134890688128
 10
24613.333333333332
 20
8005.252541186486
 10
24800.0
 20
7880.563768921043
 10
24986.666666666664
 20
7751.215672236676
 10
25173.333333333332
 20
7617.341755435838
 10
25360.0
 20
7479.0639258152
 10
25546.666666666664
 20
7336.494100686887
 10
25733.333333333332
 20
7189.7355174241975
 10
25920.0
 20
7038.883813757851
 10
26106.666666666664
 20
6884.027927804552
 10
26293.333333333332
 20
6725.250854854681
 10
26480.0
 20
6562.630289038912
 10
26666.666666666664
 20
6396.239171515967
 10
26853.333333333332
 20
6226.146162041125
 10
27040.0
 20
6052.416047194943
 10
27226.666666666664
 20
5875.110095837711
 10
27413.333333333332
 20
5694.286370274133
 10
27600.0
 20
5510.0
  0
LWPOLYLINE
  5
290
330
17
100
AcDbEntity
  8
A-PROJ
100
AcDbPolyline
 90
61
 70
0
 10
16400.0
 20
5565.0
 10
16586.666666666668
 20
5749.286370274133
 10
16773.333333333332
 20
5930.11009583771
 10
16960.0
 20
6107.416047194943
 10
17146.666666666668
 20
6281.146162041125
 10
17333.333333333332
 20
6451.2391715159665
 10
17520.0
 20
6617.630289038912
 10
17706.666666666664
 20
6780.25085485468
 10
17893.333333333332
 20
6939.027927804551
 10
18080.0
 20
7093.883813757851
 10
18266.666666666668
 20
7244.735517424197
 10
18453.333333333332
 20
7391.494100686885
 10
18640.0
 20
7534.0639258152
 10
18826.666666666668
 20
7672.341755435838
 10
19013.333333333332
 20
7806.215672236676
 10
19200.0
 20
7935.563768921043
 10
19386.666666666668
 20
8060.252541186486
 10
19573.333333333332
 20
8180.134890688127
 10
19760.0
 20
8295.047606497586
 10
19946.666666666668
 20
8404.808134742503
 10
20133.333333333332
 20
8509.21035329645
 10
20320.0
 20
8608.018916617646
 10
20506.666666666664
 20
8700.961477007084
 10
20693.333333333332
 20
8787.717624428406
 10
20880.0
 20
8867.902502253966
 10
21066.666666666664
 20
8941.041235660052
 10
21253.333333333332
 20
9006.526174226707
 10
21440.0
 20
9063.53821447448
 10
21626.666666666664
 20
9110.87959358795
 10
21813.333333333332
 20
9146.517336532308
 10
22000.0
 20
9165.0
 10
22186.666666666664
 20
9146.517336532308
 10
22373.333333333332
 20
9110.87959358795
 10
22560.0
 20
9063.53821447448
 10
22746.666666666664
 20
9006.526174226707
 10
22933.333333333332
 20
8941.041235660052
 10
23120.0
 20
8867.902502253966
 10
23306.666666666664
 20
8787.717624428406
 10
23493.333333333332
 20
8700.961477007086
 10
23680.0
 20
8608.018916617646
 10
23866.666666666664
 20
8509.21035329645
 10
24053.333333333332
 20
8404.808134742503
 10
24240.0
 20
8295.047606497586
 10
24426.666666666664
 20
8180.134890688128
 10
24613.333333333332
 20
8060.252541186486
 10
24800.0
 20
7935.563768921043
 10
24986.666666666664
 20
7806.215672236676
 10
25173.333333333332
 20
7672.341755435838
 10
25360.0
 20
7534.0639258152
 10
25546.666666666664
 20
7391.494100686887
 10
25733.333333333332
 20
7244.7355174241975
 10
25920.0
 20
7093.883813757851
 10
26106.666666666664
 20
6939.027927804552
 10
26293.333333333332
 20
6780.250854854681
 10
26480.0
 20
6617.630289038912
 10
26666.666666666664
 20
6451.239171515967
 10
26853.333333333332
 20
6281.146162041125
 10
27040.0
 20
6107.416047194943
 10
27226.666666666664
 20
5930.110095837711
 10
27413.333333333332
 20
5749.286370274133
 10
27600.0
 20
5565.0
  0
CIRCLE
  5
291
330
17
100
AcDbEntity
  8
A-CUT
100
AcDbCircle
 10
20992.0
 20
8487.666516242552
 30
0.0
 40
150.0
  0
CIRCLE
  5
292
330
17
100
AcDbEntity
  8
A-CUT
100
AcDbCircle
 10
19648.0
 20
7801.70608278601
 30
0.0
 40
150.0
  0
CIRCLE
  5
293
330
17
100
AcDbEntity
  8
A-CUT
100
AcDbCircle
 10
18304.0
 20
6849.417642406382
 30
0.0
 40
150.0
  0
CIRCLE
  5
294
330
17
100
AcDbEntity
  8
A-CUT
100
AcDbCircle
 10
17072.0
 20
5787.087062429104
 30
0.0
 40
150.0
  0
CIRCLE
  5
295
330
17
100
AcDbEntity
  8
A-CUT
100
AcDbCircle
 10
23008.0
 20
8487.666516242552
 30
0.0
 40
150.0
  0
CIRCLE
  5
296
330
17
100
AcDbEntity
  8
A-CUT
100
AcDbCircle
 10
24352.0
 20
7801.70608278601
 30
0.0
 40
150.0
  0
CIRCLE
  5
297
330
17
100
AcDbEntity
  8
A-CUT
100
AcDbCircle
 10
25696.0
 20
6849.417642406382
 30
0.0
 40
150.0
  0
CIRCLE
  5
298
330
17
100
AcDbEntity
  8
A-CUT
100
AcDbCircle
 10
26928.0
 20
5787.087062429104
 30
0.0
 40
150.0
  0
LINE
  5
299
330
17
100
AcDbEntity
  8
A-PROJ
100
AcDbLine
 10
16400.0
 20
5220.0
 30
0.0
 11
16400.0
 21
5550.0
 31
0.0
  0
LINE
  5
29A
330
17
100
AcDbEntity
  8
A-PROJ
100
AcDbLine
 10
16800.0
 20
5610.656212660056
 30
0.0
 11
16800.0
 21
5940.656212660056
 31
0.0
  0
LINE
  5
29B
330
17
100
AcDbEntity
  8
A-PROJ
100
AcDbLine
 10
17200.0
 20
5985.118062392074
 30
0.0
 11
17200.0
 21
6315.118062392074
 31
0.0
  0
LINE
  5
29C
330
17
100
AcDbEntity
  8
A-PROJ
100
AcDbLine
 10
17600.0
 20
6342.790667591886
 30
0.0
 11
17600.0
 21
6672.790667591886
 31
0.0
  0
LINE
  5
29D
330
17
100
AcDbEntity
  8
A-PROJ
100
AcDbLine
 10
18000.0
 20
6683.002345650748
 30
0.0
 11
18000.0
 21
7013.002345650748
 31
0.0
  0
LINE
  5
29E
330
17
100
AcDbEntity
  8
A-PROJ
100
AcDbLine
 10
18400.0
 20
7004.986184688799
 30
0.0
 11
18400.0
 21
7334.986184688799
 31
0.0
  0
LINE
  5
29F
330
17
100
AcDbEntity
  8
A-PROJ
100
AcDbLine
 10
18800.0
 20
7307.854695254396
 30
0.0
 11
18800.0
 21
7637.854695254396
 31
0.0
  0
LINE
  5
2A0
330
17
100
AcDbEntity
  8
A-PROJ
100
AcDbLine
 10
19200.0
 20
7590.563768921043
 30
0.0
 11
19200.0
 21
7920.563768921043
 31
0.0
  0
LINE
  5
2A1
330
17
100
AcDbEntity
  8
A-PROJ
100
AcDbLine
 10
19600.0
 20
7851.859287520418
 30
0.0
 11
19600.0
 21
8181.859287520418
 31
0.0
  0
LINE
  5
2A2
330
17
100
AcDbEntity
  8
A-PROJ
100
AcDbLine
 10
20000.0
 20
8090.193793892302
 30
0.0
 11
20000.0
 21
8420.193793892302
 31
0.0
  0
LINE
  5
2A3
330
17
100
AcDbEntity
  8
A-PROJ
100
AcDbLine
 10
20400.0
 20
8303.58715991384
 30
0.0
 11
20400.0
 21
8633.58715991384
 31
0.0
  0
LINE
  5
2A4
330
17
100
AcDbEntity
  8
A-PROJ
100
AcDbLine
 10
20800.0
 20
8489.370203137501
 30
0.0
 11
20800.0
 21
8819.370203137501
 31
0.0
  0
LINE
  5
2A5
330
17
100
AcDbEntity
  8
A-PROJ
100
AcDbLine
 10
21200.0
 20
8643.639817834359
 30
0.0
 11
21200.0
 21
8973.639817834359
 31
0.0
  0
LINE
  5
2A6
330
17
100
AcDbEntity
  8
A-PROJ
100
AcDbLine
 10
21600.0
 20
8759.7712228683
 30
0.0
 11
21600.0
 21
9089.7712228683
 31
0.0
  0
LINE
  5
2A7
330
17
100
AcDbEntity
  8
A-PROJ
100
AcDbLine
 10
22000.0
 20
8820.0
 30
0.0
 11
22000.0
 21
9150.0
 31
0.0
  0
LINE
  5
2A8
330
17
100
AcDbEntity
  8
A-PROJ
100
AcDbLine
 10
22400.0
 20
8759.7712228683
 30
0.0
 11
22400.0
 21
9089.7712228683
 31
0.0
  0
LINE
  5
2A9
330
17
100
AcDbEntity
  8
A-PROJ
100
AcDbLine
 10
22800.0
 20
8643.639817834359
 30
0.0
 11
22800.0
 21
8973.639817834359
 31
0.0
  0
LINE
  5
2AA
330
17
100
AcDbEntity
  8
A-PROJ
100
AcDbLine
 10
23200.0
 20
8489.370203137501
 30
0.0
 11
23200.0
 21
8819.370203137501
 31
0.0
  0
LINE
  5
2AB
330
17
100
AcDbEntity
  8
A-PROJ
100
AcDbLine
 10
23600.0
 20
8303.58715991384
 30
0.0
 11
23600.0
 21
8633.58715991384
 31
0.0
  0
LINE
  5
2AC
330
17
100
AcDbEntity
  8
A-PROJ
100
AcDbLine
 10
24000.0
 20
8090.193793892302
 30
0.0
 11
24000.0
 21
8420.193793892302
 31
0.0
  0
LINE
  5
2AD
330
17
100
AcDbEntity
  8
A-PROJ
100
AcDbLine
 10
24400.0
 20
7851.859287520418
 30
0.0
 11
24400.0
 21
8181.859287520418
 31
0.0
  0
LINE
  5
2AE
330
17
100
AcDbEntity
  8
A-PROJ
100
AcDbLine
 10
24800.0
 20
7590.563768921043
 30
0.0
 11
24800.0
 21
7920.563768921043
 31
0.0
  0
LINE
  5
2AF
330
17
100
AcDbEntity
  8
A-PROJ
100
AcDbLine
 10
25200.0
 20
7307.854695254396
 30
0.0
 11
25200.0
 21
7637.854695254396
 31
0.0
  0
LINE
  5
2B0
330
17
100
AcDbEntity
  8
A-PROJ
100
AcDbLine
 10
25600.0
 20
7004.986184688799
 30
0.0
 11
25600.0
 21
7334.986184688799
 31
0.0
  0
LINE
  5
2B1
330
17
100
AcDbEntity
  8
A-PROJ
100
AcDbLine
 10
26000.0
 20
6683.002345650748
 30
0.0
 11
26000.0
 21
7013.002345650748
 31
0.0
  0
LINE
  5
2B2
330
17
100
AcDbEntity
  8
A-PROJ
100
AcDbLine
 10
26400.0
 20
6342.790667591886
 30
0.0
 11
26400.0
 21
6672.790667591886
 31
0.0
  0
LINE
  5
2B3
330
17
100
AcDbEntity
  8
A-PROJ
100
AcDbLine
 10
26800.0
 20
5985.118062392074
 30
0.0
 11
26800.0
 21
6315.118062392074
 31
0.0
  0
LINE
  5
2B4
330
17
100
AcDbEntity
  8
A-PROJ
100
AcDbLine
 10
27200.0
 20
5610.656212660056
 30
0.0
 11
27200.0
 21
5940.656212660056
 31
0.0
  0
LINE
  5
2B5
330
17
100
AcDbEntity
  8
A-PROJ
100
AcDbLine
 10
27600.0
 20
5220.0
 30
0.0
 11
27600.0
 21
5550.0
 31
0.0
  0
CIRCLE
  5
2B6
330
17
100
AcDbEntity
  8
A-ROOF
100
AcDbCircle
 10
16520.0
 20
5628.864528603019
 30
0.0
 40
45.0
  0
CIRCLE
  5
2B7
330
17
100
AcDbEntity
  8
A-ROOF
100
AcDbCircle
 10
16842.35294117647
 20
5941.081502694314
 30
0.0
 40
45.0
  0
CIRCLE
  5
2B8
330
17
100
AcDbEntity
  8
A-ROOF
100
AcDbCircle
 10
17164.70588235294
 20
6242.743486718738
 30
0.0
 40
45.0
  0
CIRCLE
  5
2B9
330
17
100
AcDbEntity
  8
A-ROOF
100
AcDbCircle
 10
17487.058823529413
 20
6533.539125706354
 30
0.0
 40
45.0
  0
CIRCLE
  5
2BA
330
17
100
AcDbEntity
  8
A-ROOF
100
AcDbCircle
 10
17809.41176470588
 20
6813.125361044791
 30
0.0
 40
45.0
  0
CIRCLE
  5
2BB
330
17
100
AcDbEntity
  8
A-ROOF
100
AcDbCircle
 10
18131.764705882353
 20
7081.121556808726
 30
0.0
 40
45.0
  0
CIRCLE
  5
2BC
330
17
100
AcDbEntity
  8
A-ROOF
100
AcDbCircle
 10
18454.117647058825
 20
7337.101966004281
 30
0.0
 40
45.0
  0
CIRCLE
  5
2BD
330
17
100
AcDbEntity
  8
A-ROOF
100
AcDbCircle
 10
18776.470588235294
 20
7580.58587641996
 30
0.0
 40
45.0
  0
CIRCLE
  5
2BE
330
17
100
AcDbEntity
  8
A-ROOF
100
AcDbCircle
 10
19098.823529411766
 20
7811.02442181896
 30
0.0
 40
45.0
  0
CIRCLE
  5
2BF
330
17
100
AcDbEntity
  8
A-ROOF
100
AcDbCircle
 10
19421.176470588234
 20
8027.782440576697
 30
0.0
 40
45.0
  0
CIRCLE
  5
2C0
330
17
100
AcDbEntity
  8
A-ROOF
100
AcDbCircle
 10
19743.529411764706
 20
8230.112681440563
 30
0.0
 40
45.0
  0
CIRCLE
  5
2C1
330
17
100
AcDbEntity
  8
A-ROOF
100
AcDbCircle
 10
20065.882352941175
 20
8417.117592634884
 30
0.0
 40
45.0
  0
CIRCLE
  5
2C2
330
17
100
AcDbEntity
  8
A-ROOF
100
AcDbCircle
 10
20388.235294117647
 20
8587.68968448523
 30
0.0
 40
45.0
  0
CIRCLE
  5
2C3
330
17
100
AcDbEntity
  8
A-ROOF
100
AcDbCircle
 10
20710.58823529412
 20
8740.41181181532
 30
0.0
 40
45.0
  0
CIRCLE
  5
2C4
330
17
100
AcDbEntity
  8
A-ROOF
100
AcDbCircle
 10
21032.941176470587
 20
8873.37368458559
 30
0.0
 40
45.0
  0
CIRCLE
  5
2C5
330
17
100
AcDbEntity
  8
A-ROOF
100
AcDbCircle
 10
21355.29411764706
 20
8983.7819141297
 30
0.0
 40
45.0
  0
CIRCLE
  5
2C6
330
17
100
AcDbEntity
  8
A-ROOF
100
AcDbCircle
 10
21677.64705882353
 20
9066.895253392671
 30
0.0
 40
45.0
  0
CIRCLE
  5
2C7
330
17
100
AcDbEntity
  8
A-ROOF
100
AcDbCircle
 10
22000.0
 20
9110.0
 30
0.0
 40
45.0
  0
CIRCLE
  5
2C8
330
17
100
AcDbEntity
  8
A-ROOF
100
AcDbCircle
 10
22322.352941176472
 20
9066.895253392671
 30
0.0
 40
45.0
  0
CIRCLE
  5
2C9
330
17
100
AcDbEntity
  8
A-ROOF
100
AcDbCircle
 10
22644.70588235294
 20
8983.7819141297
 30
0.0
 40
45.0
  0
CIRCLE
  5
2CA
330
17
100
AcDbEntity
  8
A-ROOF
100
AcDbCircle
 10
22967.058823529413
 20
8873.373684585587
 30
0.0
 40
45.0
  0
CIRCLE
  5
2CB
330
17
100
AcDbEntity
  8
A-ROOF
100
AcDbCircle
 10
23289.41176470588
 20
8740.411811815318
 30
0.0
 40
45.0
  0
CIRCLE
  5
2CC
330
17
100
AcDbEntity
  8
A-ROOF
100
AcDbCircle
 10
23611.764705882353
 20
8587.68968448523
 30
0.0
 40
45.0
  0
CIRCLE
  5
2CD
330
17
100
AcDbEntity
  8
A-ROOF
100
AcDbCircle
 10
23934.117647058825
 20
8417.117592634884
 30
0.0
 40
45.0
  0
CIRCLE
  5
2CE
330
17
100
AcDbEntity
  8
A-ROOF
100
AcDbCircle
 10
24256.470588235294
 20
8230.112681440563
 30
0.0
 40
45.0
  0
CIRCLE
  5
2CF
330
17
100
AcDbEntity
  8
A-ROOF
100
AcDbCircle
 10
24578.823529411766
 20
8027.782440576697
 30
0.0
 40
45.0
  0
CIRCLE
  5
2D0
330
17
100
AcDbEntity
  8
A-ROOF
100
AcDbCircle
 10
24901.176470588238
 20
7811.02442181896
 30
0.0
 40
45.0
  0
CIRCLE
  5
2D1
330
17
100
AcDbEntity
  8
A-ROOF
100
AcDbCircle
 10
25223.529411764706
 20
7580.585876419959
 30
0.0
 40
45.0
  0
CIRCLE
  5
2D2
330
17
100
AcDbEntity
  8
A-ROOF
100
AcDbCircle
 10
25545.882352941175
 20
7337.101966004281
 30
0.0
 40
45.0
  0
CIRCLE
  5
2D3
330
17
100
AcDbEntity
  8
A-ROOF
100
AcDbCircle
 10
25868.235294117647
 20
7081.121556808726
 30
0.0
 40
45.0
  0
CIRCLE
  5
2D4
330
17
100
AcDbEntity
  8
A-ROOF
100
AcDbCircle
 10
26190.58823529412
 20
6813.12536104479
 30
0.0
 40
45.0
  0
CIRCLE
  5
2D5
330
17
100
AcDbEntity
  8
A-ROOF
100
AcDbCircle
 10
26512.941176470587
 20
6533.539125706354
 30
0.0
 40
45.0
  0
CIRCLE
  5
2D6
330
17
100
AcDbEntity
  8
A-ROOF
100
AcDbCircle
 10
26835.29411764706
 20
6242.743486718737
 30
0.0
 40
45.0
  0
CIRCLE
  5
2D7
330
17
100
AcDbEntity
  8
A-ROOF
100
AcDbCircle
 10
27157.64705882353
 20
5941.081502694314
 30
0.0
 40
45.0
  0
CIRCLE
  5
2D8
330
17
100
AcDbEntity
  8
A-ROOF
100
AcDbCircle
 10
27480.0
 20
5628.864528603019
 30
0.0
 40
45.0
  0
DIMENSION
  5
2D9
330
17
100
AcDbEntity
  8
A-DIM
100
AcDbDimension
280
0
  2
*D7
  3
GUJIAN-DIM
 10
17800.0
 20
-1700.0
 30
0.0
 11
22000.0
 21
-1700.0
 31
0.0
 70
32
 71
5
  1
8400
100
AcDbAlignedDimension
 13
17800.0
 23
0.0
 33
0.0
 14
26200.0
 24
0.0
 34
0.0
 50
0.0
100
AcDbRotatedDimension
  0
DIMENSION
  5
2E9
330
17
100
AcDbEntity
  8
A-DIM
100
AcDbDimension
280
0
  2
*D8
  3
GUJIAN-DIM
 10
16400.0
 20
-2400.0
 30
0.0
 11
22000.0
 21
-2400.0
 31
0.0
 70
32
 71
5
  1
11200
100
AcDbAlignedDimension
 13
16400.0
 23
0.0
 33
0.0
 14
27600.0
 24
0.0
 34
0.0
 50
0.0
100
AcDbRotatedDimension
  0
DIMENSION
  5
2F9
330
17
100
AcDbEntity
  8
A-DIM
100
AcDbDimension
280
0
  2
*D9
  3
GUJIAN-DIM
 10
28000.0
 20
0.0
 30
0.0
 11
28000.0
 21
4500.0
 31
0.0
 70
32
 71
5
  1
9000
100
AcDbAlignedDimension
 13
26200.0
 23
0.0
 33
0.0
 14
26200.0
 24
9000.0
 34
0.0
 50
90.0
100
AcDbRotatedDimension
  0
LINE
  5
309
330
17
100
AcDbEntity
  8
A-TEXT
100
AcDbLine
 10
23000.0
 20
7600.0
 30
0.0
 11
24800.0
 21
8200.0
 31
0.0
  0
MTEXT
  5
30A
330
17
100
AcDbEntity
  8
A-TEXT
100
AcDbMText
 10
24900.0
 20
8200.0
 30
0.0
 40
180.0
 71
1
  1
瓦面、望板、椽、檩分层表达
  7
GUJIAN_CN
  0
LINE
  5
30B
330
17
100
AcDbEntity
  8
A-TEXT
100
AcDbLine
 10
18800.0
 20
4300.0
 30
0.0
 11
16800.0
 21
3600.0
 31
0.0
  0
MTEXT
  5
30C
330
17
100
AcDbEntity
  8
A-TEXT
100
AcDbMText
 10
15900.0
 20
3400.0
 30
0.0
 40
180.0
 71
1
  1
柱梁枋与承托构件
  7
GUJIAN_CN
  0
LINE
  5
30D
330
17
100
AcDbEntity
  8
A-TEXT
100
AcDbLine
 10
25600.0
 20
-650.0
 30
0.0
 11
27200.0
 21
-1500.0
 31
0.0
  0
MTEXT
  5
30E
330
17
100
AcDbEntity
  8
A-TEXT
100
AcDbMText
 10
24500.0
 20
-1850.0
 30
0.0
 40
180.0
 71
1
  1
台基与柱下基础剖切填充
  7
GUJIAN_CN
  0
MTEXT
  5
30F
330
17
100
AcDbEntity
  8
A-TEXT
100
AcDbMText
 10
15800.0
 20
10100.0
 30
0.0
 40
220.0
 71
1
  1
横剖面：屋面—木构—台基—基础同源剖切
  7
GUJIAN_CN
  0
LWPOLYLINE
  5
310
330
17
100
AcDbEntity
  8
A-OUTLINE
100
AcDbPolyline
 90
29
 70
0
 10
39000.0
 20
3000.0
 10
39150.0
 20
3142.4671147127183
 10
39300.0
 20
3282.8809246334386
 10
39450.0
 20
3421.216561746659
 10
39600.0
 20
3557.4481605581586
 10
39750.0
 20
3691.5487885570346
 10
39900.0
 20
3823.4903696500933
 10
40050.0
 20
3953.243599624686
 10
40200.0
 20
4080.777852535939
 10
40350.0
 20
4206.061076720986
 10
40500.0
 20
4329.059678908079
 10
40650.0
 20
4449.738394601719
 10
40800.0
 20
4568.060142572421
 10
40950.0
 20
4683.985860843324
 10
41100.0
 20
4797.474321021675
 10
41250.0
 20
4908.481917139185
 10
41400.0
 20
5016.962424298295
 10
41550.0
 20
5122.866721312245
 10
41700.0
 20
5226.142470094146
 10
41850.0
 20
5326.733742679506
 10
42000.0
 20
5424.580584295417
 10
42150.0
 20
5519.618497583648
 10
42300.0
 20
5611.777828599925
 10
42450.0
 20
5700.983029033774
 10
42600.0
 20
5787.151760437314
 10
42750.0
 20
5870.193793892302
 10
42900.0
 20
5950.009640520493
 10
43050.0
 20
6026.488821320028
 10
43200.0
 20
6099.50764348807
  0
LWPOLYLINE
  5
311
330
17
100
AcDbEntity
  8
A-CUT
100
AcDbPolyline
 90
29
 70
0
 10
39000.0
 20
2820.0
 10
39150.0
 20
2962.4671147127183
 10
39300.0
 20
3102.8809246334386
 10
39450.0
 20
3241.216561746659
 10
39600.0
 20
3377.4481605581586
 10
39750.0
 20
3511.5487885570346
 10
39900.0
 20
3643.4903696500933
 10
40050.0
 20
3773.243599624686
 10
40200.0
 20
3900.777852535939
 10
40350.0
 20
4026.0610767209864
 10
40500.0
 20
4149.059678908079
 10
40650.0
 20
4269.738394601719
 10
40800.0
 20
4388.060142572421
 10
40950.0
 20
4503.985860843324
 10
41100.0
 20
4617.474321021675
 10
41250.0
 20
4728.481917139185
 10
41400.0
 20
4836.962424298295
 10
41550.0
 20
4942.866721312245
 10
41700.0
 20
5046.142470094146
 10
41850.0
 20
5146.733742679506
 10
42000.0
 20
5244.580584295417
 10
42150.0
 20
5339.618497583648
 10
42300.0
 20
5431.777828599925
 10
42450.0
 20
5520.983029033774
 10
42600.0
 20
5607.151760437314
 10
42750.0
 20
5690.193793892302
 10
42900.0
 20
5770.009640520493
 10
43050.0
 20
5846.488821320028
 10
43200.0
 20
5919.50764348807
  0
LWPOLYLINE
  5
312
330
17
100
AcDbEntity
  8
A-PROJ
100
AcDbPolyline
 90
29
 70
0
 10
39000.0
 20
3055.0
 10
39150.0
 20
3197.4671147127183
 10
39300.0
 20
3337.8809246334386
 10
39450.0
 20
3476.216561746659
 10
39600.0
 20
3612.4481605581586
 10
39750.0
 20
3746.5487885570346
 10
39900.0
 20
3878.4903696500933
 10
40050.0
 20
4008.243599624686
 10
40200.0
 20
4135.777852535939
 10
40350.0
 20
4261.061076720986
 10
40500.0
 20
4384.059678908079
 10
40650.0
 20
4504.738394601719
 10
40800.0
 20
4623.060142572421
 10
40950.0
 20
4738.985860843324
 10
41100.0
 20
4852.474321021675
 10
41250.0
 20
4963.481917139185
 10
41400.0
 20
5071.962424298295
 10
41550.0
 20
5177.866721312245
 10
41700.0
 20
5281.142470094146
 10
41850.0
 20
5381.733742679506
 10
42000.0
 20
5479.580584295417
 10
42150.0
 20
5574.618497583648
 10
42300.0
 20
5666.777828599925
 10
42450.0
 20
5755.983029033774
 10
42600.0
 20
5842.151760437314
 10
42750.0
 20
5925.193793892302
 10
42900.0
 20
6005.009640520493
 10
43050.0
 20
6081.488821320028
 10
43200.0
 20
6154.50764348807
  0
LWPOLYLINE
  5
313
330
17
100
AcDbEntity
  8
A-PROJ
100
AcDbPolyline
 90
29
 70
0
 10
39000.0
 20
3110.0
 10
39150.0
 20
3252.4671147127183
 10
39300.0
 20
3392.8809246334386
 10
39450.0
 20
3531.216561746659
 10
39600.0
 20
3667.4481605581586
 10
39750.0
 20
3801.5487885570346
 10
39900.0
 20
3933.4903696500933
 10
40050.0
 20
4063.243599624686
 10
40200.0
 20
4190.777852535939
 10
40350.0
 20
4316.061076720986
 10
40500.0
 20
4439.059678908079
 10
40650.0
 20
4559.738394601719
 10
40800.0
 20
4678.060142572421
 10
40950.0
 20
4793.985860843324
 10
41100.0
 20
4907.474321021675
 10
41250.0
 20
5018.481917139185
 10
41400.0
 20
5126.962424298295
 10
41550.0
 20
5232.866721312245
 10
41700.0
 20
5336.142470094146
 10
41850.0
 20
5436.733742679506
 10
42000.0
 20
5534.580584295417
 10
42150.0
 20
5629.618497583648
 10
42300.0
 20
5721.777828599925
 10
42450.0
 20
5810.983029033774
 10
42600.0
 20
5897.151760437314
 10
42750.0
 20
5980.193793892302
 10
42900.0
 20
6060.009640520493
 10
43050.0
 20
6136.488821320028
 10
43200.0
 20
6209.50764348807
  0
LWPOLYLINE
  5
314
330
17
100
AcDbEntity
  8
A-PROJ
100
AcDbPolyline
 90
29
 70
0
 10
39000.0
 20
3165.0
 10
39150.0
 20
3307.4671147127183
 10
39300.0
 20
3447.8809246334386
 10
39450.0
 20
3586.216561746659
 10
39600.0
 20
3722.4481605581586
 10
39750.0
 20
3856.5487885570346
 10
39900.0
 20
3988.4903696500933
 10
40050.0
 20
4118.243599624686
 10
40200.0
 20
4245.777852535939
 10
40350.0
 20
4371.061076720986
 10
40500.0
 20
4494.059678908079
 10
40650.0
 20
4614.738394601719
 10
40800.0
 20
4733.060142572421
 10
40950.0
 20
4848.985860843324
 10
41100.0
 20
4962.474321021675
 10
41250.0
 20
5073.481917139185
 10
41400.0
 20
5181.962424298295
 10
41550.0
 20
5287.866721312245
 10
41700.0
 20
5391.142470094146
 10
41850.0
 20
5491.733742679506
 10
42000.0
 20
5589.580584295417
 10
42150.0
 20
5684.618497583648
 10
42300.0
 20
5776.777828599925
 10
42450.0
 20
5865.983029033774
 10
42600.0
 20
5952.151760437314
 10
42750.0
 20
6035.193793892302
 10
42900.0
 20
6115.009640520493
 10
43050.0
 20
6191.488821320028
 10
43200.0
 20
6264.50764348807
  0
CIRCLE
  5
315
330
17
100
AcDbEntity
  8
A-CUT
100
AcDbCircle
 10
39750.0
 20
3431.5487885570346
 30
0.0
 40
150.0
  0
MTEXT
  5
316
330
17
100
AcDbEntity
  8
A-TEXT
100
AcDbMText
 10
39570.0
 20
3071.5487885570346
 30
0.0
 40
150.0
 71
1
  1
檩 1
  7
GUJIAN_CN
  0
CIRCLE
  5
317
330
17
100
AcDbEntity
  8
A-CUT
100
AcDbCircle
 10
41100.0
 20
4537.474321021675
 30
0.0
 40
150.0
  0
MTEXT
  5
318
330
17
100
AcDbEntity
  8
A-TEXT
100
AcDbMText
 10
40920.0
 20
4177.474321021675
 30
0.0
 40
150.0
 71
1
  1
檩 2
  7
GUJIAN_CN
  0
CIRCLE
  5
319
330
17
100
AcDbEntity
  8
A-CUT
100
AcDbCircle
 10
42450.0
 20
5440.983029033774
 30
0.0
 40
150.0
  0
MTEXT
  5
31A
330
17
100
AcDbEntity
  8
A-TEXT
100
AcDbMText
 10
42270.0
 20
5080.983029033774
 30
0.0
 40
150.0
 71
1
  1
檩 3
  7
GUJIAN_CN
  0
INSERT
  5
31B
330
17
100
AcDbEntity
  8
A-TIMBER
100
AcDbBlockReference
  2
BRACKET
 10
40050.0
 20
2500.0
 30
0.0
 41
1.4
 42
1.4
  0
LWPOLYLINE
  5
31D
330
17
100
AcDbEntity
  8
A-CUT
100
AcDbPolyline
 90
4
 70
1
 10
39840.0
 20
0.0
 10
40260.0
 20
0.0
 10
40260.0
 20
2500.0
 10
39840.0
 20
2500.0
  0
LWPOLYLINE
  5
31E
330
17
100
AcDbEntity
  8
A-CUT
100
AcDbPolyline
 90
4
 70
1
 10
39350.0
 20
-500.0
 10
40750.0
 20
-500.0
 10
40750.0
 20
0.0
 10
39350.0
 20
0.0
  0
HATCH
  5
31F
330
17
100
AcDbEntity
  8
A-HATCH
 62
9
100
AcDbHatch
 10
0.0
 20
0.0
 30
0.0
210
0.0
220
0.0
230
1.0
  2
SOLID
 70
1
 71
0
 91
1
 92
3
 72
0
 73
1
 93
4
 10
39350.0
 20
-1000.0
 10
40750.0
 20
-1000.0
 10
40750.0
 20
-500.0
 10
39350.0
 20
-500.0
 97
0
 75
0
 76
1
 98
0
  0
MTEXT
  5
320
330
17
100
AcDbEntity
  8
A-TEXT
100
AcDbMText
 10
38700.0
 20
5750.0
 30
0.0
 40
210.0
 71
1
  1
1:20 檐口—承托—柱身—柱础构造详图
  7
GUJIAN_CN
  0
MTEXT
  5
321
330
17
100
AcDbEntity
  8
A-TEXT
100
AcDbMText
 10
38700.0
 20
5400.0
 30
0.0
 40
160.0
 71
1
  1
瓦面、望板、椽、檩与承托分层；全部为 DEMO
  7
GUJIAN_CN
  0
LINE
  5
322
330
17
100
AcDbEntity
  8
A-TEXT
100
AcDbLine
 10
40800.0
 20
4350.0
 30
0.0
 11
43700.0
 21
5000.0
 31
0.0
  0
MTEXT
  5
323
330
17
100
AcDbEntity
  8
A-TEXT
100
AcDbMText
 10
42100.0
 20
5050.0
 30
0.0
 40
160.0
 71
1
  1
瓦面三层表达
  7
GUJIAN_CN
  0
LINE
  5
324
330
17
100
AcDbEntity
  8
A-TEXT
100
AcDbLine
 10
40120.0
 20
2750.0
 30
0.0
 11
42500.0
 21
3200.0
 31
0.0
  0
MTEXT
  5
325
330
17
100
AcDbEntity
  8
A-TEXT
100
AcDbMText
 10
42550.0
 20
3200.0
 30
0.0
 40
160.0
 71
1
  1
承托构件
  7
GUJIAN_CN
  0
DIMENSION
  5
326
330
17
100
AcDbEntity
  8
A-DIM
100
AcDbDimension
280
0
  2
*D10
  3
GUJIAN-DIM
 10
39100.0
 20
0.0
 30
0.0
 11
39100.0
 21
1250.0
 31
0.0
 70
32
 71
5
  1
2500
100
AcDbAlignedDimension
 13
40050.0
 23
0.0
 33
0.0
 14
40050.0
 24
2500.0
 34
0.0
 50
90.0
100
AcDbRotatedDimension
  0
DIMENSION
  5
336
330
17
100
AcDbEntity
  8
A-DIM
100
AcDbDimension
280
0
  2
*D11
  3
GUJIAN-DIM
 10
39350.0
 20
-1250.0
 30
0.0
 11
40050.0
 21
-1250.0
 31
0.0
 70
32
 71
5
  1
1400
100
AcDbAlignedDimension
 13
39350.0
 23
-500.0
 33
0.0
 14
40750.0
 24
-500.0
 34
0.0
 50
0.0
100
AcDbRotatedDimension
  0
LWPOLYLINE
  5
346
330
17
100
AcDbEntity
  8
A-OUTLINE
100
AcDbPolyline
 90
4
 70
1
 10
-6900.0
 20
-22100.0
 10
6900.0
 20
-22100.0
 10
6900.0
 20
-11900.0
 10
-6900.0
 20
-11900.0
  0
LWPOLYLINE
  5
347
330
17
100
AcDbEntity
  8
A-ROOF
100
AcDbPolyline
 90
4
 70
1
 10
-7400.0
 20
-22600.0
 10
7400.0
 20
-22600.0
 10
3600.0
 20
-17000.0
 10
-3600.0
 20
-17000.0
  0
LWPOLYLINE
  5
348
330
17
100
AcDbEntity
  8
A-ROOF
100
AcDbPolyline
 90
4
 70
1
 10
-7400.0
 20
-11400.0
 10
7400.0
 20
-11400.0
 10
3600.0
 20
-17000.0
 10
-3600.0
 20
-17000.0
  0
LINE
  5
349
330
17
100
AcDbEntity
  8
A-AXIS
100
AcDbLine
 10
-6000.0
 20
-22000.0
 30
0.0
 11
-6000.0
 21
-12000.0
 31
0.0
  0
CIRCLE
  5
34A
330
17
100
AcDbEntity
  8
A-CUT
100
AcDbCircle
 10
-6000.0
 20
-21200.0
 30
0.0
 40
210.0
  0
CIRCLE
  5
34B
330
17
100
AcDbEntity
  8
A-CUT
100
AcDbCircle
 10
-6000.0
 20
-12800.0
 30
0.0
 40
210.0
  0
INSERT
  5
34C
330
17
100
AcDbEntity
  8
A-TIMBER
100
AcDbBlockReference
  2
BRACKET
 10
-6000.0
 20
-21200.0
 30
0.0
 41
0.45
 42
0.45
  0
LINE
  5
34E
330
17
100
AcDbEntity
  8
A-AXIS
100
AcDbLine
 10
-2400.0
 20
-22000.0
 30
0.0
 11
-2400.0
 21
-12000.0
 31
0.0
  0
CIRCLE
  5
34F
330
17
100
AcDbEntity
  8
A-CUT
100
AcDbCircle
 10
-2400.0
 20
-21200.0
 30
0.0
 40
210.0
  0
CIRCLE
  5
350
330
17
100
AcDbEntity
  8
A-CUT
100
AcDbCircle
 10
-2400.0
 20
-12800.0
 30
0.0
 40
210.0
  0
INSERT
  5
351
330
17
100
AcDbEntity
  8
A-TIMBER
100
AcDbBlockReference
  2
BRACKET
 10
-2400.0
 20
-21200.0
 30
0.0
 41
0.45
 42
0.45
  0
LINE
  5
353
330
17
100
AcDbEntity
  8
A-AXIS
100
AcDbLine
 10
2400.0
 20
-22000.0
 30
0.0
 11
2400.0
 21
-12000.0
 31
0.0
  0
CIRCLE
  5
354
330
17
100
AcDbEntity
  8
A-CUT
100
AcDbCircle
 10
2400.0
 20
-21200.0
 30
0.0
 40
210.0
  0
CIRCLE
  5
355
330
17
100
AcDbEntity
  8
A-CUT
100
AcDbCircle
 10
2400.0
 20
-12800.0
 30
0.0
 40
210.0
  0
INSERT
  5
356
330
17
100
AcDbEntity
  8
A-TIMBER
100
AcDbBlockReference
  2
BRACKET
 10
2400.0
 20
-21200.0
 30
0.0
 41
0.45
 42
0.45
  0
LINE
  5
358
330
17
100
AcDbEntity
  8
A-AXIS
100
AcDbLine
 10
6000.0
 20
-22000.0
 30
0.0
 11
6000.0
 21
-12000.0
 31
0.0
  0
CIRCLE
  5
359
330
17
100
AcDbEntity
  8
A-CUT
100
AcDbCircle
 10
6000.0
 20
-21200.0
 30
0.0
 40
210.0
  0
CIRCLE
  5
35A
330
17
100
AcDbEntity
  8
A-CUT
100
AcDbCircle
 10
6000.0
 20
-12800.0
 30
0.0
 40
210.0
  0
INSERT
  5
35B
330
17
100
AcDbEntity
  8
A-TIMBER
100
AcDbBlockReference
  2
BRACKET
 10
6000.0
 20
-21200.0
 30
0.0
 41
0.45
 42
0.45
  0
LINE
  5
35D
330
17
100
AcDbEntity
  8
A-AXIS
100
AcDbLine
 10
-6800.0
 20
-21200.0
 30
0.0
 11
6800.0
 21
-21200.0
 31
0.0
  0
LINE
  5
35E
330
17
100
AcDbEntity
  8
A-AXIS
100
AcDbLine
 10
-6800.0
 20
-12800.0
 30
0.0
 11
6800.0
 21
-12800.0
 31
0.0
  0
LINE
  5
35F
330
17
100
AcDbEntity
  8
A-PROJ
100
AcDbLine
 10
-7400.0
 20
-22600.0
 30
0.0
 11
-3600.0
 21
-17000.0
 31
0.0
  0
LINE
  5
360
330
17
100
AcDbEntity
  8
A-PROJ
100
AcDbLine
 10
-7400.0
 20
-11400.0
 30
0.0
 11
-3600.0
 21
-17000.0
 31
0.0
  0
LINE
  5
361
330
17
100
AcDbEntity
  8
A-PROJ
100
AcDbLine
 10
-6783.333333333333
 20
-22600.0
 30
0.0
 11
-3300.0
 21
-17000.0
 31
0.0
  0
LINE
  5
362
330
17
100
AcDbEntity
  8
A-PROJ
100
AcDbLine
 10
-6783.333333333333
 20
-11400.0
 30
0.0
 11
-3300.0
 21
-17000.0
 31
0.0
  0
LINE
  5
363
330
17
100
AcDbEntity
  8
A-PROJ
100
AcDbLine
 10
-6166.666666666667
 20
-22600.0
 30
0.0
 11
-3000.0
 21
-17000.0
 31
0.0
  0
LINE
  5
364
330
17
100
AcDbEntity
  8
A-PROJ
100
AcDbLine
 10
-6166.666666666667
 20
-11400.0
 30
0.0
 11
-3000.0
 21
-17000.0
 31
0.0
  0
LINE
  5
365
330
17
100
AcDbEntity
  8
A-PROJ
100
AcDbLine
 10
-5550.0
 20
-22600.0
 30
0.0
 11
-2700.0
 21
-17000.0
 31
0.0
  0
LINE
  5
366
330
17
100
AcDbEntity
  8
A-PROJ
100
AcDbLine
 10
-5550.0
 20
-11400.0
 30
0.0
 11
-2700.0
 21
-17000.0
 31
0.0
  0
LINE
  5
367
330
17
100
AcDbEntity
  8
A-PROJ
100
AcDbLine
 10
-4933.333333333334
 20
-22600.0
 30
0.0
 11
-2400.0000000000005
 21
-17000.0
 31
0.0
  0
LINE
  5
368
330
17
100
AcDbEntity
  8
A-PROJ
100
AcDbLine
 10
-4933.333333333334
 20
-11400.0
 30
0.0
 11
-2400.0000000000005
 21
-17000.0
 31
0.0
  0
LINE
  5
369
330
17
100
AcDbEntity
  8
A-PROJ
100
AcDbLine
 10
-4316.666666666667
 20
-22600.0
 30
0.0
 11
-2100.0000000000005
 21
-17000.0
 31
0.0
  0
LINE
  5
36A
330
17
100
AcDbEntity
  8
A-PROJ
100
AcDbLine
 10
-4316.666666666667
 20
-11400.0
 30
0.0
 11
-2100.0000000000005
 21
-17000.0
 31
0.0
  0
LINE
  5
36B
330
17
100
AcDbEntity
  8
A-PROJ
100
AcDbLine
 10
-3700.0
 20
-22600.0
 30
0.0
 11
-1800.0
 21
-17000.0
 31
0.0
  0
LINE
  5
36C
330
17
100
AcDbEntity
  8
A-PROJ
100
AcDbLine
 10
-3700.0
 20
-11400.0
 30
0.0
 11
-1800.0
 21
-17000.0
 31
0.0
  0
LINE
  5
36D
330
17
100
AcDbEntity
  8
A-PROJ
100
AcDbLine
 10
-3083.333333333334
 20
-22600.0
 30
0.0
 11
-1500.0000000000002
 21
-17000.0
 31
0.0
  0
LINE
  5
36E
330
17
100
AcDbEntity
  8
A-PROJ
100
AcDbLine
 10
-3083.333333333334
 20
-11400.0
 30
0.0
 11
-1500.0000000000002
 21
-17000.0
 31
0.0
  0
LINE
  5
36F
330
17
100
AcDbEntity
  8
A-PROJ
100
AcDbLine
 10
-2466.666666666667
 20
-22600.0
 30
0.0
 11
-1200.0000000000002
 21
-17000.0
 31
0.0
  0
LINE
  5
370
330
17
100
AcDbEntity
  8
A-PROJ
100
AcDbLine
 10
-2466.666666666667
 20
-11400.0
 30
0.0
 11
-1200.0000000000002
 21
-17000.0
 31
0.0
  0
LINE
  5
371
330
17
100
AcDbEntity
  8
A-PROJ
100
AcDbLine
 10
-1850.0
 20
-22600.0
 30
0.0
 11
-900.0
 21
-17000.0
 31
0.0
  0
LINE
  5
372
330
17
100
AcDbEntity
  8
A-PROJ
100
AcDbLine
 10
-1850.0
 20
-11400.0
 30
0.0
 11
-900.0
 21
-17000.0
 31
0.0
  0
LINE
  5
373
330
17
100
AcDbEntity
  8
A-PROJ
100
AcDbLine
 10
-1233.333333333334
 20
-22600.0
 30
0.0
 11
-600.0000000000002
 21
-17000.0
 31
0.0
  0
LINE
  5
374
330
17
100
AcDbEntity
  8
A-PROJ
100
AcDbLine
 10
-1233.333333333334
 20
-11400.0
 30
0.0
 11
-600.0000000000002
 21
-17000.0
 31
0.0
  0
LINE
  5
375
330
17
100
AcDbEntity
  8
A-PROJ
100
AcDbLine
 10
-616.666666666667
 20
-22600.0
 30
0.0
 11
-300.0000000000001
 21
-17000.0
 31
0.0
  0
LINE
  5
376
330
17
100
AcDbEntity
  8
A-PROJ
100
AcDbLine
 10
-616.666666666667
 20
-11400.0
 30
0.0
 11
-300.0000000000001
 21
-17000.0
 31
0.0
  0
LINE
  5
377
330
17
100
AcDbEntity
  8
A-PROJ
100
AcDbLine
 10
0.0
 20
-22600.0
 30
0.0
 11
0.0
 21
-17000.0
 31
0.0
  0
LINE
  5
378
330
17
100
AcDbEntity
  8
A-PROJ
100
AcDbLine
 10
0.0
 20
-11400.0
 30
0.0
 11
0.0
 21
-17000.0
 31
0.0
  0
LINE
  5
379
330
17
100
AcDbEntity
  8
A-PROJ
100
AcDbLine
 10
616.6666666666661
 20
-22600.0
 30
0.0
 11
299.99999999999966
 21
-17000.0
 31
0.0
  0
LINE
  5
37A
330
17
100
AcDbEntity
  8
A-PROJ
100
AcDbLine
 10
616.6666666666661
 20
-11400.0
 30
0.0
 11
299.99999999999966
 21
-17000.0
 31
0.0
  0
LINE
  5
37B
330
17
100
AcDbEntity
  8
A-PROJ
100
AcDbLine
 10
1233.3333333333321
 20
-22600.0
 30
0.0
 11
599.9999999999993
 21
-17000.0
 31
0.0
  0
LINE
  5
37C
330
17
100
AcDbEntity
  8
A-PROJ
100
AcDbLine
 10
1233.3333333333321
 20
-11400.0
 30
0.0
 11
599.9999999999993
 21
-17000.0
 31
0.0
  0
LINE
  5
37D
330
17
100
AcDbEntity
  8
A-PROJ
100
AcDbLine
 10
1850.0
 20
-22600.0
 30
0.0
 11
900.0
 21
-17000.0
 31
0.0
  0
LINE
  5
37E
330
17
100
AcDbEntity
  8
A-PROJ
100
AcDbLine
 10
1850.0
 20
-11400.0
 30
0.0
 11
900.0
 21
-17000.0
 31
0.0
  0
LINE
  5
37F
330
17
100
AcDbEntity
  8
A-PROJ
100
AcDbLine
 10
2466.666666666666
 20
-22600.0
 30
0.0
 11
1199.9999999999998
 21
-17000.0
 31
0.0
  0
LINE
  5
380
330
17
100
AcDbEntity
  8
A-PROJ
100
AcDbLine
 10
2466.666666666666
 20
-11400.0
 30
0.0
 11
1199.9999999999998
 21
-17000.0
 31
0.0
  0
LINE
  5
381
330
17
100
AcDbEntity
  8
A-PROJ
100
AcDbLine
 10
3083.333333333332
 20
-22600.0
 30
0.0
 11
1499.9999999999995
 21
-17000.0
 31
0.0
  0
LINE
  5
382
330
17
100
AcDbEntity
  8
A-PROJ
100
AcDbLine
 10
3083.333333333332
 20
-11400.0
 30
0.0
 11
1499.9999999999995
 21
-17000.0
 31
0.0
  0
LINE
  5
383
330
17
100
AcDbEntity
  8
A-PROJ
100
AcDbLine
 10
3700.0
 20
-22600.0
 30
0.0
 11
1800.0
 21
-17000.0
 31
0.0
  0
LINE
  5
384
330
17
100
AcDbEntity
  8
A-PROJ
100
AcDbLine
 10
3700.0
 20
-11400.0
 30
0.0
 11
1800.0
 21
-17000.0
 31
0.0
  0
LINE
  5
385
330
17
100
AcDbEntity
  8
A-PROJ
100
AcDbLine
 10
4316.666666666666
 20
-22600.0
 30
0.0
 11
2099.9999999999995
 21
-17000.0
 31
0.0
  0
LINE
  5
386
330
17
100
AcDbEntity
  8
A-PROJ
100
AcDbLine
 10
4316.666666666666
 20
-11400.0
 30
0.0
 11
2099.9999999999995
 21
-17000.0
 31
0.0
  0
LINE
  5
387
330
17
100
AcDbEntity
  8
A-PROJ
100
AcDbLine
 10
4933.333333333332
 20
-22600.0
 30
0.0
 11
2399.9999999999995
 21
-17000.0
 31
0.0
  0
LINE
  5
388
330
17
100
AcDbEntity
  8
A-PROJ
100
AcDbLine
 10
4933.333333333332
 20
-11400.0
 30
0.0
 11
2399.9999999999995
 21
-17000.0
 31
0.0
  0
LINE
  5
389
330
17
100
AcDbEntity
  8
A-PROJ
100
AcDbLine
 10
5550.0
 20
-22600.0
 30
0.0
 11
2700.0
 21
-17000.0
 31
0.0
  0
LINE
  5
38A
330
17
100
AcDbEntity
  8
A-PROJ
100
AcDbLine
 10
5550.0
 20
-11400.0
 30
0.0
 11
2700.0
 21
-17000.0
 31
0.0
  0
LINE
  5
38B
330
17
100
AcDbEntity
  8
A-PROJ
100
AcDbLine
 10
6166.666666666666
 20
-22600.0
 30
0.0
 11
2999.9999999999995
 21
-17000.0
 31
0.0
  0
LINE
  5
38C
330
17
100
AcDbEntity
  8
A-PROJ
100
AcDbLine
 10
6166.666666666666
 20
-11400.0
 30
0.0
 11
2999.9999999999995
 21
-17000.0
 31
0.0
  0
LINE
  5
38D
330
17
100
AcDbEntity
  8
A-PROJ
100
AcDbLine
 10
6783.333333333332
 20
-22600.0
 30
0.0
 11
3299.9999999999995
 21
-17000.0
 31
0.0
  0
LINE
  5
38E
330
17
100
AcDbEntity
  8
A-PROJ
100
AcDbLine
 10
6783.333333333332
 20
-11400.0
 30
0.0
 11
3299.9999999999995
 21
-17000.0
 31
0.0
  0
LINE
  5
38F
330
17
100
AcDbEntity
  8
A-PROJ
100
AcDbLine
 10
7400.0
 20
-22600.0
 30
0.0
 11
3600.0
 21
-17000.0
 31
0.0
  0
LINE
  5
390
330
17
100
AcDbEntity
  8
A-PROJ
100
AcDbLine
 10
7400.0
 20
-11400.0
 30
0.0
 11
3600.0
 21
-17000.0
 31
0.0
  0
DIMENSION
  5
391
330
17
100
AcDbEntity
  8
A-DIM
100
AcDbDimension
280
0
  2
*D12
  3
GUJIAN-DIM
 10
-6000.0
 20
-23500.0
 30
0.0
 11
0.0
 21
-23500.0
 31
0.0
 70
32
 71
5
  1
12000
100
AcDbAlignedDimension
 13
-6000.0
 23
-21200.0
 33
0.0
 14
6000.0
 24
-21200.0
 34
0.0
 50
0.0
100
AcDbRotatedDimension
  0
DIMENSION
  5
3A1
330
17
100
AcDbEntity
  8
A-DIM
100
AcDbDimension
280
0
  2
*D13
  3
GUJIAN-DIM
 10
7700.0
 20
-21200.0
 30
0.0
 11
7700.0
 21
-17000.0
 31
0.0
 70
32
 71
5
  1
8400
100
AcDbAlignedDimension
 13
6000.0
 23
-21200.0
 33
0.0
 14
6000.0
 24
-12800.0
 34
0.0
 50
90.0
100
AcDbRotatedDimension
  0
MTEXT
  5
3B1
330
17
100
AcDbEntity
  8
A-TEXT
100
AcDbMText
 10
-6800.0
 20
-11300.0
 30
0.0
 40
220.0
 71
1
  1
屋顶平面 1:50
  7
GUJIAN_CN
  0
MTEXT
  5
3B2
330
17
100
AcDbEntity
  8
A-TEXT
100
AcDbMText
 10
-7000.0
 20
10800.0
 30
0.0
 40
260.0
 71
1
  1
南立面 1:50
  7
GUJIAN_CN
  0
MTEXT
  5
3B3
330
17
100
AcDbEntity
  8
A-TEXT
100
AcDbMText
 10
16000.0
 20
10800.0
 30
0.0
 40
260.0
 71
1
  1
横剖面 1:50
  7
GUJIAN_CN
  0
MTEXT
  5
3B4
330
17
100
AcDbEntity
  8
A-TEXT
100
AcDbMText
 10
33500.0
 20
10800.0
 30
0.0
 40
260.0
 71
1
  1
檐口构造详图 1:20
  7
GUJIAN_CN
  0
MTEXT
  5
3B5
330
17
100
AcDbEntity
  8
A-TEXT
100
AcDbMText
 10
-7000.0
 20
-10000.0
 30
0.0
 40
260.0
 71
1
  1
屋顶平面 1:50
  7
GUJIAN_CN
  0
ENDSEC
  0
SECTION
  2
OBJECTS
  0
DICTIONARY
  5
A
330
0
100
AcDbDictionary
281
1
  3
ACAD_COLOR
350
B
  3
ACAD_GROUP
350
C
  3
ACAD_LAYOUT
350
D
  3
ACAD_MATERIAL
350
E
  3
ACAD_MLEADERSTYLE
350
F
  3
ACAD_MLINESTYLE
350
10
  3
ACAD_PLOTSETTINGS
350
11
  3
ACAD_PLOTSTYLENAME
350
12
  3
ACAD_SCALELIST
350
14
  3
ACAD_TABLESTYLE
350
15
  3
ACAD_VISUALSTYLE
350
16
  3
EZDXF_META
350
2D
  0
DICTIONARY
  5
B
330
A
100
AcDbDictionary
281
1
  0
DICTIONARY
  5
C
330
A
100
AcDbDictionary
281
1
  0
DICTIONARY
  5
D
330
A
100
AcDbDictionary
281
1
  3
Model
350
1A
  3
Layout1
350
1E
  3
A1-T0B
350
3B9
  0
DICTIONARY
  5
E
330
A
100
AcDbDictionary
281
1
  3
ByBlock
350
1F
  3
ByLayer
350
20
  3
Global
350
21
  0
DICTIONARY
  5
F
330
A
100
AcDbDictionary
281
1
  3
Standard
350
2C
  0
DICTIONARY
  5
10
330
A
100
AcDbDictionary
281
1
  3
Standard
350
22
  0
DICTIONARY
  5
11
330
A
100
AcDbDictionary
281
1
  0
ACDBDICTIONARYWDFLT
  5
12
330
A
100
AcDbDictionary
281
1
  3
Normal
350
13
100
AcDbDictionaryWithDefault
340
13
  0
ACDBPLACEHOLDER
  5
13
330
12
  0
DICTIONARY
  5
14
330
A
100
AcDbDictionary
281
1
  0
DICTIONARY
  5
15
330
A
100
AcDbDictionary
281
1
  0
DICTIONARY
  5
16
330
A
100
AcDbDictionary
281
1
  0
LAYOUT
  5
1A
330
D
100
AcDbPlotSettings
  1

  4
A3
  6

 40
7.5
 41
20.0
 42
7.5
 43
20.0
 44
420.0
 45
297.0
 46
0.0
 47
0.0
 48
0.0
 49
0.0
140
0.0
141
0.0
142
1.0
143
1.0
 70
1024
 72
1
 73
0
 74
5
  7

 75
16
 76
0
 77
2
 78
300
147
1.0
148
0.0
149
0.0
100
AcDbLayout
  1
Model
 70
1
 71
0
 10
0.0
 20
0.0
 11
420.0
 21
297.0
 12
0.0
 22
0.0
 32
0.0
 14
1e+20
 24
1e+20
 34
1e+20
 15
-1e+20
 25
-1e+20
 35
-1e+20
146
0.0
 13
0.0
 23
0.0
 33
0.0
 16
1.0
 26
0.0
 36
0.0
 17
0.0
 27
1.0
 37
0.0
 76
1
330
17
  0
LAYOUT
  5
1E
330
D
100
AcDbPlotSettings
  1

  4
A3
  6

 40
7.5
 41
20.0
 42
7.5
 43
20.0
 44
420.0
 45
297.0
 46
0.0
 47
0.0
 48
0.0
 49
0.0
140
0.0
141
0.0
142
1.0
143
1.0
 70
0
 72
1
 73
0
 74
5
  7

 75
16
 76
0
 77
2
 78
300
147
1.0
148
0.0
149
0.0
100
AcDbLayout
  1
Layout1
 70
1
 71
1
 10
0.0
 20
0.0
 11
420.0
 21
297.0
 12
0.0
 22
0.0
 32
0.0
 14
1e+20
 24
1e+20
 34
1e+20
 15
-1e+20
 25
-1e+20
 35
-1e+20
146
0.0
 13
0.0
 23
0.0
 33
0.0
 16
1.0
 26
0.0
 36
0.0
 17
0.0
 27
1.0
 37
0.0
 76
1
330
1B
  0
MATERIAL
  5
1F
102
{ACAD_REACTORS
330
E
102
}
330
E
100
AcDbMaterial
  1
ByBlock
  2

 70
0
 40
1.0
 71
1
 41
1.0
 91
-1023410177
 42
1.0
 72
1
  3

 73
1
 74
1
 75
1
 44
0.5
 73
0
 45
1.0
 46
1.0
 77
1
  4

 78
1
 79
1
170
1
 48
1.0
171
1
  6

172
1
173
1
174
1
140
1.0
141
1.0
175
1
  7

176
1
177
1
178
1
143
1.0
179
1
  8

270
1
271
1
272
1
145
1.0
146
1.0
273
1
  9

274
1
275
1
276
1
 42
1.0
 72
1
  3

 73
1
 74
1
 75
1
 94
63
  0
MATERIAL
  5
20
102
{ACAD_REACTORS
330
E
102
}
330
E
100
AcDbMaterial
  1
ByLayer
  2

 70
0
 40
1.0
 71
1
 41
1.0
 91
-1023410177
 42
1.0
 72
1
  3

 73
1
 74
1
 75
1
 44
0.5
 73
0
 45
1.0
 46
1.0
 77
1
  4

 78
1
 79
1
170
1
 48
1.0
171
1
  6

172
1
173
1
174
1
140
1.0
141
1.0
175
1
  7

176
1
177
1
178
1
143
1.0
179
1
  8

270
1
271
1
272
1
145
1.0
146
1.0
273
1
  9

274
1
275
1
276
1
 42
1.0
 72
1
  3

 73
1
 74
1
 75
1
 94
63
  0
MATERIAL
  5
21
102
{ACAD_REACTORS
330
E
102
}
330
E
100
AcDbMaterial
  1
Global
  2

 70
0
 40
1.0
 71
1
 41
1.0
 91
-1023410177
 42
1.0
 72
1
  3

 73
1
 74
1
 75
1
 44
0.5
 73
0
 45
1.0
 46
1.0
 77
1
  4

 78
1
 79
1
170
1
 48
1.0
171
1
  6

172
1
173
1
174
1
140
1.0
141
1.0
175
1
  7

176
1
177
1
178
1
143
1.0
179
1
  8

270
1
271
1
272
1
145
1.0
146
1.0
273
1
  9

274
1
275
1
276
1
 42
1.0
 72
1
  3

 73
1
 74
1
 75
1
 94
63
  0
MLINESTYLE
  5
22
102
{ACAD_REACTORS
330
10
102
}
330
10
100
AcDbMlineStyle
  2
Standard
 70
0
  3

 62
256
 51
90.0
 52
90.0
 71
2
 49
0.5
 62
256
  6
BYLAYER
 49
-0.5
 62
256
  6
BYLAYER
  0
MLEADERSTYLE
  5
2C
102
{ACAD_REACTORS
330
F
102
}
330
F
100
AcDbMLeaderStyle
179
2
170
2
171
1
172
0
 90
2
 40
0.0
 41
0.0
173
1
 91
-1056964608
 92
-2
290
1
 42
2.0
291
1
 43
8.0
  3
Standard
 44
4.0
300

342
29
174
1
175
1
176
0
178
1
 93
-1056964608
 45
4.0
292
0
297
0
 46
4.0
 94
-1056964608
 47
1.0
 49
1.0
140
1.0
294
1
141
0.0
177
0
142
1.0
295
0
296
0
143
3.75
271
0
272
9
273
9
  0
DICTIONARY
  5
2D
330
A
100
AcDbDictionary
280
1
281
1
  3
CREATED_BY_EZDXF
350
2E
  3
WRITTEN_BY_EZDXF
350
3C2
  0
DICTIONARYVAR
  5
2E
330
2D
100
DictionaryVariables
280
0
  1
1.4.4 @ 2026-08-11T00:23:32.525505+00:00
  0
LAYOUT
  5
3B9
330
D
100
AcDbPlotSettings
  1

  2
DWG to PDF.pc3
  4
ezdxf_(841.00_x_594.00_MM)
  6

 40
10.0
 41
10.0
 42
10.0
 43
10.0
 44
841.0
 45
594.0
 46
0.0
 47
0.0
 48
0.0
 49
0.0
140
0.0
141
0.0
142
1.0
143
1.0
 70
672
 72
1
 73
0
 74
5
  7

 75
16
 76
0
 77
2
 78
300
147
1.0
148
0.0
149
0.0
100
AcDbLayout
  1
A1-T0B
 70
1
 71
3
 10
-10.0
 20
-10.0
 11
831.0
 21
584.0
 12
0.0
 22
0.0
 32
0.0
 14
1e+20
 24
1e+20
 34
1e+20
 15
-1e+20
 25
-1e+20
 35
-1e+20
146
0.0
 13
0.0
 23
0.0
 33
0.0
 16
1.0
 26
0.0
 36
0.0
 17
0.0
 27
1.0
 37
0.0
 76
1
330
3B6
331
3BA
  0
DICTIONARYVAR
  5
3C2
330
2D
100
DictionaryVariables
280
0
  1
1.4.4 @ 2026-08-11T00:23:32.538522+00:00
  0
ENDSEC
  0
EOF
