ISO-10303-21;
HEADER;
FILE_DESCRIPTION(('ViewDefinition [ReferenceView_V1.2]'),'2;1');
FILE_NAME('t0-minimal-hall.ifc','2026-08-11T00:00:00',('JIAJIA'),('GuJian Workbench T0'),'IfcOpenShell 0.8.5','t0-spike-1','');
FILE_SCHEMA(('IFC4'));
ENDSEC;
DATA;
#1=IFCSIUNIT(*,.LENGTHUNIT.,$,.METRE.);
#2=IFCSIUNIT(*,.PLANEANGLEUNIT.,$,.RADIAN.);
#3=IFCUNITASSIGNMENT((#1,#2));
#4=IFCCARTESIANPOINT((0.,0.,0.));
#5=IFCDIRECTION((0.,0.,1.));
#6=IFCDIRECTION((1.,0.,0.));
#7=IFCAXIS2PLACEMENT3D(#4,#5,#6);
#8=IFCDIRECTION((0.,1.));
#9=IFCGEOMETRICREPRESENTATIONCONTEXT('Model','Model',3,1.0000000000000001E-05,#7,#8);
#10=IFCPROJECT('0xaavNPtjQd8JoLgOZ$63J',$,'T0 \X2\53C2657053164E945F0095F48BD59A8C5EFA7B51\X0\',$,$,'T0 CAD feasibility fixture; DEMO ONLY',$,(#9),#3);
#11=IFCCARTESIANPOINT((0.,0.,0.));
#12=IFCDIRECTION((0.,0.,1.));
#13=IFCDIRECTION((1.,0.,0.));
#14=IFCAXIS2PLACEMENT3D(#11,#12,#13);
#15=IFCLOCALPLACEMENT($,#14);
#16=IFCSITE('1YTj2jmG5PuBTVxfNCNeiO',$,'\X2\8BD59A8C573A5730\X0\',$,$,#15,$,$,.ELEMENT.,$,$,$,$,$);
#17=IFCCARTESIANPOINT((0.,0.,0.));
#18=IFCDIRECTION((0.,0.,1.));
#19=IFCDIRECTION((1.,0.,0.));
#20=IFCAXIS2PLACEMENT3D(#17,#18,#19);
#21=IFCLOCALPLACEMENT(#15,#20);
#22=IFCBUILDING('3du$P805DJIR_apIAmQX_9',$,'T0 \X2\53C2657053164E945F0095F48BD59A8C5EFA7B51\X0\',$,$,#21,$,$,.ELEMENT.,$,$,$);
#23=IFCCARTESIANPOINT((0.,0.,0.));
#24=IFCDIRECTION((0.,0.,1.));
#25=IFCDIRECTION((1.,0.,0.));
#26=IFCAXIS2PLACEMENT3D(#23,#24,#25);
#27=IFCLOCALPLACEMENT(#21,#26);
#28=IFCBUILDINGSTOREY('2xzH0jzwfVuh9VOKHr_lg_',$,'\X2\99965C42\X0\',$,$,#27,$,$,.ELEMENT.,0.);
#29=IFCRELAGGREGATES('3MqpMbJCzH9uFx7jxwL0Ju',$,$,$,#10,(#16));
#30=IFCRELAGGREGATES('1fe1ABhRfL6hVTrOVq1sSU',$,$,$,#16,(#22));
#31=IFCRELAGGREGATES('2J2ZRC7q5Q4AulVeZsdUjO',$,$,$,#22,(#28));
#32=IFCCARTESIANPOINT((0.,0.));
#33=IFCDIRECTION((1.,0.));
#34=IFCAXIS2PLACEMENT2D(#32,#33);
#35=IFCRECTANGLEPROFILEDEF(.AREA.,$,#34,12.199999999999999,8.);
#36=IFCCARTESIANPOINT((0.,0.,0.));
#37=IFCDIRECTION((0.,0.,1.));
#38=IFCDIRECTION((1.,0.,0.));
#39=IFCAXIS2PLACEMENT3D(#36,#37,#38);
#40=IFCDIRECTION((0.,0.,1.));
#41=IFCEXTRUDEDAREASOLID(#35,#39,#40,0.29999999999999999);
#42=IFCSHAPEREPRESENTATION(#9,'Body','SweptSolid',(#41));
#43=IFCPRODUCTDEFINITIONSHAPE($,$,(#42));
#44=IFCCARTESIANPOINT((5.7000000000000002,3.6000000000000001,0.));
#45=IFCDIRECTION((0.,0.,1.));
#46=IFCDIRECTION((1.,0.,0.));
#47=IFCAXIS2PLACEMENT3D(#44,#45,#46);
#48=IFCLOCALPLACEMENT(#27,#47);
#49=IFCSLAB('0YW8ne_QLK0u6rTZrXKu0B',$,'\X2\53F057FA\X0\',$,$,#48,#43,'22808c68-f9a5-5403-81b5-763d6153800b',$);
#50=IFCPROPERTYSINGLEVALUE('EntityId',$,IFCIDENTIFIER('22808c68-f9a5-5403-81b5-763d6153800b'),$);
#51=IFCPROPERTYSINGLEVALUE('ProducerType',$,IFCLABEL('demo'),$);
#52=IFCPROPERTYSINGLEVALUE('FixtureId',$,IFCIDENTIFIER('t0-minimal-hall-v1'),$);
#53=IFCPROPERTYSINGLEVALUE('SourceKey',$,IFCIDENTIFIER('slab:ground'),$);
#54=IFCPROPERTYSINGLEVALUE('SpecHash',$,IFCIDENTIFIER('328cb07efa23ec186172074c38bf11018b904adf07d125115f3471685556e21c'),$);
#55=IFCPROPERTYSET('2AuUNWBrDPfw7bMBV4YtAt',$,'Pset_GuJianSource',$,(#50,#51,#52,#53,#54));
#56=IFCRELDEFINESBYPROPERTIES('2Dmp4zqHnM68auTnMqTyl_',$,$,$,(#49),#55);
#57=IFCCARTESIANPOINT((0.,0.));
#58=IFCDIRECTION((1.,0.));
#59=IFCAXIS2PLACEMENT2D(#57,#58);
#60=IFCRECTANGLEPROFILEDEF(.AREA.,$,#59,0.35999999999999999,0.35999999999999999);
#61=IFCCARTESIANPOINT((0.,0.,0.));
#62=IFCDIRECTION((0.,0.,1.));
#63=IFCDIRECTION((1.,0.,0.));
#64=IFCAXIS2PLACEMENT3D(#61,#62,#63);
#65=IFCDIRECTION((0.,0.,1.));
#66=IFCEXTRUDEDAREASOLID(#60,#64,#65,3.8999999999999999);
#67=IFCSHAPEREPRESENTATION(#9,'Body','SweptSolid',(#66));
#68=IFCPRODUCTDEFINITIONSHAPE($,$,(#67));
#69=IFCCARTESIANPOINT((0.,0.,0.30000000000000004));
#70=IFCDIRECTION((0.,0.,1.));
#71=IFCDIRECTION((1.,0.,0.));
#72=IFCAXIS2PLACEMENT3D(#69,#70,#71);
#73=IFCLOCALPLACEMENT(#27,#72);
#74=IFCCOLUMN('3E_t8qRgTL_90UZgP9iUFS',$,'south column 1',$,$,#73,#68,'cefb7234-6ea7-55f8-901e-8ea649b1e3dc',$);
#75=IFCPROPERTYSINGLEVALUE('EntityId',$,IFCIDENTIFIER('cefb7234-6ea7-55f8-901e-8ea649b1e3dc'),$);
#76=IFCPROPERTYSINGLEVALUE('ProducerType',$,IFCLABEL('demo'),$);
#77=IFCPROPERTYSINGLEVALUE('FixtureId',$,IFCIDENTIFIER('t0-minimal-hall-v1'),$);
#78=IFCPROPERTYSINGLEVALUE('SourceKey',$,IFCIDENTIFIER('column:south:0'),$);
#79=IFCPROPERTYSINGLEVALUE('SpecHash',$,IFCIDENTIFIER('328cb07efa23ec186172074c38bf11018b904adf07d125115f3471685556e21c'),$);
#80=IFCPROPERTYSET('3h2LhmLtPJpATWej_EBvDa',$,'Pset_GuJianSource',$,(#75,#76,#77,#78,#79));
#81=IFCRELDEFINESBYPROPERTIES('1C74UbOK9JBAzNxEk1DA7b',$,$,$,(#74),#80);
#82=IFCCARTESIANPOINT((0.,0.));
#83=IFCDIRECTION((1.,0.));
#84=IFCAXIS2PLACEMENT2D(#82,#83);
#85=IFCRECTANGLEPROFILEDEF(.AREA.,$,#84,0.35999999999999999,0.35999999999999999);
#86=IFCCARTESIANPOINT((0.,0.,0.));
#87=IFCDIRECTION((0.,0.,1.));
#88=IFCDIRECTION((1.,0.,0.));
#89=IFCAXIS2PLACEMENT3D(#86,#87,#88);
#90=IFCDIRECTION((0.,0.,1.));
#91=IFCEXTRUDEDAREASOLID(#85,#89,#90,3.8999999999999999);
#92=IFCSHAPEREPRESENTATION(#9,'Body','SweptSolid',(#91));
#93=IFCPRODUCTDEFINITIONSHAPE($,$,(#92));
#94=IFCCARTESIANPOINT((2.1000000000000001,0.,0.30000000000000004));
#95=IFCDIRECTION((0.,0.,1.));
#96=IFCDIRECTION((1.,0.,0.));
#97=IFCAXIS2PLACEMENT3D(#94,#95,#96);
#98=IFCLOCALPLACEMENT(#27,#97);
#99=IFCCOLUMN('03DVK0TfbPUfzCX$wR$POb',$,'south column 2',$,$,#98,#93,'0335f500-7699-597a-9f4c-87fe9bfd9625',$);
#100=IFCPROPERTYSINGLEVALUE('EntityId',$,IFCIDENTIFIER('0335f500-7699-597a-9f4c-87fe9bfd9625'),$);
#101=IFCPROPERTYSINGLEVALUE('ProducerType',$,IFCLABEL('demo'),$);
#102=IFCPROPERTYSINGLEVALUE('FixtureId',$,IFCIDENTIFIER('t0-minimal-hall-v1'),$);
#103=IFCPROPERTYSINGLEVALUE('SourceKey',$,IFCIDENTIFIER('column:south:1'),$);
#104=IFCPROPERTYSINGLEVALUE('SpecHash',$,IFCIDENTIFIER('328cb07efa23ec186172074c38bf11018b904adf07d125115f3471685556e21c'),$);
#105=IFCPROPERTYSET('0Jqi7X73vTyAlKaIuRLM3e',$,'Pset_GuJianSource',$,(#100,#101,#102,#103,#104));
#106=IFCRELDEFINESBYPROPERTIES('1WWdBSyffUFwDuzeTfe2Xd',$,$,$,(#99),#105);
#107=IFCCARTESIANPOINT((0.,0.));
#108=IFCDIRECTION((1.,0.));
#109=IFCAXIS2PLACEMENT2D(#107,#108);
#110=IFCRECTANGLEPROFILEDEF(.AREA.,$,#109,0.35999999999999999,0.35999999999999999);
#111=IFCCARTESIANPOINT((0.,0.,0.));
#112=IFCDIRECTION((0.,0.,1.));
#113=IFCDIRECTION((1.,0.,0.));
#114=IFCAXIS2PLACEMENT3D(#111,#112,#113);
#115=IFCDIRECTION((0.,0.,1.));
#116=IFCEXTRUDEDAREASOLID(#110,#114,#115,3.8999999999999999);
#117=IFCSHAPEREPRESENTATION(#9,'Body','SweptSolid',(#116));
#118=IFCPRODUCTDEFINITIONSHAPE($,$,(#117));
#119=IFCCARTESIANPOINT((4.5,0.,0.30000000000000004));
#120=IFCDIRECTION((0.,0.,1.));
#121=IFCDIRECTION((1.,0.,0.));
#122=IFCAXIS2PLACEMENT3D(#119,#120,#121);
#123=IFCLOCALPLACEMENT(#27,#122);
#124=IFCCOLUMN('1KEAGYXiHU38FrHti7tvkW',$,'south column 3',$,$,#123,#118,'5438a422-86c4-5e0c-83f5-477b07df9ba0',$);
#125=IFCPROPERTYSINGLEVALUE('EntityId',$,IFCIDENTIFIER('5438a422-86c4-5e0c-83f5-477b07df9ba0'),$);
#126=IFCPROPERTYSINGLEVALUE('ProducerType',$,IFCLABEL('demo'),$);
#127=IFCPROPERTYSINGLEVALUE('FixtureId',$,IFCIDENTIFIER('t0-minimal-hall-v1'),$);
#128=IFCPROPERTYSINGLEVALUE('SourceKey',$,IFCIDENTIFIER('column:south:2'),$);
#129=IFCPROPERTYSINGLEVALUE('SpecHash',$,IFCIDENTIFIER('328cb07efa23ec186172074c38bf11018b904adf07d125115f3471685556e21c'),$);
#130=IFCPROPERTYSET('08m1AD6wrNtvH$jJVLfXo0',$,'Pset_GuJianSource',$,(#125,#126,#127,#128,#129));
#131=IFCRELDEFINESBYPROPERTIES('0fy7j2KpXLR80IImifP5MY',$,$,$,(#124),#130);
#132=IFCCARTESIANPOINT((0.,0.));
#133=IFCDIRECTION((1.,0.));
#134=IFCAXIS2PLACEMENT2D(#132,#133);
#135=IFCRECTANGLEPROFILEDEF(.AREA.,$,#134,0.35999999999999999,0.35999999999999999);
#136=IFCCARTESIANPOINT((0.,0.,0.));
#137=IFCDIRECTION((0.,0.,1.));
#138=IFCDIRECTION((1.,0.,0.));
#139=IFCAXIS2PLACEMENT3D(#136,#137,#138);
#140=IFCDIRECTION((0.,0.,1.));
#141=IFCEXTRUDEDAREASOLID(#135,#139,#140,3.8999999999999999);
#142=IFCSHAPEREPRESENTATION(#9,'Body','SweptSolid',(#141));
#143=IFCPRODUCTDEFINITIONSHAPE($,$,(#142));
#144=IFCCARTESIANPOINT((7.2000000000000002,0.,0.30000000000000004));
#145=IFCDIRECTION((0.,0.,1.));
#146=IFCDIRECTION((1.,0.,0.));
#147=IFCAXIS2PLACEMENT3D(#144,#145,#146);
#148=IFCLOCALPLACEMENT(#27,#147);
#149=IFCCOLUMN('1SSq73ZcjQvBdobz6K4zI_',$,'south column 4',$,$,#148,#143,'5c7341c3-8e6b-5ae4-b9f2-97d19413d4be',$);
#150=IFCPROPERTYSINGLEVALUE('EntityId',$,IFCIDENTIFIER('5c7341c3-8e6b-5ae4-b9f2-97d19413d4be'),$);
#151=IFCPROPERTYSINGLEVALUE('ProducerType',$,IFCLABEL('demo'),$);
#152=IFCPROPERTYSINGLEVALUE('FixtureId',$,IFCIDENTIFIER('t0-minimal-hall-v1'),$);
#153=IFCPROPERTYSINGLEVALUE('SourceKey',$,IFCIDENTIFIER('column:south:3'),$);
#154=IFCPROPERTYSINGLEVALUE('SpecHash',$,IFCIDENTIFIER('328cb07efa23ec186172074c38bf11018b904adf07d125115f3471685556e21c'),$);
#155=IFCPROPERTYSET('0m_9kyPuvT2PsSlwHw1C4Z',$,'Pset_GuJianSource',$,(#150,#151,#152,#153,#154));
#156=IFCRELDEFINESBYPROPERTIES('2L6VCNMtDO9AX1ovoj3gCn',$,$,$,(#149),#155);
#157=IFCCARTESIANPOINT((0.,0.));
#158=IFCDIRECTION((1.,0.));
#159=IFCAXIS2PLACEMENT2D(#157,#158);
#160=IFCRECTANGLEPROFILEDEF(.AREA.,$,#159,0.35999999999999999,0.35999999999999999);
#161=IFCCARTESIANPOINT((0.,0.,0.));
#162=IFCDIRECTION((0.,0.,1.));
#163=IFCDIRECTION((1.,0.,0.));
#164=IFCAXIS2PLACEMENT3D(#161,#162,#163);
#165=IFCDIRECTION((0.,0.,1.));
#166=IFCEXTRUDEDAREASOLID(#160,#164,#165,3.8999999999999999);
#167=IFCSHAPEREPRESENTATION(#9,'Body','SweptSolid',(#166));
#168=IFCPRODUCTDEFINITIONSHAPE($,$,(#167));
#169=IFCCARTESIANPOINT((9.5999999999999996,0.,0.30000000000000004));
#170=IFCDIRECTION((0.,0.,1.));
#171=IFCDIRECTION((1.,0.,0.));
#172=IFCAXIS2PLACEMENT3D(#169,#170,#171);
#173=IFCLOCALPLACEMENT(#27,#172);
#174=IFCCOLUMN('1R7h7ZNbLLyvOYZeM$TVCK',$,'south column 5',$,$,#173,#168,'5b1eb1e3-5e55-55f3-9622-8e85bf75f314',$);
#175=IFCPROPERTYSINGLEVALUE('EntityId',$,IFCIDENTIFIER('5b1eb1e3-5e55-55f3-9622-8e85bf75f314'),$);
#176=IFCPROPERTYSINGLEVALUE('ProducerType',$,IFCLABEL('demo'),$);
#177=IFCPROPERTYSINGLEVALUE('FixtureId',$,IFCIDENTIFIER('t0-minimal-hall-v1'),$);
#178=IFCPROPERTYSINGLEVALUE('SourceKey',$,IFCIDENTIFIER('column:south:4'),$);
#179=IFCPROPERTYSINGLEVALUE('SpecHash',$,IFCIDENTIFIER('328cb07efa23ec186172074c38bf11018b904adf07d125115f3471685556e21c'),$);
#180=IFCPROPERTYSET('31NJwyS4LPJe_xbmddC_ds',$,'Pset_GuJianSource',$,(#175,#176,#177,#178,#179));
#181=IFCRELDEFINESBYPROPERTIES('3vAaPeGSjM8O3nTwnm6akH',$,$,$,(#174),#180);
#182=IFCCARTESIANPOINT((0.,0.));
#183=IFCDIRECTION((1.,0.));
#184=IFCAXIS2PLACEMENT2D(#182,#183);
#185=IFCRECTANGLEPROFILEDEF(.AREA.,$,#184,0.35999999999999999,0.35999999999999999);
#186=IFCCARTESIANPOINT((0.,0.,0.));
#187=IFCDIRECTION((0.,0.,1.));
#188=IFCDIRECTION((1.,0.,0.));
#189=IFCAXIS2PLACEMENT3D(#186,#187,#188);
#190=IFCDIRECTION((0.,0.,1.));
#191=IFCEXTRUDEDAREASOLID(#185,#189,#190,3.8999999999999999);
#192=IFCSHAPEREPRESENTATION(#9,'Body','SweptSolid',(#191));
#193=IFCPRODUCTDEFINITIONSHAPE($,$,(#192));
#194=IFCCARTESIANPOINT((11.4,0.,0.30000000000000004));
#195=IFCDIRECTION((0.,0.,1.));
#196=IFCDIRECTION((1.,0.,0.));
#197=IFCAXIS2PLACEMENT3D(#194,#195,#196);
#198=IFCLOCALPLACEMENT(#27,#197);
#199=IFCCOLUMN('3GMq26SbTSAuWUtDsEVd$T',$,'south column 6',$,$,#198,#193,'d05b4086-7257-5c2b-881e-dcdd8e7e7fdd',$);
#200=IFCPROPERTYSINGLEVALUE('EntityId',$,IFCIDENTIFIER('d05b4086-7257-5c2b-881e-dcdd8e7e7fdd'),$);
#201=IFCPROPERTYSINGLEVALUE('ProducerType',$,IFCLABEL('demo'),$);
#202=IFCPROPERTYSINGLEVALUE('FixtureId',$,IFCIDENTIFIER('t0-minimal-hall-v1'),$);
#203=IFCPROPERTYSINGLEVALUE('SourceKey',$,IFCIDENTIFIER('column:south:5'),$);
#204=IFCPROPERTYSINGLEVALUE('SpecHash',$,IFCIDENTIFIER('328cb07efa23ec186172074c38bf11018b904adf07d125115f3471685556e21c'),$);
#205=IFCPROPERTYSET('2PQ_pkiF1MaAvvoJ4hnoca',$,'Pset_GuJianSource',$,(#200,#201,#202,#203,#204));
#206=IFCRELDEFINESBYPROPERTIES('03HOrf42nICRWsepJgvoXd',$,$,$,(#199),#205);
#207=IFCCARTESIANPOINT((0.,0.));
#208=IFCDIRECTION((1.,0.));
#209=IFCAXIS2PLACEMENT2D(#207,#208);
#210=IFCRECTANGLEPROFILEDEF(.AREA.,$,#209,0.35999999999999999,0.35999999999999999);
#211=IFCCARTESIANPOINT((0.,0.,0.));
#212=IFCDIRECTION((0.,0.,1.));
#213=IFCDIRECTION((1.,0.,0.));
#214=IFCAXIS2PLACEMENT3D(#211,#212,#213);
#215=IFCDIRECTION((0.,0.,1.));
#216=IFCEXTRUDEDAREASOLID(#210,#214,#215,3.8999999999999999);
#217=IFCSHAPEREPRESENTATION(#9,'Body','SweptSolid',(#216));
#218=IFCPRODUCTDEFINITIONSHAPE($,$,(#217));
#219=IFCCARTESIANPOINT((0.,7.2000000000000002,0.30000000000000004));
#220=IFCDIRECTION((0.,0.,1.));
#221=IFCDIRECTION((1.,0.,0.));
#222=IFCAXIS2PLACEMENT3D(#219,#220,#221);
#223=IFCLOCALPLACEMENT(#27,#222);
#224=IFCCOLUMN('0OLYTp87zU7uzLu1rcbeLU',$,'north column 1',$,$,#223,#218,'18562773-207f-5e1f-8f55-e01d6696855e',$);
#225=IFCPROPERTYSINGLEVALUE('EntityId',$,IFCIDENTIFIER('18562773-207f-5e1f-8f55-e01d6696855e'),$);
#226=IFCPROPERTYSINGLEVALUE('ProducerType',$,IFCLABEL('demo'),$);
#227=IFCPROPERTYSINGLEVALUE('FixtureId',$,IFCIDENTIFIER('t0-minimal-hall-v1'),$);
#228=IFCPROPERTYSINGLEVALUE('SourceKey',$,IFCIDENTIFIER('column:north:0'),$);
#229=IFCPROPERTYSINGLEVALUE('SpecHash',$,IFCIDENTIFIER('328cb07efa23ec186172074c38bf11018b904adf07d125115f3471685556e21c'),$);
#230=IFCPROPERTYSET('1H6wpfsYHRIAS5t07$jlHf',$,'Pset_GuJianSource',$,(#225,#226,#227,#228,#229));
#231=IFCRELDEFINESBYPROPERTIES('21lTzKE$zJ7f9RufQOqkz6',$,$,$,(#224),#230);
#232=IFCCARTESIANPOINT((0.,0.));
#233=IFCDIRECTION((1.,0.));
#234=IFCAXIS2PLACEMENT2D(#232,#233);
#235=IFCRECTANGLEPROFILEDEF(.AREA.,$,#234,0.35999999999999999,0.35999999999999999);
#236=IFCCARTESIANPOINT((0.,0.,0.));
#237=IFCDIRECTION((0.,0.,1.));
#238=IFCDIRECTION((1.,0.,0.));
#239=IFCAXIS2PLACEMENT3D(#236,#237,#238);
#240=IFCDIRECTION((0.,0.,1.));
#241=IFCEXTRUDEDAREASOLID(#235,#239,#240,3.8999999999999999);
#242=IFCSHAPEREPRESENTATION(#9,'Body','SweptSolid',(#241));
#243=IFCPRODUCTDEFINITIONSHAPE($,$,(#242));
#244=IFCCARTESIANPOINT((2.1000000000000001,7.2000000000000002,0.30000000000000004));
#245=IFCDIRECTION((0.,0.,1.));
#246=IFCDIRECTION((1.,0.,0.));
#247=IFCAXIS2PLACEMENT3D(#244,#245,#246);
#248=IFCLOCALPLACEMENT(#27,#247);
#249=IFCCOLUMN('0FFq9LcsDS_P7XoCOPTEM3',$,'north column 2',$,$,#248,#243,'0f3f4255-9b63-5cf9-91e1-c8c61974e583',$);
#250=IFCPROPERTYSINGLEVALUE('EntityId',$,IFCIDENTIFIER('0f3f4255-9b63-5cf9-91e1-c8c61974e583'),$);
#251=IFCPROPERTYSINGLEVALUE('ProducerType',$,IFCLABEL('demo'),$);
#252=IFCPROPERTYSINGLEVALUE('FixtureId',$,IFCIDENTIFIER('t0-minimal-hall-v1'),$);
#253=IFCPROPERTYSINGLEVALUE('SourceKey',$,IFCIDENTIFIER('column:north:1'),$);
#254=IFCPROPERTYSINGLEVALUE('SpecHash',$,IFCIDENTIFIER('328cb07efa23ec186172074c38bf11018b904adf07d125115f3471685556e21c'),$);
#255=IFCPROPERTYSET('1KyEXQSIDMeuzzLkjKYQxV',$,'Pset_GuJianSource',$,(#250,#251,#252,#253,#254));
#256=IFCRELDEFINESBYPROPERTIES('0g4mh0eaXGrPGAAJCcTOJD',$,$,$,(#249),#255);
#257=IFCCARTESIANPOINT((0.,0.));
#258=IFCDIRECTION((1.,0.));
#259=IFCAXIS2PLACEMENT2D(#257,#258);
#260=IFCRECTANGLEPROFILEDEF(.AREA.,$,#259,0.35999999999999999,0.35999999999999999);
#261=IFCCARTESIANPOINT((0.,0.,0.));
#262=IFCDIRECTION((0.,0.,1.));
#263=IFCDIRECTION((1.,0.,0.));
#264=IFCAXIS2PLACEMENT3D(#261,#262,#263);
#265=IFCDIRECTION((0.,0.,1.));
#266=IFCEXTRUDEDAREASOLID(#260,#264,#265,3.8999999999999999);
#267=IFCSHAPEREPRESENTATION(#9,'Body','SweptSolid',(#266));
#268=IFCPRODUCTDEFINITIONSHAPE($,$,(#267));
#269=IFCCARTESIANPOINT((4.5,7.2000000000000002,0.30000000000000004));
#270=IFCDIRECTION((0.,0.,1.));
#271=IFCDIRECTION((1.,0.,0.));
#272=IFCAXIS2PLACEMENT3D(#269,#270,#271);
#273=IFCLOCALPLACEMENT(#27,#272);
#274=IFCCOLUMN('23_kpWGxTLcxdVfOX8zTI7',$,'north column 3',$,$,#273,#268,'83faece0-43b7-559b-b9df-a58848f5d487',$);
#275=IFCPROPERTYSINGLEVALUE('EntityId',$,IFCIDENTIFIER('83faece0-43b7-559b-b9df-a58848f5d487'),$);
#276=IFCPROPERTYSINGLEVALUE('ProducerType',$,IFCLABEL('demo'),$);
#277=IFCPROPERTYSINGLEVALUE('FixtureId',$,IFCIDENTIFIER('t0-minimal-hall-v1'),$);
#278=IFCPROPERTYSINGLEVALUE('SourceKey',$,IFCIDENTIFIER('column:north:2'),$);
#279=IFCPROPERTYSINGLEVALUE('SpecHash',$,IFCIDENTIFIER('328cb07efa23ec186172074c38bf11018b904adf07d125115f3471685556e21c'),$);
#280=IFCPROPERTYSET('17N0k8ZBvQqgk9M_wtQ1eC',$,'Pset_GuJianSource',$,(#275,#276,#277,#278,#279));
#281=IFCRELDEFINESBYPROPERTIES('1$kdQJkG5QdxZCxl2iluaO',$,$,$,(#274),#280);
#282=IFCCARTESIANPOINT((0.,0.));
#283=IFCDIRECTION((1.,0.));
#284=IFCAXIS2PLACEMENT2D(#282,#283);
#285=IFCRECTANGLEPROFILEDEF(.AREA.,$,#284,0.35999999999999999,0.35999999999999999);
#286=IFCCARTESIANPOINT((0.,0.,0.));
#287=IFCDIRECTION((0.,0.,1.));
#288=IFCDIRECTION((1.,0.,0.));
#289=IFCAXIS2PLACEMENT3D(#286,#287,#288);
#290=IFCDIRECTION((0.,0.,1.));
#291=IFCEXTRUDEDAREASOLID(#285,#289,#290,3.8999999999999999);
#292=IFCSHAPEREPRESENTATION(#9,'Body','SweptSolid',(#291));
#293=IFCPRODUCTDEFINITIONSHAPE($,$,(#292));
#294=IFCCARTESIANPOINT((7.2000000000000002,7.2000000000000002,0.30000000000000004));
#295=IFCDIRECTION((0.,0.,1.));
#296=IFCDIRECTION((1.,0.,0.));
#297=IFCAXIS2PLACEMENT3D(#294,#295,#296);
#298=IFCLOCALPLACEMENT(#27,#297);
#299=IFCCOLUMN('0_ucilU95R_AfT$$G5vLCb',$,'north column 4',$,$,#298,#293,'3ee26b2f-7891-5bf8-aa5d-fff405e55325',$);
#300=IFCPROPERTYSINGLEVALUE('EntityId',$,IFCIDENTIFIER('3ee26b2f-7891-5bf8-aa5d-fff405e55325'),$);
#301=IFCPROPERTYSINGLEVALUE('ProducerType',$,IFCLABEL('demo'),$);
#302=IFCPROPERTYSINGLEVALUE('FixtureId',$,IFCIDENTIFIER('t0-minimal-hall-v1'),$);
#303=IFCPROPERTYSINGLEVALUE('SourceKey',$,IFCIDENTIFIER('column:north:3'),$);
#304=IFCPROPERTYSINGLEVALUE('SpecHash',$,IFCIDENTIFIER('328cb07efa23ec186172074c38bf11018b904adf07d125115f3471685556e21c'),$);
#305=IFCPROPERTYSET('06mfwuVoPIWhJBgHW3sKnC',$,'Pset_GuJianSource',$,(#300,#301,#302,#303,#304));
#306=IFCRELDEFINESBYPROPERTIES('0oQFsQSCHIFRhvYu7UIDfF',$,$,$,(#299),#305);
#307=IFCCARTESIANPOINT((0.,0.));
#308=IFCDIRECTION((1.,0.));
#309=IFCAXIS2PLACEMENT2D(#307,#308);
#310=IFCRECTANGLEPROFILEDEF(.AREA.,$,#309,0.35999999999999999,0.35999999999999999);
#311=IFCCARTESIANPOINT((0.,0.,0.));
#312=IFCDIRECTION((0.,0.,1.));
#313=IFCDIRECTION((1.,0.,0.));
#314=IFCAXIS2PLACEMENT3D(#311,#312,#313);
#315=IFCDIRECTION((0.,0.,1.));
#316=IFCEXTRUDEDAREASOLID(#310,#314,#315,3.8999999999999999);
#317=IFCSHAPEREPRESENTATION(#9,'Body','SweptSolid',(#316));
#318=IFCPRODUCTDEFINITIONSHAPE($,$,(#317));
#319=IFCCARTESIANPOINT((9.5999999999999996,7.2000000000000002,0.30000000000000004));
#320=IFCDIRECTION((0.,0.,1.));
#321=IFCDIRECTION((1.,0.,0.));
#322=IFCAXIS2PLACEMENT3D(#319,#320,#321);
#323=IFCLOCALPLACEMENT(#27,#322);
#324=IFCCOLUMN('1HO0xPyFzVnekbChFynY3U',$,'north column 5',$,$,#323,#318,'51600ed9-f0ff-5fc6-8ba5-32b3fcc620de',$);
#325=IFCPROPERTYSINGLEVALUE('EntityId',$,IFCIDENTIFIER('51600ed9-f0ff-5fc6-8ba5-32b3fcc620de'),$);
#326=IFCPROPERTYSINGLEVALUE('ProducerType',$,IFCLABEL('demo'),$);
#327=IFCPROPERTYSINGLEVALUE('FixtureId',$,IFCIDENTIFIER('t0-minimal-hall-v1'),$);
#328=IFCPROPERTYSINGLEVALUE('SourceKey',$,IFCIDENTIFIER('column:north:4'),$);
#329=IFCPROPERTYSINGLEVALUE('SpecHash',$,IFCIDENTIFIER('328cb07efa23ec186172074c38bf11018b904adf07d125115f3471685556e21c'),$);
#330=IFCPROPERTYSET('3ouDtN9QHIRQlHSWeWz9Ib',$,'Pset_GuJianSource',$,(#325,#326,#327,#328,#329));
#331=IFCRELDEFINESBYPROPERTIES('0sKQ5iXsXKo811HrC1q_fO',$,$,$,(#324),#330);
#332=IFCCARTESIANPOINT((0.,0.));
#333=IFCDIRECTION((1.,0.));
#334=IFCAXIS2PLACEMENT2D(#332,#333);
#335=IFCRECTANGLEPROFILEDEF(.AREA.,$,#334,0.35999999999999999,0.35999999999999999);
#336=IFCCARTESIANPOINT((0.,0.,0.));
#337=IFCDIRECTION((0.,0.,1.));
#338=IFCDIRECTION((1.,0.,0.));
#339=IFCAXIS2PLACEMENT3D(#336,#337,#338);
#340=IFCDIRECTION((0.,0.,1.));
#341=IFCEXTRUDEDAREASOLID(#335,#339,#340,3.8999999999999999);
#342=IFCSHAPEREPRESENTATION(#9,'Body','SweptSolid',(#341));
#343=IFCPRODUCTDEFINITIONSHAPE($,$,(#342));
#344=IFCCARTESIANPOINT((11.4,7.2000000000000002,0.30000000000000004));
#345=IFCDIRECTION((0.,0.,1.));
#346=IFCDIRECTION((1.,0.,0.));
#347=IFCAXIS2PLACEMENT3D(#344,#345,#346);
#348=IFCLOCALPLACEMENT(#27,#347);
#349=IFCCOLUMN('1khNJgwkbQGgrgeNfviC6Q',$,'north column 6',$,$,#348,#343,'6ead74ea-eae9-5a42-ad6a-a17a79b0c19a',$);
#350=IFCPROPERTYSINGLEVALUE('EntityId',$,IFCIDENTIFIER('6ead74ea-eae9-5a42-ad6a-a17a79b0c19a'),$);
#351=IFCPROPERTYSINGLEVALUE('ProducerType',$,IFCLABEL('demo'),$);
#352=IFCPROPERTYSINGLEVALUE('FixtureId',$,IFCIDENTIFIER('t0-minimal-hall-v1'),$);
#353=IFCPROPERTYSINGLEVALUE('SourceKey',$,IFCIDENTIFIER('column:north:5'),$);
#354=IFCPROPERTYSINGLEVALUE('SpecHash',$,IFCIDENTIFIER('328cb07efa23ec186172074c38bf11018b904adf07d125115f3471685556e21c'),$);
#355=IFCPROPERTYSET('2sFSS0_9TVeuHaEpPTwrbj',$,'Pset_GuJianSource',$,(#350,#351,#352,#353,#354));
#356=IFCRELDEFINESBYPROPERTIES('3N2IZtGlPHMvj5pKp56Lye',$,$,$,(#349),#355);
#357=IFCCARTESIANPOINT((0.,0.));
#358=IFCDIRECTION((1.,0.));
#359=IFCAXIS2PLACEMENT2D(#357,#358);
#360=IFCRECTANGLEPROFILEDEF(.AREA.,$,#359,2.1000000000000001,0.26000000000000001);
#361=IFCCARTESIANPOINT((0.,0.,0.));
#362=IFCDIRECTION((0.,0.,1.));
#363=IFCDIRECTION((1.,0.,0.));
#364=IFCAXIS2PLACEMENT3D(#361,#362,#363);
#365=IFCDIRECTION((0.,0.,1.));
#366=IFCEXTRUDEDAREASOLID(#360,#364,#365,0.32000000000000001);
#367=IFCSHAPEREPRESENTATION(#9,'Body','SweptSolid',(#366));
#368=IFCPRODUCTDEFINITIONSHAPE($,$,(#367));
#369=IFCCARTESIANPOINT((1.05,0.,3.8799999999999999));
#370=IFCDIRECTION((0.,0.,1.));
#371=IFCDIRECTION((1.,0.,0.));
#372=IFCAXIS2PLACEMENT3D(#369,#370,#371);
#373=IFCLOCALPLACEMENT(#27,#372);
#374=IFCBEAM('3B4OML2cPLZ9r3i8yQElgc',$,'south beam 1',$,$,#373,#368,'cb118595-0a66-558c-9d43-b08f1a3afaa6',$);
#375=IFCPROPERTYSINGLEVALUE('EntityId',$,IFCIDENTIFIER('cb118595-0a66-558c-9d43-b08f1a3afaa6'),$);
#376=IFCPROPERTYSINGLEVALUE('ProducerType',$,IFCLABEL('demo'),$);
#377=IFCPROPERTYSINGLEVALUE('FixtureId',$,IFCIDENTIFIER('t0-minimal-hall-v1'),$);
#378=IFCPROPERTYSINGLEVALUE('SourceKey',$,IFCIDENTIFIER('beam:south:0'),$);
#379=IFCPROPERTYSINGLEVALUE('SpecHash',$,IFCIDENTIFIER('328cb07efa23ec186172074c38bf11018b904adf07d125115f3471685556e21c'),$);
#380=IFCPROPERTYSET('03EzxD3wDJhO7i0FO_OhrB',$,'Pset_GuJianSource',$,(#375,#376,#377,#378,#379));
#381=IFCRELDEFINESBYPROPERTIES('10UvgolZLGhfDwua5LqD3b',$,$,$,(#374),#380);
#382=IFCCARTESIANPOINT((0.,0.));
#383=IFCDIRECTION((1.,0.));
#384=IFCAXIS2PLACEMENT2D(#382,#383);
#385=IFCRECTANGLEPROFILEDEF(.AREA.,$,#384,2.3999999999999999,0.26000000000000001);
#386=IFCCARTESIANPOINT((0.,0.,0.));
#387=IFCDIRECTION((0.,0.,1.));
#388=IFCDIRECTION((1.,0.,0.));
#389=IFCAXIS2PLACEMENT3D(#386,#387,#388);
#390=IFCDIRECTION((0.,0.,1.));
#391=IFCEXTRUDEDAREASOLID(#385,#389,#390,0.32000000000000001);
#392=IFCSHAPEREPRESENTATION(#9,'Body','SweptSolid',(#391));
#393=IFCPRODUCTDEFINITIONSHAPE($,$,(#392));
#394=IFCCARTESIANPOINT((3.2999999999999998,0.,3.8799999999999999));
#395=IFCDIRECTION((0.,0.,1.));
#396=IFCDIRECTION((1.,0.,0.));
#397=IFCAXIS2PLACEMENT3D(#394,#395,#396);
#398=IFCLOCALPLACEMENT(#27,#397);
#399=IFCBEAM('1QX_qInHnQqO9QIf5orwNK',$,'south beam 2',$,$,#398,#393,'5a87ed12-c51c-5ad1-825a-4a9172d7a5d4',$);
#400=IFCPROPERTYSINGLEVALUE('EntityId',$,IFCIDENTIFIER('5a87ed12-c51c-5ad1-825a-4a9172d7a5d4'),$);
#401=IFCPROPERTYSINGLEVALUE('ProducerType',$,IFCLABEL('demo'),$);
#402=IFCPROPERTYSINGLEVALUE('FixtureId',$,IFCIDENTIFIER('t0-minimal-hall-v1'),$);
#403=IFCPROPERTYSINGLEVALUE('SourceKey',$,IFCIDENTIFIER('beam:south:1'),$);
#404=IFCPROPERTYSINGLEVALUE('SpecHash',$,IFCIDENTIFIER('328cb07efa23ec186172074c38bf11018b904adf07d125115f3471685556e21c'),$);
#405=IFCPROPERTYSET('1NkHqkIOzOfv7hpq8QgRND',$,'Pset_GuJianSource',$,(#400,#401,#402,#403,#404));
#406=IFCRELDEFINESBYPROPERTIES('1g168aE1jNL9PUDsRbW3Rd',$,$,$,(#399),#405);
#407=IFCCARTESIANPOINT((0.,0.));
#408=IFCDIRECTION((1.,0.));
#409=IFCAXIS2PLACEMENT2D(#407,#408);
#410=IFCRECTANGLEPROFILEDEF(.AREA.,$,#409,2.7000000000000002,0.26000000000000001);
#411=IFCCARTESIANPOINT((0.,0.,0.));
#412=IFCDIRECTION((0.,0.,1.));
#413=IFCDIRECTION((1.,0.,0.));
#414=IFCAXIS2PLACEMENT3D(#411,#412,#413);
#415=IFCDIRECTION((0.,0.,1.));
#416=IFCEXTRUDEDAREASOLID(#410,#414,#415,0.32000000000000001);
#417=IFCSHAPEREPRESENTATION(#9,'Body','SweptSolid',(#416));
#418=IFCPRODUCTDEFINITIONSHAPE($,$,(#417));
#419=IFCCARTESIANPOINT((5.8499999999999996,0.,3.8799999999999999));
#420=IFCDIRECTION((0.,0.,1.));
#421=IFCDIRECTION((1.,0.,0.));
#422=IFCAXIS2PLACEMENT3D(#419,#420,#421);
#423=IFCLOCALPLACEMENT(#27,#422);
#424=IFCBEAM('1ByVKJokXNPvhBdNlApflw',$,'south beam 3',$,$,#423,#418,'4bf1f513-cae8-5767-9acb-9d7bcace9bfa',$);
#425=IFCPROPERTYSINGLEVALUE('EntityId',$,IFCIDENTIFIER('4bf1f513-cae8-5767-9acb-9d7bcace9bfa'),$);
#426=IFCPROPERTYSINGLEVALUE('ProducerType',$,IFCLABEL('demo'),$);
#427=IFCPROPERTYSINGLEVALUE('FixtureId',$,IFCIDENTIFIER('t0-minimal-hall-v1'),$);
#428=IFCPROPERTYSINGLEVALUE('SourceKey',$,IFCIDENTIFIER('beam:south:2'),$);
#429=IFCPROPERTYSINGLEVALUE('SpecHash',$,IFCIDENTIFIER('328cb07efa23ec186172074c38bf11018b904adf07d125115f3471685556e21c'),$);
#430=IFCPROPERTYSET('3xiofzpTfVNQ35LkU3E9ws',$,'Pset_GuJianSource',$,(#425,#426,#427,#428,#429));
#431=IFCRELDEFINESBYPROPERTIES('3YVdL_EVXK3OkqW3H92VdF',$,$,$,(#424),#430);
#432=IFCCARTESIANPOINT((0.,0.));
#433=IFCDIRECTION((1.,0.));
#434=IFCAXIS2PLACEMENT2D(#432,#433);
#435=IFCRECTANGLEPROFILEDEF(.AREA.,$,#434,2.3999999999999999,0.26000000000000001);
#436=IFCCARTESIANPOINT((0.,0.,0.));
#437=IFCDIRECTION((0.,0.,1.));
#438=IFCDIRECTION((1.,0.,0.));
#439=IFCAXIS2PLACEMENT3D(#436,#437,#438);
#440=IFCDIRECTION((0.,0.,1.));
#441=IFCEXTRUDEDAREASOLID(#435,#439,#440,0.32000000000000001);
#442=IFCSHAPEREPRESENTATION(#9,'Body','SweptSolid',(#441));
#443=IFCPRODUCTDEFINITIONSHAPE($,$,(#442));
#444=IFCCARTESIANPOINT((8.4000000000000004,0.,3.8799999999999999));
#445=IFCDIRECTION((0.,0.,1.));
#446=IFCDIRECTION((1.,0.,0.));
#447=IFCAXIS2PLACEMENT3D(#444,#445,#446);
#448=IFCLOCALPLACEMENT(#27,#447);
#449=IFCBEAM('2WmfAuq_5RlPr2ibNMCb8L',$,'south beam 4',$,$,#448,#443,'a0c292b8-d3e1-5bbd-9d42-b255d6325215',$);
#450=IFCPROPERTYSINGLEVALUE('EntityId',$,IFCIDENTIFIER('a0c292b8-d3e1-5bbd-9d42-b255d6325215'),$);
#451=IFCPROPERTYSINGLEVALUE('ProducerType',$,IFCLABEL('demo'),$);
#452=IFCPROPERTYSINGLEVALUE('FixtureId',$,IFCIDENTIFIER('t0-minimal-hall-v1'),$);
#453=IFCPROPERTYSINGLEVALUE('SourceKey',$,IFCIDENTIFIER('beam:south:3'),$);
#454=IFCPROPERTYSINGLEVALUE('SpecHash',$,IFCIDENTIFIER('328cb07efa23ec186172074c38bf11018b904adf07d125115f3471685556e21c'),$);
#455=IFCPROPERTYSET('2aXb9Pjr5P08Dk_rdD4OQV',$,'Pset_GuJianSource',$,(#450,#451,#452,#453,#454));
#456=IFCRELDEFINESBYPROPERTIES('0wJNqEZYvHouN2rR$dg04o',$,$,$,(#449),#455);
#457=IFCCARTESIANPOINT((0.,0.));
#458=IFCDIRECTION((1.,0.));
#459=IFCAXIS2PLACEMENT2D(#457,#458);
#460=IFCRECTANGLEPROFILEDEF(.AREA.,$,#459,1.8,0.26000000000000001);
#461=IFCCARTESIANPOINT((0.,0.,0.));
#462=IFCDIRECTION((0.,0.,1.));
#463=IFCDIRECTION((1.,0.,0.));
#464=IFCAXIS2PLACEMENT3D(#461,#462,#463);
#465=IFCDIRECTION((0.,0.,1.));
#466=IFCEXTRUDEDAREASOLID(#460,#464,#465,0.32000000000000001);
#467=IFCSHAPEREPRESENTATION(#9,'Body','SweptSolid',(#466));
#468=IFCPRODUCTDEFINITIONSHAPE($,$,(#467));
#469=IFCCARTESIANPOINT((10.5,0.,3.8799999999999999));
#470=IFCDIRECTION((0.,0.,1.));
#471=IFCDIRECTION((1.,0.,0.));
#472=IFCAXIS2PLACEMENT3D(#469,#470,#471);
#473=IFCLOCALPLACEMENT(#27,#472);
#474=IFCBEAM('2OZWiRmv1LCgJ_N78wN6on',$,'south beam 5',$,$,#473,#468,'988e0b1b-c390-5532-a4fe-5c723a5c6cb1',$);
#475=IFCPROPERTYSINGLEVALUE('EntityId',$,IFCIDENTIFIER('988e0b1b-c390-5532-a4fe-5c723a5c6cb1'),$);
#476=IFCPROPERTYSINGLEVALUE('ProducerType',$,IFCLABEL('demo'),$);
#477=IFCPROPERTYSINGLEVALUE('FixtureId',$,IFCIDENTIFIER('t0-minimal-hall-v1'),$);
#478=IFCPROPERTYSINGLEVALUE('SourceKey',$,IFCIDENTIFIER('beam:south:4'),$);
#479=IFCPROPERTYSINGLEVALUE('SpecHash',$,IFCIDENTIFIER('328cb07efa23ec186172074c38bf11018b904adf07d125115f3471685556e21c'),$);
#480=IFCPROPERTYSET('3CfvNKncjTdB9swFc7Qtb7',$,'Pset_GuJianSource',$,(#475,#476,#477,#478,#479));
#481=IFCRELDEFINESBYPROPERTIES('3XmToN4BrVlBDrLcqc19jj',$,$,$,(#474),#480);
#482=IFCCARTESIANPOINT((0.,0.));
#483=IFCDIRECTION((1.,0.));
#484=IFCAXIS2PLACEMENT2D(#482,#483);
#485=IFCRECTANGLEPROFILEDEF(.AREA.,$,#484,2.1000000000000001,0.26000000000000001);
#486=IFCCARTESIANPOINT((0.,0.,0.));
#487=IFCDIRECTION((0.,0.,1.));
#488=IFCDIRECTION((1.,0.,0.));
#489=IFCAXIS2PLACEMENT3D(#486,#487,#488);
#490=IFCDIRECTION((0.,0.,1.));
#491=IFCEXTRUDEDAREASOLID(#485,#489,#490,0.32000000000000001);
#492=IFCSHAPEREPRESENTATION(#9,'Body','SweptSolid',(#491));
#493=IFCPRODUCTDEFINITIONSHAPE($,$,(#492));
#494=IFCCARTESIANPOINT((1.05,7.2000000000000002,3.8799999999999999));
#495=IFCDIRECTION((0.,0.,1.));
#496=IFCDIRECTION((1.,0.,0.));
#497=IFCAXIS2PLACEMENT3D(#494,#495,#496);
#498=IFCLOCALPLACEMENT(#27,#497);
#499=IFCBEAM('09eOM0DfjP8hOWZS0_sHkN',$,'north beam 1',$,$,#498,#493,'09a18580-369b-5922-b620-8dc03ed91b97',$);
#500=IFCPROPERTYSINGLEVALUE('EntityId',$,IFCIDENTIFIER('09a18580-369b-5922-b620-8dc03ed91b97'),$);
#501=IFCPROPERTYSINGLEVALUE('ProducerType',$,IFCLABEL('demo'),$);
#502=IFCPROPERTYSINGLEVALUE('FixtureId',$,IFCIDENTIFIER('t0-minimal-hall-v1'),$);
#503=IFCPROPERTYSINGLEVALUE('SourceKey',$,IFCIDENTIFIER('beam:north:0'),$);
#504=IFCPROPERTYSINGLEVALUE('SpecHash',$,IFCIDENTIFIER('328cb07efa23ec186172074c38bf11018b904adf07d125115f3471685556e21c'),$);
#505=IFCPROPERTYSET('2FK7WL8LDTpvmMGAgGv6hF',$,'Pset_GuJianSource',$,(#500,#501,#502,#503,#504));
#506=IFCRELDEFINESBYPROPERTIES('0P_VD3VTLHhOvoNoOomyhC',$,$,$,(#499),#505);
#507=IFCCARTESIANPOINT((0.,0.));
#508=IFCDIRECTION((1.,0.));
#509=IFCAXIS2PLACEMENT2D(#507,#508);
#510=IFCRECTANGLEPROFILEDEF(.AREA.,$,#509,2.3999999999999999,0.26000000000000001);
#511=IFCCARTESIANPOINT((0.,0.,0.));
#512=IFCDIRECTION((0.,0.,1.));
#513=IFCDIRECTION((1.,0.,0.));
#514=IFCAXIS2PLACEMENT3D(#511,#512,#513);
#515=IFCDIRECTION((0.,0.,1.));
#516=IFCEXTRUDEDAREASOLID(#510,#514,#515,0.32000000000000001);
#517=IFCSHAPEREPRESENTATION(#9,'Body','SweptSolid',(#516));
#518=IFCPRODUCTDEFINITIONSHAPE($,$,(#517));
#519=IFCCARTESIANPOINT((3.2999999999999998,7.2000000000000002,3.8799999999999999));
#520=IFCDIRECTION((0.,0.,1.));
#521=IFCDIRECTION((1.,0.,0.));
#522=IFCAXIS2PLACEMENT3D(#519,#520,#521);
#523=IFCLOCALPLACEMENT(#27,#522);
#524=IFCBEAM('2aEUxSebXM7PfnoncKM_3R',$,'north beam 2',$,$,#523,#518,'a439eedc-a258-561d-9a71-cb19945be0db',$);
#525=IFCPROPERTYSINGLEVALUE('EntityId',$,IFCIDENTIFIER('a439eedc-a258-561d-9a71-cb19945be0db'),$);
#526=IFCPROPERTYSINGLEVALUE('ProducerType',$,IFCLABEL('demo'),$);
#527=IFCPROPERTYSINGLEVALUE('FixtureId',$,IFCIDENTIFIER('t0-minimal-hall-v1'),$);
#528=IFCPROPERTYSINGLEVALUE('SourceKey',$,IFCIDENTIFIER('beam:north:1'),$);
#529=IFCPROPERTYSINGLEVALUE('SpecHash',$,IFCIDENTIFIER('328cb07efa23ec186172074c38bf11018b904adf07d125115f3471685556e21c'),$);
#530=IFCPROPERTYSET('2B4SJVQfvPQfRhn2TbKHMF',$,'Pset_GuJianSource',$,(#525,#526,#527,#528,#529));
#531=IFCRELDEFINESBYPROPERTIES('20deKF7nrRBuApzyhi0CAB',$,$,$,(#524),#530);
#532=IFCCARTESIANPOINT((0.,0.));
#533=IFCDIRECTION((1.,0.));
#534=IFCAXIS2PLACEMENT2D(#532,#533);
#535=IFCRECTANGLEPROFILEDEF(.AREA.,$,#534,2.7000000000000002,0.26000000000000001);
#536=IFCCARTESIANPOINT((0.,0.,0.));
#537=IFCDIRECTION((0.,0.,1.));
#538=IFCDIRECTION((1.,0.,0.));
#539=IFCAXIS2PLACEMENT3D(#536,#537,#538);
#540=IFCDIRECTION((0.,0.,1.));
#541=IFCEXTRUDEDAREASOLID(#535,#539,#540,0.32000000000000001);
#542=IFCSHAPEREPRESENTATION(#9,'Body','SweptSolid',(#541));
#543=IFCPRODUCTDEFINITIONSHAPE($,$,(#542));
#544=IFCCARTESIANPOINT((5.8499999999999996,7.2000000000000002,3.8799999999999999));
#545=IFCDIRECTION((0.,0.,1.));
#546=IFCDIRECTION((1.,0.,0.));
#547=IFCAXIS2PLACEMENT3D(#544,#545,#546);
#548=IFCLOCALPLACEMENT(#27,#547);
#549=IFCBEAM('3AH2S_$d1PXBQZggq4akQC',$,'north beam 3',$,$,#548,#543,'ca44273e-fe70-5984-b6a3-aaad0492e68c',$);
#550=IFCPROPERTYSINGLEVALUE('EntityId',$,IFCIDENTIFIER('ca44273e-fe70-5984-b6a3-aaad0492e68c'),$);
#551=IFCPROPERTYSINGLEVALUE('ProducerType',$,IFCLABEL('demo'),$);
#552=IFCPROPERTYSINGLEVALUE('FixtureId',$,IFCIDENTIFIER('t0-minimal-hall-v1'),$);
#553=IFCPROPERTYSINGLEVALUE('SourceKey',$,IFCIDENTIFIER('beam:north:2'),$);
#554=IFCPROPERTYSINGLEVALUE('SpecHash',$,IFCIDENTIFIER('328cb07efa23ec186172074c38bf11018b904adf07d125115f3471685556e21c'),$);
#555=IFCPROPERTYSET('1OEebxJNrI9xg5R0JCfZMC',$,'Pset_GuJianSource',$,(#550,#551,#552,#553,#554));
#556=IFCRELDEFINESBYPROPERTIES('0fgx05wOvKNuiKQdO2ou5m',$,$,$,(#549),#555);
#557=IFCCARTESIANPOINT((0.,0.));
#558=IFCDIRECTION((1.,0.));
#559=IFCAXIS2PLACEMENT2D(#557,#558);
#560=IFCRECTANGLEPROFILEDEF(.AREA.,$,#559,2.3999999999999999,0.26000000000000001);
#561=IFCCARTESIANPOINT((0.,0.,0.));
#562=IFCDIRECTION((0.,0.,1.));
#563=IFCDIRECTION((1.,0.,0.));
#564=IFCAXIS2PLACEMENT3D(#561,#562,#563);
#565=IFCDIRECTION((0.,0.,1.));
#566=IFCEXTRUDEDAREASOLID(#560,#564,#565,0.32000000000000001);
#567=IFCSHAPEREPRESENTATION(#9,'Body','SweptSolid',(#566));
#568=IFCPRODUCTDEFINITIONSHAPE($,$,(#567));
#569=IFCCARTESIANPOINT((8.4000000000000004,7.2000000000000002,3.8799999999999999));
#570=IFCDIRECTION((0.,0.,1.));
#571=IFCDIRECTION((1.,0.,0.));
#572=IFCAXIS2PLACEMENT3D(#569,#570,#571);
#573=IFCLOCALPLACEMENT(#27,#572);
#574=IFCBEAM('2DMOx119bJFvP253LpBjER',$,'north beam 4',$,$,#573,#568,'8d598ec1-0499-533f-9642-1435732ed39b',$);
#575=IFCPROPERTYSINGLEVALUE('EntityId',$,IFCIDENTIFIER('8d598ec1-0499-533f-9642-1435732ed39b'),$);
#576=IFCPROPERTYSINGLEVALUE('ProducerType',$,IFCLABEL('demo'),$);
#577=IFCPROPERTYSINGLEVALUE('FixtureId',$,IFCIDENTIFIER('t0-minimal-hall-v1'),$);
#578=IFCPROPERTYSINGLEVALUE('SourceKey',$,IFCIDENTIFIER('beam:north:3'),$);
#579=IFCPROPERTYSINGLEVALUE('SpecHash',$,IFCIDENTIFIER('328cb07efa23ec186172074c38bf11018b904adf07d125115f3471685556e21c'),$);
#580=IFCPROPERTYSET('0cPrUpy6LIT8v$GSUegRnU',$,'Pset_GuJianSource',$,(#575,#576,#577,#578,#579));
#581=IFCRELDEFINESBYPROPERTIES('2fegspYO5M9QDCnJa0cvRc',$,$,$,(#574),#580);
#582=IFCCARTESIANPOINT((0.,0.));
#583=IFCDIRECTION((1.,0.));
#584=IFCAXIS2PLACEMENT2D(#582,#583);
#585=IFCRECTANGLEPROFILEDEF(.AREA.,$,#584,1.8,0.26000000000000001);
#586=IFCCARTESIANPOINT((0.,0.,0.));
#587=IFCDIRECTION((0.,0.,1.));
#588=IFCDIRECTION((1.,0.,0.));
#589=IFCAXIS2PLACEMENT3D(#586,#587,#588);
#590=IFCDIRECTION((0.,0.,1.));
#591=IFCEXTRUDEDAREASOLID(#585,#589,#590,0.32000000000000001);
#592=IFCSHAPEREPRESENTATION(#9,'Body','SweptSolid',(#591));
#593=IFCPRODUCTDEFINITIONSHAPE($,$,(#592));
#594=IFCCARTESIANPOINT((10.5,7.2000000000000002,3.8799999999999999));
#595=IFCDIRECTION((0.,0.,1.));
#596=IFCDIRECTION((1.,0.,0.));
#597=IFCAXIS2PLACEMENT3D(#594,#595,#596);
#598=IFCLOCALPLACEMENT(#27,#597);
#599=IFCBEAM('11Jyxc$gbQfu7tLcYT8p9W',$,'north beam 5',$,$,#598,#593,'414fcee6-fea9-5aa7-81f7-56689d233260',$);
#600=IFCPROPERTYSINGLEVALUE('EntityId',$,IFCIDENTIFIER('414fcee6-fea9-5aa7-81f7-56689d233260'),$);
#601=IFCPROPERTYSINGLEVALUE('ProducerType',$,IFCLABEL('demo'),$);
#602=IFCPROPERTYSINGLEVALUE('FixtureId',$,IFCIDENTIFIER('t0-minimal-hall-v1'),$);
#603=IFCPROPERTYSINGLEVALUE('SourceKey',$,IFCIDENTIFIER('beam:north:4'),$);
#604=IFCPROPERTYSINGLEVALUE('SpecHash',$,IFCIDENTIFIER('328cb07efa23ec186172074c38bf11018b904adf07d125115f3471685556e21c'),$);
#605=IFCPROPERTYSET('1PYQLMpBbTku_pjZDXgYOi',$,'Pset_GuJianSource',$,(#600,#601,#602,#603,#604));
#606=IFCRELDEFINESBYPROPERTIES('1ADl$wAgTTwOfCSBNihEcS',$,$,$,(#599),#605);
#607=IFCCARTESIANPOINT((0.,0.));
#608=IFCDIRECTION((1.,0.));
#609=IFCAXIS2PLACEMENT2D(#607,#608);
#610=IFCRECTANGLEPROFILEDEF(.AREA.,$,#609,0.26000000000000001,7.2000000000000002);
#611=IFCCARTESIANPOINT((0.,0.,0.));
#612=IFCDIRECTION((0.,0.,1.));
#613=IFCDIRECTION((1.,0.,0.));
#614=IFCAXIS2PLACEMENT3D(#611,#612,#613);
#615=IFCDIRECTION((0.,0.,1.));
#616=IFCEXTRUDEDAREASOLID(#610,#614,#615,0.32000000000000001);
#617=IFCSHAPEREPRESENTATION(#9,'Body','SweptSolid',(#616));
#618=IFCPRODUCTDEFINITIONSHAPE($,$,(#617));
#619=IFCCARTESIANPOINT((0.,3.6000000000000001,3.8799999999999999));
#620=IFCDIRECTION((0.,0.,1.));
#621=IFCDIRECTION((1.,0.,0.));
#622=IFCAXIS2PLACEMENT3D(#619,#620,#621);
#623=IFCLOCALPLACEMENT(#27,#622);
#624=IFCBEAM('3WJVi6ZB9GoQllpqEIrL40',$,'west tie beam',$,$,#623,#618,'e04dfb06-8cb2-50c9-abef-cf4392d55100',$);
#625=IFCPROPERTYSINGLEVALUE('EntityId',$,IFCIDENTIFIER('e04dfb06-8cb2-50c9-abef-cf4392d55100'),$);
#626=IFCPROPERTYSINGLEVALUE('ProducerType',$,IFCLABEL('demo'),$);
#627=IFCPROPERTYSINGLEVALUE('FixtureId',$,IFCIDENTIFIER('t0-minimal-hall-v1'),$);
#628=IFCPROPERTYSINGLEVALUE('SourceKey',$,IFCIDENTIFIER('beam:west'),$);
#629=IFCPROPERTYSINGLEVALUE('SpecHash',$,IFCIDENTIFIER('328cb07efa23ec186172074c38bf11018b904adf07d125115f3471685556e21c'),$);
#630=IFCPROPERTYSET('0Lq$637_bUYOnEk3KPrCSM',$,'Pset_GuJianSource',$,(#625,#626,#627,#628,#629));
#631=IFCRELDEFINESBYPROPERTIES('2chcr2MiLTDA5YVFOOxVQP',$,$,$,(#624),#630);
#632=IFCCARTESIANPOINT((0.,0.));
#633=IFCDIRECTION((1.,0.));
#634=IFCAXIS2PLACEMENT2D(#632,#633);
#635=IFCRECTANGLEPROFILEDEF(.AREA.,$,#634,0.26000000000000001,7.2000000000000002);
#636=IFCCARTESIANPOINT((0.,0.,0.));
#637=IFCDIRECTION((0.,0.,1.));
#638=IFCDIRECTION((1.,0.,0.));
#639=IFCAXIS2PLACEMENT3D(#636,#637,#638);
#640=IFCDIRECTION((0.,0.,1.));
#641=IFCEXTRUDEDAREASOLID(#635,#639,#640,0.32000000000000001);
#642=IFCSHAPEREPRESENTATION(#9,'Body','SweptSolid',(#641));
#643=IFCPRODUCTDEFINITIONSHAPE($,$,(#642));
#644=IFCCARTESIANPOINT((11.4,3.6000000000000001,3.8799999999999999));
#645=IFCDIRECTION((0.,0.,1.));
#646=IFCDIRECTION((1.,0.,0.));
#647=IFCAXIS2PLACEMENT3D(#644,#645,#646);
#648=IFCLOCALPLACEMENT(#27,#647);
#649=IFCBEAM('2AdyX9TUXItOoeRyJ1whZN',$,'east tie beam',$,$,#648,#643,'8a9fc849-75e8-52dd-8ca8-6fc4c1eab8d7',$);
#650=IFCPROPERTYSINGLEVALUE('EntityId',$,IFCIDENTIFIER('8a9fc849-75e8-52dd-8ca8-6fc4c1eab8d7'),$);
#651=IFCPROPERTYSINGLEVALUE('ProducerType',$,IFCLABEL('demo'),$);
#652=IFCPROPERTYSINGLEVALUE('FixtureId',$,IFCIDENTIFIER('t0-minimal-hall-v1'),$);
#653=IFCPROPERTYSINGLEVALUE('SourceKey',$,IFCIDENTIFIER('beam:east'),$);
#654=IFCPROPERTYSINGLEVALUE('SpecHash',$,IFCIDENTIFIER('328cb07efa23ec186172074c38bf11018b904adf07d125115f3471685556e21c'),$);
#655=IFCPROPERTYSET('3U9zMmaK9J987lncmNzuwO',$,'Pset_GuJianSource',$,(#650,#651,#652,#653,#654));
#656=IFCRELDEFINESBYPROPERTIES('3qxibyA$zIIf59_usVIncR',$,$,$,(#649),#655);
#657=IFCCARTESIANPOINT((0.,0.));
#658=IFCDIRECTION((1.,0.));
#659=IFCAXIS2PLACEMENT2D(#657,#658);
#660=IFCRECTANGLEPROFILEDEF(.AREA.,$,#659,1.3999999999999999,0.12);
#661=IFCCARTESIANPOINT((0.,0.,0.));
#662=IFCDIRECTION((0.,0.,1.));
#663=IFCDIRECTION((1.,0.,0.));
#664=IFCAXIS2PLACEMENT3D(#661,#662,#663);
#665=IFCDIRECTION((0.,0.,1.));
#666=IFCEXTRUDEDAREASOLID(#660,#664,#665,1.5);
#667=IFCSHAPEREPRESENTATION(#9,'Body','SweptSolid',(#666));
#668=IFCPRODUCTDEFINITIONSHAPE($,$,(#667));
#669=IFCCARTESIANPOINT((3.2999999999999998,0.089999999999999997,1.3999999999999999));
#670=IFCDIRECTION((0.,0.,1.));
#671=IFCDIRECTION((1.,0.,0.));
#672=IFCAXIS2PLACEMENT3D(#669,#670,#671);
#673=IFCLOCALPLACEMENT(#27,#672);
#674=IFCWINDOW('2BShMf7jHQJv5u_5Po6I9F',$,'front window 1',$,$,#673,#668,'8b72b5a9-1ed4-5a4f-9178-f8567219224f',$,$,$,$,$);
#675=IFCPROPERTYSINGLEVALUE('EntityId',$,IFCIDENTIFIER('8b72b5a9-1ed4-5a4f-9178-f8567219224f'),$);
#676=IFCPROPERTYSINGLEVALUE('ProducerType',$,IFCLABEL('demo'),$);
#677=IFCPROPERTYSINGLEVALUE('FixtureId',$,IFCIDENTIFIER('t0-minimal-hall-v1'),$);
#678=IFCPROPERTYSINGLEVALUE('SourceKey',$,IFCIDENTIFIER('opening:window:0'),$);
#679=IFCPROPERTYSINGLEVALUE('SpecHash',$,IFCIDENTIFIER('328cb07efa23ec186172074c38bf11018b904adf07d125115f3471685556e21c'),$);
#680=IFCPROPERTYSET('2PbiPwjZjOLh54HsQuf1cY',$,'Pset_GuJianSource',$,(#675,#676,#677,#678,#679));
#681=IFCRELDEFINESBYPROPERTIES('0k_UAMyifJ8870$vIpUkAk',$,$,$,(#674),#680);
#682=IFCCARTESIANPOINT((0.,0.));
#683=IFCDIRECTION((1.,0.));
#684=IFCAXIS2PLACEMENT2D(#682,#683);
#685=IFCRECTANGLEPROFILEDEF(.AREA.,$,#684,1.8,0.12);
#686=IFCCARTESIANPOINT((0.,0.,0.));
#687=IFCDIRECTION((0.,0.,1.));
#688=IFCDIRECTION((1.,0.,0.));
#689=IFCAXIS2PLACEMENT3D(#686,#687,#688);
#690=IFCDIRECTION((0.,0.,1.));
#691=IFCEXTRUDEDAREASOLID(#685,#689,#690,2.7999999999999998);
#692=IFCSHAPEREPRESENTATION(#9,'Body','SweptSolid',(#691));
#693=IFCPRODUCTDEFINITIONSHAPE($,$,(#692));
#694=IFCCARTESIANPOINT((5.8499999999999996,0.089999999999999997,0.30000000000000004));
#695=IFCDIRECTION((0.,0.,1.));
#696=IFCDIRECTION((1.,0.,0.));
#697=IFCAXIS2PLACEMENT3D(#694,#695,#696);
#698=IFCLOCALPLACEMENT(#27,#697);
#699=IFCDOOR('3LDeNG8cbOtvVuMyk$hcQc',$,'front door 2',$,$,#698,#693,'d53685d0-2269-58df-97f8-5bcbbfae66a6',$,$,$,$,$);
#700=IFCPROPERTYSINGLEVALUE('EntityId',$,IFCIDENTIFIER('d53685d0-2269-58df-97f8-5bcbbfae66a6'),$);
#701=IFCPROPERTYSINGLEVALUE('ProducerType',$,IFCLABEL('demo'),$);
#702=IFCPROPERTYSINGLEVALUE('FixtureId',$,IFCIDENTIFIER('t0-minimal-hall-v1'),$);
#703=IFCPROPERTYSINGLEVALUE('SourceKey',$,IFCIDENTIFIER('opening:door:1'),$);
#704=IFCPROPERTYSINGLEVALUE('SpecHash',$,IFCIDENTIFIER('328cb07efa23ec186172074c38bf11018b904adf07d125115f3471685556e21c'),$);
#705=IFCPROPERTYSET('37IcF_14fTnhTp8U5X_ZVH',$,'Pset_GuJianSource',$,(#700,#701,#702,#703,#704));
#706=IFCRELDEFINESBYPROPERTIES('2SAYCPBlzMkvlki1Dhyh16',$,$,$,(#699),#705);
#707=IFCCARTESIANPOINT((0.,0.));
#708=IFCDIRECTION((1.,0.));
#709=IFCAXIS2PLACEMENT2D(#707,#708);
#710=IFCRECTANGLEPROFILEDEF(.AREA.,$,#709,1.3999999999999999,0.12);
#711=IFCCARTESIANPOINT((0.,0.,0.));
#712=IFCDIRECTION((0.,0.,1.));
#713=IFCDIRECTION((1.,0.,0.));
#714=IFCAXIS2PLACEMENT3D(#711,#712,#713);
#715=IFCDIRECTION((0.,0.,1.));
#716=IFCEXTRUDEDAREASOLID(#710,#714,#715,1.5);
#717=IFCSHAPEREPRESENTATION(#9,'Body','SweptSolid',(#716));
#718=IFCPRODUCTDEFINITIONSHAPE($,$,(#717));
#719=IFCCARTESIANPOINT((8.4000000000000004,0.089999999999999997,1.3999999999999999));
#720=IFCDIRECTION((0.,0.,1.));
#721=IFCDIRECTION((1.,0.,0.));
#722=IFCAXIS2PLACEMENT3D(#719,#720,#721);
#723=IFCLOCALPLACEMENT(#27,#722);
#724=IFCWINDOW('0gOcfF5MzM0e9p5Kmnl7Sn',$,'front window 3',$,$,#723,#718,'2a626a4f-156f-5602-8273-154c31bc7731',$,$,$,$,$);
#725=IFCPROPERTYSINGLEVALUE('EntityId',$,IFCIDENTIFIER('2a626a4f-156f-5602-8273-154c31bc7731'),$);
#726=IFCPROPERTYSINGLEVALUE('ProducerType',$,IFCLABEL('demo'),$);
#727=IFCPROPERTYSINGLEVALUE('FixtureId',$,IFCIDENTIFIER('t0-minimal-hall-v1'),$);
#728=IFCPROPERTYSINGLEVALUE('SourceKey',$,IFCIDENTIFIER('opening:window:2'),$);
#729=IFCPROPERTYSINGLEVALUE('SpecHash',$,IFCIDENTIFIER('328cb07efa23ec186172074c38bf11018b904adf07d125115f3471685556e21c'),$);
#730=IFCPROPERTYSET('3TGeUNiKnP3gDcM6kgAvzR',$,'Pset_GuJianSource',$,(#725,#726,#727,#728,#729));
#731=IFCRELDEFINESBYPROPERTIES('1fmKNngjXVHQDufdL8v9_x',$,$,$,(#724),#730);
#732=IFCCARTESIANPOINTLIST3D(((-0.59999999999999998,-0.59999999999999998,4.2000000000000002),(12.,-0.59999999999999998,4.2000000000000002),(12.,3.6000000000000001,6.5999999999999996),(-0.59999999999999998,3.6000000000000001,6.5999999999999996),(-0.59999999999999998,-0.59999999999999998,4.3799999999999999),(12.,-0.59999999999999998,4.3799999999999999),(12.,3.6000000000000001,6.7800000000000002),(-0.59999999999999998,3.6000000000000001,6.7800000000000002)));
#733=IFCTRIANGULATEDFACESET(#732,$,.T.,((1,3,2),(1,4,3),(5,6,7),(5,7,8),(1,2,6),(1,6,5),(2,3,7),(2,7,6),(3,4,8),(3,8,7),(4,1,5),(4,5,8)),$);
#734=IFCSHAPEREPRESENTATION(#9,'Body','Tessellation',(#733));
#735=IFCPRODUCTDEFINITIONSHAPE($,$,(#734));
#736=IFCCARTESIANPOINT((0.,0.,0.));
#737=IFCDIRECTION((0.,0.,1.));
#738=IFCDIRECTION((1.,0.,0.));
#739=IFCAXIS2PLACEMENT3D(#736,#737,#738);
#740=IFCLOCALPLACEMENT(#27,#739);
#741=IFCSLAB('3Sg8fhFw5GCgZtqEIASJ3v',$,'\X2\535757615C4B9762\X0\',$,$,#740,#735,'dca88a6b-3fa1-5032-a8f7-d0e48a7130f9',$);
#742=IFCPROPERTYSINGLEVALUE('EntityId',$,IFCIDENTIFIER('dca88a6b-3fa1-5032-a8f7-d0e48a7130f9'),$);
#743=IFCPROPERTYSINGLEVALUE('ProducerType',$,IFCLABEL('demo'),$);
#744=IFCPROPERTYSINGLEVALUE('FixtureId',$,IFCIDENTIFIER('t0-minimal-hall-v1'),$);
#745=IFCPROPERTYSINGLEVALUE('SourceKey',$,IFCIDENTIFIER('roof:south'),$);
#746=IFCPROPERTYSINGLEVALUE('SpecHash',$,IFCIDENTIFIER('328cb07efa23ec186172074c38bf11018b904adf07d125115f3471685556e21c'),$);
#747=IFCPROPERTYSET('26aDzzaoTTsAhJsus15e16',$,'Pset_GuJianSource',$,(#742,#743,#744,#745,#746));
#748=IFCRELDEFINESBYPROPERTIES('3zfi94r_HLgP8cIlBREZbT',$,$,$,(#741),#747);
#749=IFCCARTESIANPOINTLIST3D(((-0.59999999999999998,3.6000000000000001,6.5999999999999996),(12.,3.6000000000000001,6.5999999999999996),(12.,7.7999999999999998,4.2000000000000002),(-0.59999999999999998,7.7999999999999998,4.2000000000000002),(-0.59999999999999998,3.6000000000000001,6.7800000000000002),(12.,3.6000000000000001,6.7800000000000002),(12.,7.7999999999999998,4.3799999999999999),(-0.59999999999999998,7.7999999999999998,4.3799999999999999)));
#750=IFCTRIANGULATEDFACESET(#749,$,.T.,((1,3,2),(1,4,3),(5,6,7),(5,7,8),(1,2,6),(1,6,5),(2,3,7),(2,7,6),(3,4,8),(3,8,7),(4,1,5),(4,5,8)),$);
#751=IFCSHAPEREPRESENTATION(#9,'Body','Tessellation',(#750));
#752=IFCPRODUCTDEFINITIONSHAPE($,$,(#751));
#753=IFCCARTESIANPOINT((0.,0.,0.));
#754=IFCDIRECTION((0.,0.,1.));
#755=IFCDIRECTION((1.,0.,0.));
#756=IFCAXIS2PLACEMENT3D(#753,#754,#755);
#757=IFCLOCALPLACEMENT(#27,#756);
#758=IFCSLAB('1w279jJ5XGVh1YHBqqHESJ',$,'\X2\531757615C4B9762\X0\',$,$,#757,#752,'7a08726d-4c58-507e-b062-44bd3444e713',$);
#759=IFCPROPERTYSINGLEVALUE('EntityId',$,IFCIDENTIFIER('7a08726d-4c58-507e-b062-44bd3444e713'),$);
#760=IFCPROPERTYSINGLEVALUE('ProducerType',$,IFCLABEL('demo'),$);
#761=IFCPROPERTYSINGLEVALUE('FixtureId',$,IFCIDENTIFIER('t0-minimal-hall-v1'),$);
#762=IFCPROPERTYSINGLEVALUE('SourceKey',$,IFCIDENTIFIER('roof:north'),$);
#763=IFCPROPERTYSINGLEVALUE('SpecHash',$,IFCIDENTIFIER('328cb07efa23ec186172074c38bf11018b904adf07d125115f3471685556e21c'),$);
#764=IFCPROPERTYSET('0DSAGJO49UthYbbWKdxOFJ',$,'Pset_GuJianSource',$,(#759,#760,#761,#762,#763));
#765=IFCRELDEFINESBYPROPERTIES('2dBmZ1ugDPQfyIGEoaVCNx',$,$,$,(#758),#764);
#766=IFCRELCONTAINEDINSPATIALSTRUCTURE('3jSXOt33rJJB3ChuAbyEbQ',$,$,$,(#49,#74,#99,#124,#149,#174,#199,#224,#249,#274,#299,#324,#349,#374,#399,#424,#449,#474,#499,#524,#549,#574,#599,#624,#649,#674,#699,#724,#741,#758),#28);
ENDSEC;
END-ISO-10303-21;
